G04 #@! TF.FileFunction,Legend,Top*
%FSLAX46Y46*%
G04 Gerber Fmt 4.6, Leading zero omitted, Abs format (unit mm)*
G04 Created by KiCad (PCBNEW 4.0.2-stable) date Tuesday, May 17, 2016 'PMt' 02:24:59 PM*
%MOMM*%
G01*
G04 APERTURE LIST*
%ADD10C,0.100000*%
%ADD11C,0.150000*%
G04 APERTURE END LIST*
D10*
D11*
X131064000Y-108204000D02*
X125984000Y-108204000D01*
X125984000Y-108204000D02*
X125984000Y-103632000D01*
X125984000Y-103632000D02*
X131064000Y-103632000D01*
X131064000Y-103632000D02*
X131064000Y-108204000D01*
X131064000Y-106680000D02*
X130556000Y-106680000D01*
X130556000Y-106680000D02*
X130556000Y-105410000D01*
X130556000Y-105410000D02*
X131064000Y-105410000D01*
X134020000Y-105297000D02*
X135220000Y-105297000D01*
X135220000Y-107047000D02*
X134020000Y-107047000D01*
X119292000Y-94750000D02*
X119292000Y-95750000D01*
X120992000Y-95750000D02*
X120992000Y-94750000D01*
X133516000Y-95512000D02*
X133516000Y-96512000D01*
X135216000Y-96512000D02*
X135216000Y-95512000D01*
X139166000Y-93192000D02*
X139166000Y-94742000D01*
X139446000Y-98552000D02*
X139446000Y-96012000D01*
X139446000Y-96012000D02*
X141986000Y-96012000D01*
X142266000Y-94742000D02*
X142266000Y-93192000D01*
X142266000Y-93192000D02*
X139166000Y-93192000D01*
X141986000Y-96012000D02*
X141986000Y-98552000D01*
X141986000Y-98552000D02*
X139446000Y-98552000D01*
X140491160Y-101203760D02*
X140442900Y-101203760D01*
X137692180Y-101904800D02*
X137692180Y-101203760D01*
X137692180Y-101203760D02*
X137941100Y-101203760D01*
X140491160Y-101203760D02*
X140691820Y-101203760D01*
X140691820Y-101203760D02*
X140691820Y-101904800D01*
X123585000Y-102200000D02*
X123585000Y-101000000D01*
X125335000Y-101000000D02*
X125335000Y-102200000D01*
X127141000Y-99406000D02*
X127141000Y-98206000D01*
X128891000Y-98206000D02*
X128891000Y-99406000D01*
X132701000Y-98206000D02*
X132701000Y-99406000D01*
X130951000Y-99406000D02*
X130951000Y-98206000D01*
X125335000Y-107096000D02*
X125335000Y-108296000D01*
X123585000Y-108296000D02*
X123585000Y-107096000D01*
X125638000Y-110631000D02*
X126838000Y-110631000D01*
X126838000Y-112381000D02*
X125638000Y-112381000D01*
X136765000Y-109636000D02*
X136765000Y-110836000D01*
X135015000Y-110836000D02*
X135015000Y-109636000D01*
X142240000Y-105156000D02*
X140970000Y-105156000D01*
X141490700Y-105943400D02*
X141744700Y-105905300D01*
X141744700Y-105905300D02*
X142024100Y-105727500D01*
X142024100Y-105727500D02*
X142240000Y-105410000D01*
X142240000Y-105410000D02*
X142252700Y-104965500D01*
X142252700Y-104965500D02*
X142049500Y-104609900D01*
X142049500Y-104609900D02*
X141757400Y-104432100D01*
X141757400Y-104432100D02*
X141439900Y-104381300D01*
X141439900Y-104381300D02*
X141033500Y-104482900D01*
X141033500Y-104482900D02*
X140779500Y-104825800D01*
X140779500Y-104825800D02*
X140690600Y-105003600D01*
X138430000Y-113538000D02*
X138430000Y-103886000D01*
X141478000Y-103886000D02*
X142748000Y-103886000D01*
X142748000Y-103886000D02*
X142748000Y-113538000D01*
X142748000Y-113538000D02*
X137668000Y-113538000D01*
X137668000Y-103886000D02*
X140208000Y-103886000D01*
X140208000Y-103886000D02*
X141478000Y-103886000D01*
X118442000Y-101170000D02*
X118442000Y-104570000D01*
X118444944Y-101172944D02*
G75*
G02X122542000Y-102870000I1697056J-1697056D01*
G01*
X118444944Y-104567056D02*
G75*
G03X122542000Y-102870000I1697056J1697056D01*
G01*
X134020000Y-101995000D02*
X135220000Y-101995000D01*
X135220000Y-103745000D02*
X134020000Y-103745000D01*
X124714000Y-92710000D02*
X132334000Y-92710000D01*
X124714000Y-95250000D02*
X132334000Y-95250000D01*
X121894000Y-95530000D02*
X123444000Y-95530000D01*
X132334000Y-92710000D02*
X132334000Y-95250000D01*
X124714000Y-95250000D02*
X124714000Y-92710000D01*
X123444000Y-92430000D02*
X121894000Y-92430000D01*
X121894000Y-92430000D02*
X121894000Y-95530000D01*
X137160000Y-96329500D02*
X137160000Y-96710500D01*
X137160000Y-95313500D02*
X137160000Y-95694500D01*
X137160000Y-95694500D02*
X137541000Y-96329500D01*
X137541000Y-96329500D02*
X136779000Y-96329500D01*
X136779000Y-96329500D02*
X137160000Y-95694500D01*
X137668000Y-95694500D02*
X136652000Y-95694500D01*
X136260000Y-94012000D02*
X136260000Y-97552000D01*
X138060000Y-94012000D02*
X138060000Y-97552000D01*
X131738000Y-109736000D02*
X131738000Y-110736000D01*
X133438000Y-110736000D02*
X133438000Y-109736000D01*
X119872760Y-107920840D02*
X119872760Y-107969100D01*
X120573800Y-110719820D02*
X119872760Y-110719820D01*
X119872760Y-110719820D02*
X119872760Y-110470900D01*
X119872760Y-107920840D02*
X119872760Y-107720180D01*
X119872760Y-107720180D02*
X120573800Y-107720180D01*
X127762095Y-105624381D02*
X127762095Y-106433905D01*
X127809714Y-106529143D01*
X127857333Y-106576762D01*
X127952571Y-106624381D01*
X128143048Y-106624381D01*
X128238286Y-106576762D01*
X128285905Y-106529143D01*
X128333524Y-106433905D01*
X128333524Y-105624381D01*
X129333524Y-106624381D02*
X128762095Y-106624381D01*
X129047809Y-106624381D02*
X129047809Y-105624381D01*
X128952571Y-105767238D01*
X128857333Y-105862476D01*
X128762095Y-105910095D01*
X134478734Y-104998781D02*
X134145400Y-104522590D01*
X133907305Y-104998781D02*
X133907305Y-103998781D01*
X134288258Y-103998781D01*
X134383496Y-104046400D01*
X134431115Y-104094019D01*
X134478734Y-104189257D01*
X134478734Y-104332114D01*
X134431115Y-104427352D01*
X134383496Y-104474971D01*
X134288258Y-104522590D01*
X133907305Y-104522590D01*
X135335877Y-104332114D02*
X135335877Y-104998781D01*
X135097781Y-103951162D02*
X134859686Y-104665448D01*
X135478734Y-104665448D01*
X122108934Y-97283543D02*
X122061315Y-97331162D01*
X121918458Y-97378781D01*
X121823220Y-97378781D01*
X121680362Y-97331162D01*
X121585124Y-97235924D01*
X121537505Y-97140686D01*
X121489886Y-96950210D01*
X121489886Y-96807352D01*
X121537505Y-96616876D01*
X121585124Y-96521638D01*
X121680362Y-96426400D01*
X121823220Y-96378781D01*
X121918458Y-96378781D01*
X122061315Y-96426400D01*
X122108934Y-96474019D01*
X123061315Y-97378781D02*
X122489886Y-97378781D01*
X122775600Y-97378781D02*
X122775600Y-96378781D01*
X122680362Y-96521638D01*
X122585124Y-96616876D01*
X122489886Y-96664495D01*
X134224734Y-93041743D02*
X134177115Y-93089362D01*
X134034258Y-93136981D01*
X133939020Y-93136981D01*
X133796162Y-93089362D01*
X133700924Y-92994124D01*
X133653305Y-92898886D01*
X133605686Y-92708410D01*
X133605686Y-92565552D01*
X133653305Y-92375076D01*
X133700924Y-92279838D01*
X133796162Y-92184600D01*
X133939020Y-92136981D01*
X134034258Y-92136981D01*
X134177115Y-92184600D01*
X134224734Y-92232219D01*
X134558067Y-92136981D02*
X135177115Y-92136981D01*
X134843781Y-92517933D01*
X134986639Y-92517933D01*
X135081877Y-92565552D01*
X135129496Y-92613171D01*
X135177115Y-92708410D01*
X135177115Y-92946505D01*
X135129496Y-93041743D01*
X135081877Y-93089362D01*
X134986639Y-93136981D01*
X134700924Y-93136981D01*
X134605686Y-93089362D01*
X134558067Y-93041743D01*
X139977905Y-92400381D02*
X139977905Y-91400381D01*
X140358858Y-91400381D01*
X140454096Y-91448000D01*
X140501715Y-91495619D01*
X140549334Y-91590857D01*
X140549334Y-91733714D01*
X140501715Y-91828952D01*
X140454096Y-91876571D01*
X140358858Y-91924190D01*
X139977905Y-91924190D01*
X140930286Y-91495619D02*
X140977905Y-91448000D01*
X141073143Y-91400381D01*
X141311239Y-91400381D01*
X141406477Y-91448000D01*
X141454096Y-91495619D01*
X141501715Y-91590857D01*
X141501715Y-91686095D01*
X141454096Y-91828952D01*
X140882667Y-92400381D01*
X141501715Y-92400381D01*
X141636762Y-102401619D02*
X141541524Y-102354000D01*
X141446286Y-102258762D01*
X141303429Y-102115905D01*
X141208190Y-102068286D01*
X141112952Y-102068286D01*
X141160571Y-102306381D02*
X141065333Y-102258762D01*
X140970095Y-102163524D01*
X140922476Y-101973048D01*
X140922476Y-101639714D01*
X140970095Y-101449238D01*
X141065333Y-101354000D01*
X141160571Y-101306381D01*
X141351048Y-101306381D01*
X141446286Y-101354000D01*
X141541524Y-101449238D01*
X141589143Y-101639714D01*
X141589143Y-101973048D01*
X141541524Y-102163524D01*
X141446286Y-102258762D01*
X141351048Y-102306381D01*
X141160571Y-102306381D01*
X142541524Y-102306381D02*
X141970095Y-102306381D01*
X142255809Y-102306381D02*
X142255809Y-101306381D01*
X142160571Y-101449238D01*
X142065333Y-101544476D01*
X141970095Y-101592095D01*
X124293334Y-99029781D02*
X123960000Y-98553590D01*
X123721905Y-99029781D02*
X123721905Y-98029781D01*
X124102858Y-98029781D01*
X124198096Y-98077400D01*
X124245715Y-98125019D01*
X124293334Y-98220257D01*
X124293334Y-98363114D01*
X124245715Y-98458352D01*
X124198096Y-98505971D01*
X124102858Y-98553590D01*
X123721905Y-98553590D01*
X125245715Y-99029781D02*
X124674286Y-99029781D01*
X124960000Y-99029781D02*
X124960000Y-98029781D01*
X124864762Y-98172638D01*
X124769524Y-98267876D01*
X124674286Y-98315495D01*
X125817334Y-97480381D02*
X125484000Y-97004190D01*
X125245905Y-97480381D02*
X125245905Y-96480381D01*
X125626858Y-96480381D01*
X125722096Y-96528000D01*
X125769715Y-96575619D01*
X125817334Y-96670857D01*
X125817334Y-96813714D01*
X125769715Y-96908952D01*
X125722096Y-96956571D01*
X125626858Y-97004190D01*
X125245905Y-97004190D01*
X126198286Y-96575619D02*
X126245905Y-96528000D01*
X126341143Y-96480381D01*
X126579239Y-96480381D01*
X126674477Y-96528000D01*
X126722096Y-96575619D01*
X126769715Y-96670857D01*
X126769715Y-96766095D01*
X126722096Y-96908952D01*
X126150667Y-97480381D01*
X126769715Y-97480381D01*
X133691334Y-100020381D02*
X133358000Y-99544190D01*
X133119905Y-100020381D02*
X133119905Y-99020381D01*
X133500858Y-99020381D01*
X133596096Y-99068000D01*
X133643715Y-99115619D01*
X133691334Y-99210857D01*
X133691334Y-99353714D01*
X133643715Y-99448952D01*
X133596096Y-99496571D01*
X133500858Y-99544190D01*
X133119905Y-99544190D01*
X134024667Y-99020381D02*
X134643715Y-99020381D01*
X134310381Y-99401333D01*
X134453239Y-99401333D01*
X134548477Y-99448952D01*
X134596096Y-99496571D01*
X134643715Y-99591810D01*
X134643715Y-99829905D01*
X134596096Y-99925143D01*
X134548477Y-99972762D01*
X134453239Y-100020381D01*
X134167524Y-100020381D01*
X134072286Y-99972762D01*
X134024667Y-99925143D01*
X122261334Y-107132381D02*
X121928000Y-106656190D01*
X121689905Y-107132381D02*
X121689905Y-106132381D01*
X122070858Y-106132381D01*
X122166096Y-106180000D01*
X122213715Y-106227619D01*
X122261334Y-106322857D01*
X122261334Y-106465714D01*
X122213715Y-106560952D01*
X122166096Y-106608571D01*
X122070858Y-106656190D01*
X121689905Y-106656190D01*
X123166096Y-106132381D02*
X122689905Y-106132381D01*
X122642286Y-106608571D01*
X122689905Y-106560952D01*
X122785143Y-106513333D01*
X123023239Y-106513333D01*
X123118477Y-106560952D01*
X123166096Y-106608571D01*
X123213715Y-106703810D01*
X123213715Y-106941905D01*
X123166096Y-107037143D01*
X123118477Y-107084762D01*
X123023239Y-107132381D01*
X122785143Y-107132381D01*
X122689905Y-107084762D01*
X122642286Y-107037143D01*
X126045934Y-113812581D02*
X125712600Y-113336390D01*
X125474505Y-113812581D02*
X125474505Y-112812581D01*
X125855458Y-112812581D01*
X125950696Y-112860200D01*
X125998315Y-112907819D01*
X126045934Y-113003057D01*
X126045934Y-113145914D01*
X125998315Y-113241152D01*
X125950696Y-113288771D01*
X125855458Y-113336390D01*
X125474505Y-113336390D01*
X126903077Y-112812581D02*
X126712600Y-112812581D01*
X126617362Y-112860200D01*
X126569743Y-112907819D01*
X126474505Y-113050676D01*
X126426886Y-113241152D01*
X126426886Y-113622105D01*
X126474505Y-113717343D01*
X126522124Y-113764962D01*
X126617362Y-113812581D01*
X126807839Y-113812581D01*
X126903077Y-113764962D01*
X126950696Y-113717343D01*
X126998315Y-113622105D01*
X126998315Y-113384010D01*
X126950696Y-113288771D01*
X126903077Y-113241152D01*
X126807839Y-113193533D01*
X126617362Y-113193533D01*
X126522124Y-113241152D01*
X126474505Y-113288771D01*
X126426886Y-113384010D01*
X135774134Y-113837981D02*
X135440800Y-113361790D01*
X135202705Y-113837981D02*
X135202705Y-112837981D01*
X135583658Y-112837981D01*
X135678896Y-112885600D01*
X135726515Y-112933219D01*
X135774134Y-113028457D01*
X135774134Y-113171314D01*
X135726515Y-113266552D01*
X135678896Y-113314171D01*
X135583658Y-113361790D01*
X135202705Y-113361790D01*
X136107467Y-112837981D02*
X136774134Y-112837981D01*
X136345562Y-113837981D01*
X140120762Y-114752381D02*
X139787428Y-114276190D01*
X139549333Y-114752381D02*
X139549333Y-113752381D01*
X139930286Y-113752381D01*
X140025524Y-113800000D01*
X140073143Y-113847619D01*
X140120762Y-113942857D01*
X140120762Y-114085714D01*
X140073143Y-114180952D01*
X140025524Y-114228571D01*
X139930286Y-114276190D01*
X139549333Y-114276190D01*
X140406476Y-113752381D02*
X140739809Y-114752381D01*
X141073143Y-113752381D01*
X141930286Y-114752381D02*
X141358857Y-114752381D01*
X141644571Y-114752381D02*
X141644571Y-113752381D01*
X141549333Y-113895238D01*
X141454095Y-113990476D01*
X141358857Y-114038095D01*
X119380095Y-98766381D02*
X119380095Y-99575905D01*
X119427714Y-99671143D01*
X119475333Y-99718762D01*
X119570571Y-99766381D01*
X119761048Y-99766381D01*
X119856286Y-99718762D01*
X119903905Y-99671143D01*
X119951524Y-99575905D01*
X119951524Y-98766381D01*
X120380095Y-98861619D02*
X120427714Y-98814000D01*
X120522952Y-98766381D01*
X120761048Y-98766381D01*
X120856286Y-98814000D01*
X120903905Y-98861619D01*
X120951524Y-98956857D01*
X120951524Y-99052095D01*
X120903905Y-99194952D01*
X120332476Y-99766381D01*
X120951524Y-99766381D01*
X134453334Y-101620581D02*
X134120000Y-101144390D01*
X133881905Y-101620581D02*
X133881905Y-100620581D01*
X134262858Y-100620581D01*
X134358096Y-100668200D01*
X134405715Y-100715819D01*
X134453334Y-100811057D01*
X134453334Y-100953914D01*
X134405715Y-101049152D01*
X134358096Y-101096771D01*
X134262858Y-101144390D01*
X133881905Y-101144390D01*
X135024762Y-101049152D02*
X134929524Y-101001533D01*
X134881905Y-100953914D01*
X134834286Y-100858676D01*
X134834286Y-100811057D01*
X134881905Y-100715819D01*
X134929524Y-100668200D01*
X135024762Y-100620581D01*
X135215239Y-100620581D01*
X135310477Y-100668200D01*
X135358096Y-100715819D01*
X135405715Y-100811057D01*
X135405715Y-100858676D01*
X135358096Y-100953914D01*
X135310477Y-101001533D01*
X135215239Y-101049152D01*
X135024762Y-101049152D01*
X134929524Y-101096771D01*
X134881905Y-101144390D01*
X134834286Y-101239629D01*
X134834286Y-101430105D01*
X134881905Y-101525343D01*
X134929524Y-101572962D01*
X135024762Y-101620581D01*
X135215239Y-101620581D01*
X135310477Y-101572962D01*
X135358096Y-101525343D01*
X135405715Y-101430105D01*
X135405715Y-101239629D01*
X135358096Y-101144390D01*
X135310477Y-101096771D01*
X135215239Y-101049152D01*
X122756705Y-91993981D02*
X122756705Y-90993981D01*
X123137658Y-90993981D01*
X123232896Y-91041600D01*
X123280515Y-91089219D01*
X123328134Y-91184457D01*
X123328134Y-91327314D01*
X123280515Y-91422552D01*
X123232896Y-91470171D01*
X123137658Y-91517790D01*
X122756705Y-91517790D01*
X124280515Y-91993981D02*
X123709086Y-91993981D01*
X123994800Y-91993981D02*
X123994800Y-90993981D01*
X123899562Y-91136838D01*
X123804324Y-91232076D01*
X123709086Y-91279695D01*
X136345705Y-93035381D02*
X136345705Y-92035381D01*
X136583800Y-92035381D01*
X136726658Y-92083000D01*
X136821896Y-92178238D01*
X136869515Y-92273476D01*
X136917134Y-92463952D01*
X136917134Y-92606810D01*
X136869515Y-92797286D01*
X136821896Y-92892524D01*
X136726658Y-92987762D01*
X136583800Y-93035381D01*
X136345705Y-93035381D01*
X137869515Y-93035381D02*
X137298086Y-93035381D01*
X137583800Y-93035381D02*
X137583800Y-92035381D01*
X137488562Y-92178238D01*
X137393324Y-92273476D01*
X137298086Y-92321095D01*
X132421334Y-113793543D02*
X132373715Y-113841162D01*
X132230858Y-113888781D01*
X132135620Y-113888781D01*
X131992762Y-113841162D01*
X131897524Y-113745924D01*
X131849905Y-113650686D01*
X131802286Y-113460210D01*
X131802286Y-113317352D01*
X131849905Y-113126876D01*
X131897524Y-113031638D01*
X131992762Y-112936400D01*
X132135620Y-112888781D01*
X132230858Y-112888781D01*
X132373715Y-112936400D01*
X132421334Y-112984019D01*
X132802286Y-112984019D02*
X132849905Y-112936400D01*
X132945143Y-112888781D01*
X133183239Y-112888781D01*
X133278477Y-112936400D01*
X133326096Y-112984019D01*
X133373715Y-113079257D01*
X133373715Y-113174495D01*
X133326096Y-113317352D01*
X132754667Y-113888781D01*
X133373715Y-113888781D01*
X119634095Y-111212381D02*
X119634095Y-112021905D01*
X119681714Y-112117143D01*
X119729333Y-112164762D01*
X119824571Y-112212381D01*
X120015048Y-112212381D01*
X120110286Y-112164762D01*
X120157905Y-112117143D01*
X120205524Y-112021905D01*
X120205524Y-111212381D01*
X120586476Y-111212381D02*
X121205524Y-111212381D01*
X120872190Y-111593333D01*
X121015048Y-111593333D01*
X121110286Y-111640952D01*
X121157905Y-111688571D01*
X121205524Y-111783810D01*
X121205524Y-112021905D01*
X121157905Y-112117143D01*
X121110286Y-112164762D01*
X121015048Y-112212381D01*
X120729333Y-112212381D01*
X120634095Y-112164762D01*
X120586476Y-112117143D01*
M02*
