G04 #@! TF.FileFunction,Legend,Bot*
%FSLAX46Y46*%
G04 Gerber Fmt 4.6, Leading zero omitted, Abs format (unit mm)*
G04 Created by KiCad (PCBNEW 4.0.2-stable) date Wednesday, May 04, 2016 'AMt' 10:04:42 AM*
%MOMM*%
G01*
G04 APERTURE LIST*
%ADD10C,0.100000*%
%ADD11C,0.250000*%
G04 APERTURE END LIST*
D10*
D11*
X79370581Y-112644181D02*
X79370581Y-111644181D01*
X78942009Y-112644181D02*
X78942009Y-112120371D01*
X78989628Y-112025133D01*
X79084866Y-111977514D01*
X79227724Y-111977514D01*
X79322962Y-112025133D01*
X79370581Y-112072752D01*
X78608676Y-111977514D02*
X78227724Y-111977514D01*
X78465819Y-111644181D02*
X78465819Y-112501324D01*
X78418200Y-112596562D01*
X78322962Y-112644181D01*
X78227724Y-112644181D01*
X78037247Y-111977514D02*
X77656295Y-111977514D01*
X77894390Y-111644181D02*
X77894390Y-112501324D01*
X77846771Y-112596562D01*
X77751533Y-112644181D01*
X77656295Y-112644181D01*
X77322961Y-111977514D02*
X77322961Y-112977514D01*
X77322961Y-112025133D02*
X77227723Y-111977514D01*
X77037246Y-111977514D01*
X76942008Y-112025133D01*
X76894389Y-112072752D01*
X76846770Y-112167990D01*
X76846770Y-112453705D01*
X76894389Y-112548943D01*
X76942008Y-112596562D01*
X77037246Y-112644181D01*
X77227723Y-112644181D01*
X77322961Y-112596562D01*
X76418199Y-112548943D02*
X76370580Y-112596562D01*
X76418199Y-112644181D01*
X76465818Y-112596562D01*
X76418199Y-112548943D01*
X76418199Y-112644181D01*
X76418199Y-112025133D02*
X76370580Y-112072752D01*
X76418199Y-112120371D01*
X76465818Y-112072752D01*
X76418199Y-112025133D01*
X76418199Y-112120371D01*
X75227723Y-111596562D02*
X76084866Y-112882276D01*
X74180104Y-111596562D02*
X75037247Y-112882276D01*
X73942009Y-111977514D02*
X73751533Y-112644181D01*
X73561056Y-112167990D01*
X73370580Y-112644181D01*
X73180104Y-111977514D01*
X72894390Y-111977514D02*
X72703914Y-112644181D01*
X72513437Y-112167990D01*
X72322961Y-112644181D01*
X72132485Y-111977514D01*
X71846771Y-111977514D02*
X71656295Y-112644181D01*
X71465818Y-112167990D01*
X71275342Y-112644181D01*
X71084866Y-111977514D01*
X70703914Y-112548943D02*
X70656295Y-112596562D01*
X70703914Y-112644181D01*
X70751533Y-112596562D01*
X70703914Y-112548943D01*
X70703914Y-112644181D01*
X69799152Y-112644181D02*
X69799152Y-112120371D01*
X69846771Y-112025133D01*
X69942009Y-111977514D01*
X70132486Y-111977514D01*
X70227724Y-112025133D01*
X69799152Y-112596562D02*
X69894390Y-112644181D01*
X70132486Y-112644181D01*
X70227724Y-112596562D01*
X70275343Y-112501324D01*
X70275343Y-112406086D01*
X70227724Y-112310848D01*
X70132486Y-112263229D01*
X69894390Y-112263229D01*
X69799152Y-112215610D01*
X69322962Y-111977514D02*
X69322962Y-112644181D01*
X69322962Y-112072752D02*
X69275343Y-112025133D01*
X69180105Y-111977514D01*
X69037247Y-111977514D01*
X68942009Y-112025133D01*
X68894390Y-112120371D01*
X68894390Y-112644181D01*
X67989628Y-112644181D02*
X67989628Y-112120371D01*
X68037247Y-112025133D01*
X68132485Y-111977514D01*
X68322962Y-111977514D01*
X68418200Y-112025133D01*
X67989628Y-112596562D02*
X68084866Y-112644181D01*
X68322962Y-112644181D01*
X68418200Y-112596562D01*
X68465819Y-112501324D01*
X68465819Y-112406086D01*
X68418200Y-112310848D01*
X68322962Y-112263229D01*
X68084866Y-112263229D01*
X67989628Y-112215610D01*
X67370581Y-112644181D02*
X67465819Y-112596562D01*
X67513438Y-112501324D01*
X67513438Y-111644181D01*
X66846771Y-112644181D02*
X66942009Y-112596562D01*
X66989628Y-112548943D01*
X67037247Y-112453705D01*
X67037247Y-112167990D01*
X66989628Y-112072752D01*
X66942009Y-112025133D01*
X66846771Y-111977514D01*
X66703913Y-111977514D01*
X66608675Y-112025133D01*
X66561056Y-112072752D01*
X66513437Y-112167990D01*
X66513437Y-112453705D01*
X66561056Y-112548943D01*
X66608675Y-112596562D01*
X66703913Y-112644181D01*
X66846771Y-112644181D01*
X65656294Y-111977514D02*
X65656294Y-112787038D01*
X65703913Y-112882276D01*
X65751532Y-112929895D01*
X65846771Y-112977514D01*
X65989628Y-112977514D01*
X66084866Y-112929895D01*
X65656294Y-112596562D02*
X65751532Y-112644181D01*
X65942009Y-112644181D01*
X66037247Y-112596562D01*
X66084866Y-112548943D01*
X66132485Y-112453705D01*
X66132485Y-112167990D01*
X66084866Y-112072752D01*
X66037247Y-112025133D01*
X65942009Y-111977514D01*
X65751532Y-111977514D01*
X65656294Y-112025133D01*
X65275342Y-111977514D02*
X64751532Y-111977514D01*
X65275342Y-112644181D01*
X64751532Y-112644181D01*
X64227723Y-112644181D02*
X64322961Y-112596562D01*
X64370580Y-112548943D01*
X64418199Y-112453705D01*
X64418199Y-112167990D01*
X64370580Y-112072752D01*
X64322961Y-112025133D01*
X64227723Y-111977514D01*
X64084865Y-111977514D01*
X63989627Y-112025133D01*
X63942008Y-112072752D01*
X63894389Y-112167990D01*
X63894389Y-112453705D01*
X63942008Y-112548943D01*
X63989627Y-112596562D01*
X64084865Y-112644181D01*
X64227723Y-112644181D01*
X63322961Y-112644181D02*
X63418199Y-112596562D01*
X63465818Y-112548943D01*
X63513437Y-112453705D01*
X63513437Y-112167990D01*
X63465818Y-112072752D01*
X63418199Y-112025133D01*
X63322961Y-111977514D01*
X63180103Y-111977514D01*
X63084865Y-112025133D01*
X63037246Y-112072752D01*
X62989627Y-112167990D01*
X62989627Y-112453705D01*
X63037246Y-112548943D01*
X63084865Y-112596562D01*
X63180103Y-112644181D01*
X63322961Y-112644181D01*
X62561056Y-112548943D02*
X62513437Y-112596562D01*
X62561056Y-112644181D01*
X62608675Y-112596562D01*
X62561056Y-112548943D01*
X62561056Y-112644181D01*
X61656294Y-112596562D02*
X61751532Y-112644181D01*
X61942009Y-112644181D01*
X62037247Y-112596562D01*
X62084866Y-112548943D01*
X62132485Y-112453705D01*
X62132485Y-112167990D01*
X62084866Y-112072752D01*
X62037247Y-112025133D01*
X61942009Y-111977514D01*
X61751532Y-111977514D01*
X61656294Y-112025133D01*
X61084866Y-112644181D02*
X61180104Y-112596562D01*
X61227723Y-112548943D01*
X61275342Y-112453705D01*
X61275342Y-112167990D01*
X61227723Y-112072752D01*
X61180104Y-112025133D01*
X61084866Y-111977514D01*
X60942008Y-111977514D01*
X60846770Y-112025133D01*
X60799151Y-112072752D01*
X60751532Y-112167990D01*
X60751532Y-112453705D01*
X60799151Y-112548943D01*
X60846770Y-112596562D01*
X60942008Y-112644181D01*
X61084866Y-112644181D01*
X60322961Y-112644181D02*
X60322961Y-111977514D01*
X60322961Y-112072752D02*
X60275342Y-112025133D01*
X60180104Y-111977514D01*
X60037246Y-111977514D01*
X59942008Y-112025133D01*
X59894389Y-112120371D01*
X59894389Y-112644181D01*
X59894389Y-112120371D02*
X59846770Y-112025133D01*
X59751532Y-111977514D01*
X59608675Y-111977514D01*
X59513437Y-112025133D01*
X59465818Y-112120371D01*
X59465818Y-112644181D01*
M02*
