G04 #@! TF.FileFunction,Copper,L1,Top,Signal*
%FSLAX46Y46*%
G04 Gerber Fmt 4.6, Leading zero omitted, Abs format (unit mm)*
G04 Created by KiCad (PCBNEW 4.0.2-stable) date Tuesday, May 17, 2016 'PMt' 02:24:59 PM*
%MOMM*%
G01*
G04 APERTURE LIST*
%ADD10C,0.100000*%
%ADD11R,0.508000X1.143000*%
%ADD12R,1.500000X1.300000*%
%ADD13R,1.250000X1.500000*%
%ADD14R,2.032000X2.032000*%
%ADD15O,2.032000X2.032000*%
%ADD16R,0.800100X0.800100*%
%ADD17R,1.300000X1.500000*%
%ADD18C,1.524000*%
%ADD19O,1.501140X0.899160*%
%ADD20R,1.727200X2.032000*%
%ADD21O,1.727200X2.032000*%
%ADD22R,1.220000X0.910000*%
%ADD23C,0.600000*%
%ADD24C,0.250000*%
%ADD25C,0.500000*%
%ADD26C,0.254000*%
G04 APERTURE END LIST*
D10*
D11*
X130429000Y-109093000D03*
X129159000Y-109093000D03*
X127889000Y-109093000D03*
X126619000Y-109093000D03*
X126619000Y-102743000D03*
X127889000Y-102743000D03*
X129159000Y-102743000D03*
X130429000Y-102743000D03*
D12*
X135970000Y-106172000D03*
X133270000Y-106172000D03*
D13*
X120142000Y-96500000D03*
X120142000Y-94000000D03*
X134366000Y-97262000D03*
X134366000Y-94762000D03*
D14*
X140716000Y-94742000D03*
D15*
X140716000Y-97282000D03*
D16*
X138242000Y-102854760D03*
X140142000Y-102854760D03*
X139192000Y-100855780D03*
D17*
X124460000Y-100250000D03*
X124460000Y-102950000D03*
X128016000Y-97456000D03*
X128016000Y-100156000D03*
X131826000Y-100156000D03*
X131826000Y-97456000D03*
X124460000Y-109046000D03*
X124460000Y-106346000D03*
D12*
X127588000Y-111506000D03*
X124888000Y-111506000D03*
D17*
X135890000Y-111586000D03*
X135890000Y-108886000D03*
D18*
X140208000Y-108712000D03*
X140208000Y-111252000D03*
X140208000Y-106172000D03*
D19*
X120142000Y-102870000D03*
X120142000Y-104140000D03*
X120142000Y-101600000D03*
D12*
X135970000Y-102870000D03*
X133270000Y-102870000D03*
D20*
X123444000Y-93980000D03*
D21*
X125984000Y-93980000D03*
X128524000Y-93980000D03*
X131064000Y-93980000D03*
D22*
X137160000Y-94377000D03*
X137160000Y-97647000D03*
D13*
X132588000Y-111486000D03*
X132588000Y-108986000D03*
D16*
X121523760Y-110170000D03*
X121523760Y-108270000D03*
X119524780Y-109220000D03*
D23*
X122783600Y-110159800D03*
X134112000Y-108966000D03*
D24*
X137160000Y-94377000D02*
X140351000Y-94377000D01*
X140351000Y-94377000D02*
X140716000Y-94742000D01*
X137160000Y-94377000D02*
X134751000Y-94377000D01*
X134751000Y-94377000D02*
X134366000Y-94762000D01*
D25*
X121523760Y-110170000D02*
X122773400Y-110170000D01*
X122773400Y-110170000D02*
X122783600Y-110159800D01*
X123444000Y-93980000D02*
X120162000Y-93980000D01*
X120162000Y-93980000D02*
X120142000Y-94000000D01*
X132588000Y-108986000D02*
X134092000Y-108986000D01*
X134092000Y-108986000D02*
X134112000Y-108966000D01*
X130429000Y-109093000D02*
X132481000Y-109093000D01*
X132481000Y-109093000D02*
X132588000Y-108986000D01*
D24*
X135890000Y-108886000D02*
X135890000Y-106252000D01*
X135890000Y-106252000D02*
X135970000Y-106172000D01*
X135970000Y-106172000D02*
X140208000Y-106172000D01*
X140142000Y-102854760D02*
X140142000Y-106106000D01*
X140142000Y-106106000D02*
X140208000Y-106172000D01*
X128016000Y-100156000D02*
X124554000Y-100156000D01*
X124554000Y-100156000D02*
X124460000Y-100250000D01*
X128016000Y-100156000D02*
X128016000Y-102616000D01*
X128016000Y-102616000D02*
X127889000Y-102743000D01*
X124460000Y-109046000D02*
X124460000Y-111078000D01*
X124460000Y-111078000D02*
X124888000Y-111506000D01*
X128016000Y-97456000D02*
X131826000Y-97456000D01*
X129159000Y-102743000D02*
X129159000Y-105791000D01*
X129159000Y-105791000D02*
X128604000Y-106346000D01*
X124460000Y-106346000D02*
X128604000Y-106346000D01*
X128604000Y-106346000D02*
X133096000Y-106346000D01*
X133096000Y-106346000D02*
X133270000Y-106172000D01*
X127889000Y-109093000D02*
X127889000Y-111205000D01*
X127889000Y-111205000D02*
X127588000Y-111506000D01*
X127842000Y-109140000D02*
X127889000Y-109093000D01*
X135970000Y-102870000D02*
X138226760Y-102870000D01*
X138226760Y-102870000D02*
X138242000Y-102854760D01*
X138231840Y-102844600D02*
X138242000Y-102854760D01*
X138226760Y-102870000D02*
X138242000Y-102854760D01*
X137160000Y-97647000D02*
X140351000Y-97647000D01*
X140351000Y-97647000D02*
X140716000Y-97282000D01*
X137160000Y-97647000D02*
X134751000Y-97647000D01*
X134751000Y-97647000D02*
X134366000Y-97262000D01*
X134751000Y-97647000D02*
X134366000Y-97262000D01*
X140716000Y-97282000D02*
X140716000Y-100584000D01*
X140444220Y-100855780D02*
X139192000Y-100855780D01*
X140716000Y-100584000D02*
X140444220Y-100855780D01*
X121523760Y-108270000D02*
X121523760Y-103393240D01*
X121523760Y-103393240D02*
X122047000Y-102870000D01*
X120142000Y-102870000D02*
X122047000Y-102870000D01*
X122047000Y-102870000D02*
X124380000Y-102870000D01*
X124380000Y-102870000D02*
X124460000Y-102950000D01*
X133270000Y-102870000D02*
X130556000Y-102870000D01*
X130556000Y-102870000D02*
X130429000Y-102743000D01*
D26*
G36*
X142621000Y-115189000D02*
X117983000Y-115189000D01*
X117983000Y-109505750D01*
X118489730Y-109505750D01*
X118489730Y-109746359D01*
X118586403Y-109979748D01*
X118765031Y-110158377D01*
X118998420Y-110255050D01*
X119239030Y-110255050D01*
X119397780Y-110096300D01*
X119397780Y-109347000D01*
X119651780Y-109347000D01*
X119651780Y-110096300D01*
X119810530Y-110255050D01*
X120051140Y-110255050D01*
X120284529Y-110158377D01*
X120463157Y-109979748D01*
X120550058Y-109769950D01*
X120790304Y-109769950D01*
X120790304Y-110570050D01*
X120813105Y-110691229D01*
X120884722Y-110802524D01*
X120993996Y-110877188D01*
X121123710Y-110903456D01*
X121923810Y-110903456D01*
X122044989Y-110880655D01*
X122156284Y-110809038D01*
X122198673Y-110747000D01*
X122562748Y-110747000D01*
X122658335Y-110786691D01*
X122907771Y-110786909D01*
X123138303Y-110691655D01*
X123314835Y-110515431D01*
X123410491Y-110285065D01*
X123410709Y-110035629D01*
X123315455Y-109805097D01*
X123139231Y-109628565D01*
X122908865Y-109532909D01*
X122659429Y-109532691D01*
X122513470Y-109593000D01*
X122198527Y-109593000D01*
X122162798Y-109537476D01*
X122053524Y-109462812D01*
X121923810Y-109436544D01*
X121123710Y-109436544D01*
X121002531Y-109459345D01*
X120891236Y-109530962D01*
X120816572Y-109640236D01*
X120790304Y-109769950D01*
X120550058Y-109769950D01*
X120559830Y-109746359D01*
X120559830Y-109505750D01*
X120401080Y-109347000D01*
X119651780Y-109347000D01*
X119397780Y-109347000D01*
X118648480Y-109347000D01*
X118489730Y-109505750D01*
X117983000Y-109505750D01*
X117983000Y-108693641D01*
X118489730Y-108693641D01*
X118489730Y-108934250D01*
X118648480Y-109093000D01*
X119397780Y-109093000D01*
X119397780Y-108343700D01*
X119651780Y-108343700D01*
X119651780Y-109093000D01*
X120401080Y-109093000D01*
X120559830Y-108934250D01*
X120559830Y-108693641D01*
X120463157Y-108460252D01*
X120284529Y-108281623D01*
X120051140Y-108184950D01*
X119810530Y-108184950D01*
X119651780Y-108343700D01*
X119397780Y-108343700D01*
X119239030Y-108184950D01*
X118998420Y-108184950D01*
X118765031Y-108281623D01*
X118586403Y-108460252D01*
X118489730Y-108693641D01*
X117983000Y-108693641D01*
X117983000Y-104433935D01*
X118797019Y-104433935D01*
X118984294Y-104817111D01*
X119308627Y-105093420D01*
X119714010Y-105224580D01*
X120015000Y-105224580D01*
X120015000Y-104267000D01*
X118923932Y-104267000D01*
X118797019Y-104433935D01*
X117983000Y-104433935D01*
X117983000Y-103846065D01*
X118797019Y-103846065D01*
X118923932Y-104013000D01*
X120015000Y-104013000D01*
X120015000Y-103993000D01*
X120269000Y-103993000D01*
X120269000Y-104013000D01*
X120289000Y-104013000D01*
X120289000Y-104267000D01*
X120269000Y-104267000D01*
X120269000Y-105224580D01*
X120569990Y-105224580D01*
X120975373Y-105093420D01*
X121071760Y-105011305D01*
X121071760Y-107546319D01*
X121002531Y-107559345D01*
X120891236Y-107630962D01*
X120816572Y-107740236D01*
X120790304Y-107869950D01*
X120790304Y-108670050D01*
X120813105Y-108791229D01*
X120884722Y-108902524D01*
X120993996Y-108977188D01*
X121123710Y-109003456D01*
X121923810Y-109003456D01*
X122044989Y-108980655D01*
X122156284Y-108909038D01*
X122230948Y-108799764D01*
X122257216Y-108670050D01*
X122257216Y-108296000D01*
X123476594Y-108296000D01*
X123476594Y-109796000D01*
X123499395Y-109917179D01*
X123571012Y-110028474D01*
X123680286Y-110103138D01*
X123810000Y-110129406D01*
X124008000Y-110129406D01*
X124008000Y-110551071D01*
X123905526Y-110617012D01*
X123830862Y-110726286D01*
X123804594Y-110856000D01*
X123804594Y-112156000D01*
X123827395Y-112277179D01*
X123899012Y-112388474D01*
X124008286Y-112463138D01*
X124138000Y-112489406D01*
X125638000Y-112489406D01*
X125759179Y-112466605D01*
X125870474Y-112394988D01*
X125945138Y-112285714D01*
X125971406Y-112156000D01*
X125971406Y-110856000D01*
X126504594Y-110856000D01*
X126504594Y-112156000D01*
X126527395Y-112277179D01*
X126599012Y-112388474D01*
X126708286Y-112463138D01*
X126838000Y-112489406D01*
X128338000Y-112489406D01*
X128459179Y-112466605D01*
X128570474Y-112394988D01*
X128645138Y-112285714D01*
X128671406Y-112156000D01*
X128671406Y-111771750D01*
X131328000Y-111771750D01*
X131328000Y-112362309D01*
X131424673Y-112595698D01*
X131603301Y-112774327D01*
X131836690Y-112871000D01*
X132302250Y-112871000D01*
X132461000Y-112712250D01*
X132461000Y-111613000D01*
X132715000Y-111613000D01*
X132715000Y-112712250D01*
X132873750Y-112871000D01*
X133339310Y-112871000D01*
X133572699Y-112774327D01*
X133751327Y-112595698D01*
X133848000Y-112362309D01*
X133848000Y-111871750D01*
X134605000Y-111871750D01*
X134605000Y-112462309D01*
X134701673Y-112695698D01*
X134880301Y-112874327D01*
X135113690Y-112971000D01*
X135604250Y-112971000D01*
X135763000Y-112812250D01*
X135763000Y-111713000D01*
X136017000Y-111713000D01*
X136017000Y-112812250D01*
X136175750Y-112971000D01*
X136666310Y-112971000D01*
X136899699Y-112874327D01*
X137078327Y-112695698D01*
X137175000Y-112462309D01*
X137175000Y-112232213D01*
X139407392Y-112232213D01*
X139476857Y-112474397D01*
X140000302Y-112661144D01*
X140555368Y-112633362D01*
X140939143Y-112474397D01*
X141008608Y-112232213D01*
X140208000Y-111431605D01*
X139407392Y-112232213D01*
X137175000Y-112232213D01*
X137175000Y-111871750D01*
X137016250Y-111713000D01*
X136017000Y-111713000D01*
X135763000Y-111713000D01*
X134763750Y-111713000D01*
X134605000Y-111871750D01*
X133848000Y-111871750D01*
X133848000Y-111771750D01*
X133689250Y-111613000D01*
X132715000Y-111613000D01*
X132461000Y-111613000D01*
X131486750Y-111613000D01*
X131328000Y-111771750D01*
X128671406Y-111771750D01*
X128671406Y-110856000D01*
X128648605Y-110734821D01*
X128576988Y-110623526D01*
X128556740Y-110609691D01*
X131328000Y-110609691D01*
X131328000Y-111200250D01*
X131486750Y-111359000D01*
X132461000Y-111359000D01*
X132461000Y-110259750D01*
X132715000Y-110259750D01*
X132715000Y-111359000D01*
X133689250Y-111359000D01*
X133848000Y-111200250D01*
X133848000Y-110709691D01*
X134605000Y-110709691D01*
X134605000Y-111300250D01*
X134763750Y-111459000D01*
X135763000Y-111459000D01*
X135763000Y-110359750D01*
X136017000Y-110359750D01*
X136017000Y-111459000D01*
X137016250Y-111459000D01*
X137175000Y-111300250D01*
X137175000Y-111044302D01*
X138798856Y-111044302D01*
X138826638Y-111599368D01*
X138985603Y-111983143D01*
X139227787Y-112052608D01*
X140028395Y-111252000D01*
X140387605Y-111252000D01*
X141188213Y-112052608D01*
X141430397Y-111983143D01*
X141617144Y-111459698D01*
X141589362Y-110904632D01*
X141430397Y-110520857D01*
X141188213Y-110451392D01*
X140387605Y-111252000D01*
X140028395Y-111252000D01*
X139227787Y-110451392D01*
X138985603Y-110520857D01*
X138798856Y-111044302D01*
X137175000Y-111044302D01*
X137175000Y-110709691D01*
X137078327Y-110476302D01*
X136899699Y-110297673D01*
X136666310Y-110201000D01*
X136175750Y-110201000D01*
X136017000Y-110359750D01*
X135763000Y-110359750D01*
X135604250Y-110201000D01*
X135113690Y-110201000D01*
X134880301Y-110297673D01*
X134701673Y-110476302D01*
X134605000Y-110709691D01*
X133848000Y-110709691D01*
X133848000Y-110609691D01*
X133751327Y-110376302D01*
X133572699Y-110197673D01*
X133339310Y-110101000D01*
X132873750Y-110101000D01*
X132715000Y-110259750D01*
X132461000Y-110259750D01*
X132302250Y-110101000D01*
X131836690Y-110101000D01*
X131603301Y-110197673D01*
X131424673Y-110376302D01*
X131328000Y-110609691D01*
X128556740Y-110609691D01*
X128467714Y-110548862D01*
X128341000Y-110523202D01*
X128341000Y-109925672D01*
X128375474Y-109903488D01*
X128450138Y-109794214D01*
X128476406Y-109664500D01*
X128476406Y-108521500D01*
X128571594Y-108521500D01*
X128571594Y-109664500D01*
X128594395Y-109785679D01*
X128666012Y-109896974D01*
X128775286Y-109971638D01*
X128905000Y-109997906D01*
X129413000Y-109997906D01*
X129534179Y-109975105D01*
X129645474Y-109903488D01*
X129720138Y-109794214D01*
X129746406Y-109664500D01*
X129746406Y-108521500D01*
X129841594Y-108521500D01*
X129841594Y-109664500D01*
X129864395Y-109785679D01*
X129936012Y-109896974D01*
X130045286Y-109971638D01*
X130175000Y-109997906D01*
X130683000Y-109997906D01*
X130804179Y-109975105D01*
X130915474Y-109903488D01*
X130990138Y-109794214D01*
X131015292Y-109670000D01*
X131629594Y-109670000D01*
X131629594Y-109736000D01*
X131652395Y-109857179D01*
X131724012Y-109968474D01*
X131833286Y-110043138D01*
X131963000Y-110069406D01*
X133213000Y-110069406D01*
X133334179Y-110046605D01*
X133445474Y-109974988D01*
X133520138Y-109865714D01*
X133546406Y-109736000D01*
X133546406Y-109563000D01*
X133914749Y-109563000D01*
X133986735Y-109592891D01*
X134236171Y-109593109D01*
X134466703Y-109497855D01*
X134643235Y-109321631D01*
X134738891Y-109091265D01*
X134739109Y-108841829D01*
X134643855Y-108611297D01*
X134467631Y-108434765D01*
X134237265Y-108339109D01*
X133987829Y-108338891D01*
X133818152Y-108409000D01*
X133546406Y-108409000D01*
X133546406Y-108236000D01*
X133523605Y-108114821D01*
X133451988Y-108003526D01*
X133342714Y-107928862D01*
X133213000Y-107902594D01*
X131963000Y-107902594D01*
X131841821Y-107925395D01*
X131730526Y-107997012D01*
X131655862Y-108106286D01*
X131629594Y-108236000D01*
X131629594Y-108516000D01*
X131015371Y-108516000D01*
X130993605Y-108400321D01*
X130921988Y-108289026D01*
X130812714Y-108214362D01*
X130683000Y-108188094D01*
X130175000Y-108188094D01*
X130053821Y-108210895D01*
X129942526Y-108282512D01*
X129867862Y-108391786D01*
X129841594Y-108521500D01*
X129746406Y-108521500D01*
X129723605Y-108400321D01*
X129651988Y-108289026D01*
X129542714Y-108214362D01*
X129413000Y-108188094D01*
X128905000Y-108188094D01*
X128783821Y-108210895D01*
X128672526Y-108282512D01*
X128597862Y-108391786D01*
X128571594Y-108521500D01*
X128476406Y-108521500D01*
X128453605Y-108400321D01*
X128381988Y-108289026D01*
X128272714Y-108214362D01*
X128143000Y-108188094D01*
X127635000Y-108188094D01*
X127513821Y-108210895D01*
X127448953Y-108252637D01*
X127411327Y-108161801D01*
X127232698Y-107983173D01*
X126999309Y-107886500D01*
X126904750Y-107886500D01*
X126746000Y-108045250D01*
X126746000Y-108966000D01*
X126766000Y-108966000D01*
X126766000Y-109220000D01*
X126746000Y-109220000D01*
X126746000Y-110140750D01*
X126904750Y-110299500D01*
X126999309Y-110299500D01*
X127232698Y-110202827D01*
X127411327Y-110024199D01*
X127437000Y-109962219D01*
X127437000Y-110522594D01*
X126838000Y-110522594D01*
X126716821Y-110545395D01*
X126605526Y-110617012D01*
X126530862Y-110726286D01*
X126504594Y-110856000D01*
X125971406Y-110856000D01*
X125948605Y-110734821D01*
X125876988Y-110623526D01*
X125767714Y-110548862D01*
X125638000Y-110522594D01*
X124912000Y-110522594D01*
X124912000Y-110129406D01*
X125110000Y-110129406D01*
X125231179Y-110106605D01*
X125342474Y-110034988D01*
X125417138Y-109925714D01*
X125443406Y-109796000D01*
X125443406Y-109378750D01*
X125730000Y-109378750D01*
X125730000Y-109790810D01*
X125826673Y-110024199D01*
X126005302Y-110202827D01*
X126238691Y-110299500D01*
X126333250Y-110299500D01*
X126492000Y-110140750D01*
X126492000Y-109220000D01*
X125888750Y-109220000D01*
X125730000Y-109378750D01*
X125443406Y-109378750D01*
X125443406Y-108395190D01*
X125730000Y-108395190D01*
X125730000Y-108807250D01*
X125888750Y-108966000D01*
X126492000Y-108966000D01*
X126492000Y-108045250D01*
X126333250Y-107886500D01*
X126238691Y-107886500D01*
X126005302Y-107983173D01*
X125826673Y-108161801D01*
X125730000Y-108395190D01*
X125443406Y-108395190D01*
X125443406Y-108296000D01*
X125420605Y-108174821D01*
X125348988Y-108063526D01*
X125239714Y-107988862D01*
X125110000Y-107962594D01*
X123810000Y-107962594D01*
X123688821Y-107985395D01*
X123577526Y-108057012D01*
X123502862Y-108166286D01*
X123476594Y-108296000D01*
X122257216Y-108296000D01*
X122257216Y-107869950D01*
X122234415Y-107748771D01*
X122162798Y-107637476D01*
X122053524Y-107562812D01*
X121975760Y-107547064D01*
X121975760Y-105596000D01*
X123476594Y-105596000D01*
X123476594Y-107096000D01*
X123499395Y-107217179D01*
X123571012Y-107328474D01*
X123680286Y-107403138D01*
X123810000Y-107429406D01*
X125110000Y-107429406D01*
X125231179Y-107406605D01*
X125342474Y-107334988D01*
X125417138Y-107225714D01*
X125443406Y-107096000D01*
X125443406Y-106798000D01*
X132186594Y-106798000D01*
X132186594Y-106822000D01*
X132209395Y-106943179D01*
X132281012Y-107054474D01*
X132390286Y-107129138D01*
X132520000Y-107155406D01*
X134020000Y-107155406D01*
X134141179Y-107132605D01*
X134252474Y-107060988D01*
X134327138Y-106951714D01*
X134353406Y-106822000D01*
X134353406Y-105522000D01*
X134886594Y-105522000D01*
X134886594Y-106822000D01*
X134909395Y-106943179D01*
X134981012Y-107054474D01*
X135090286Y-107129138D01*
X135220000Y-107155406D01*
X135438000Y-107155406D01*
X135438000Y-107802594D01*
X135240000Y-107802594D01*
X135118821Y-107825395D01*
X135007526Y-107897012D01*
X134932862Y-108006286D01*
X134906594Y-108136000D01*
X134906594Y-109636000D01*
X134929395Y-109757179D01*
X135001012Y-109868474D01*
X135110286Y-109943138D01*
X135240000Y-109969406D01*
X136540000Y-109969406D01*
X136661179Y-109946605D01*
X136772474Y-109874988D01*
X136847138Y-109765714D01*
X136862022Y-109692213D01*
X139407392Y-109692213D01*
X139476857Y-109934397D01*
X139600344Y-109978453D01*
X139476857Y-110029603D01*
X139407392Y-110271787D01*
X140208000Y-111072395D01*
X141008608Y-110271787D01*
X140939143Y-110029603D01*
X140815656Y-109985547D01*
X140939143Y-109934397D01*
X141008608Y-109692213D01*
X140208000Y-108891605D01*
X139407392Y-109692213D01*
X136862022Y-109692213D01*
X136873406Y-109636000D01*
X136873406Y-108504302D01*
X138798856Y-108504302D01*
X138826638Y-109059368D01*
X138985603Y-109443143D01*
X139227787Y-109512608D01*
X140028395Y-108712000D01*
X140387605Y-108712000D01*
X141188213Y-109512608D01*
X141430397Y-109443143D01*
X141617144Y-108919698D01*
X141589362Y-108364632D01*
X141430397Y-107980857D01*
X141188213Y-107911392D01*
X140387605Y-108712000D01*
X140028395Y-108712000D01*
X139227787Y-107911392D01*
X138985603Y-107980857D01*
X138798856Y-108504302D01*
X136873406Y-108504302D01*
X136873406Y-108136000D01*
X136850605Y-108014821D01*
X136778988Y-107903526D01*
X136669714Y-107828862D01*
X136540000Y-107802594D01*
X136342000Y-107802594D01*
X136342000Y-107731787D01*
X139407392Y-107731787D01*
X140208000Y-108532395D01*
X141008608Y-107731787D01*
X140939143Y-107489603D01*
X140415698Y-107302856D01*
X139860632Y-107330638D01*
X139476857Y-107489603D01*
X139407392Y-107731787D01*
X136342000Y-107731787D01*
X136342000Y-107155406D01*
X136720000Y-107155406D01*
X136841179Y-107132605D01*
X136952474Y-107060988D01*
X137027138Y-106951714D01*
X137053406Y-106822000D01*
X137053406Y-106624000D01*
X139216463Y-106624000D01*
X139284252Y-106788063D01*
X139590326Y-107094671D01*
X139990434Y-107260811D01*
X140423665Y-107261189D01*
X140824063Y-107095748D01*
X141130671Y-106789674D01*
X141296811Y-106389566D01*
X141297189Y-105956335D01*
X141131748Y-105555937D01*
X140825674Y-105249329D01*
X140594000Y-105153129D01*
X140594000Y-103578441D01*
X140663229Y-103565415D01*
X140774524Y-103493798D01*
X140849188Y-103384524D01*
X140875456Y-103254810D01*
X140875456Y-102454710D01*
X140852655Y-102333531D01*
X140781038Y-102222236D01*
X140671764Y-102147572D01*
X140542050Y-102121304D01*
X139741950Y-102121304D01*
X139620771Y-102144105D01*
X139509476Y-102215722D01*
X139434812Y-102324996D01*
X139408544Y-102454710D01*
X139408544Y-103254810D01*
X139431345Y-103375989D01*
X139502962Y-103487284D01*
X139612236Y-103561948D01*
X139690000Y-103577696D01*
X139690000Y-105207733D01*
X139591937Y-105248252D01*
X139285329Y-105554326D01*
X139216535Y-105720000D01*
X137053406Y-105720000D01*
X137053406Y-105522000D01*
X137030605Y-105400821D01*
X136958988Y-105289526D01*
X136849714Y-105214862D01*
X136720000Y-105188594D01*
X135220000Y-105188594D01*
X135098821Y-105211395D01*
X134987526Y-105283012D01*
X134912862Y-105392286D01*
X134886594Y-105522000D01*
X134353406Y-105522000D01*
X134330605Y-105400821D01*
X134258988Y-105289526D01*
X134149714Y-105214862D01*
X134020000Y-105188594D01*
X132520000Y-105188594D01*
X132398821Y-105211395D01*
X132287526Y-105283012D01*
X132212862Y-105392286D01*
X132186594Y-105522000D01*
X132186594Y-105894000D01*
X129590512Y-105894000D01*
X129611000Y-105791000D01*
X129611000Y-103575672D01*
X129645474Y-103553488D01*
X129720138Y-103444214D01*
X129746406Y-103314500D01*
X129746406Y-102171500D01*
X129841594Y-102171500D01*
X129841594Y-103314500D01*
X129864395Y-103435679D01*
X129936012Y-103546974D01*
X130045286Y-103621638D01*
X130175000Y-103647906D01*
X130683000Y-103647906D01*
X130804179Y-103625105D01*
X130915474Y-103553488D01*
X130990138Y-103444214D01*
X131014887Y-103322000D01*
X132186594Y-103322000D01*
X132186594Y-103520000D01*
X132209395Y-103641179D01*
X132281012Y-103752474D01*
X132390286Y-103827138D01*
X132520000Y-103853406D01*
X134020000Y-103853406D01*
X134141179Y-103830605D01*
X134252474Y-103758988D01*
X134327138Y-103649714D01*
X134353406Y-103520000D01*
X134353406Y-102220000D01*
X134886594Y-102220000D01*
X134886594Y-103520000D01*
X134909395Y-103641179D01*
X134981012Y-103752474D01*
X135090286Y-103827138D01*
X135220000Y-103853406D01*
X136720000Y-103853406D01*
X136841179Y-103830605D01*
X136952474Y-103758988D01*
X137027138Y-103649714D01*
X137053406Y-103520000D01*
X137053406Y-103322000D01*
X137521186Y-103322000D01*
X137531345Y-103375989D01*
X137602962Y-103487284D01*
X137712236Y-103561948D01*
X137841950Y-103588216D01*
X138642050Y-103588216D01*
X138763229Y-103565415D01*
X138874524Y-103493798D01*
X138949188Y-103384524D01*
X138975456Y-103254810D01*
X138975456Y-102454710D01*
X138952655Y-102333531D01*
X138881038Y-102222236D01*
X138771764Y-102147572D01*
X138642050Y-102121304D01*
X137841950Y-102121304D01*
X137720771Y-102144105D01*
X137609476Y-102215722D01*
X137534812Y-102324996D01*
X137515978Y-102418000D01*
X137053406Y-102418000D01*
X137053406Y-102220000D01*
X137030605Y-102098821D01*
X136958988Y-101987526D01*
X136849714Y-101912862D01*
X136720000Y-101886594D01*
X135220000Y-101886594D01*
X135098821Y-101909395D01*
X134987526Y-101981012D01*
X134912862Y-102090286D01*
X134886594Y-102220000D01*
X134353406Y-102220000D01*
X134330605Y-102098821D01*
X134258988Y-101987526D01*
X134149714Y-101912862D01*
X134020000Y-101886594D01*
X132520000Y-101886594D01*
X132398821Y-101909395D01*
X132287526Y-101981012D01*
X132212862Y-102090286D01*
X132186594Y-102220000D01*
X132186594Y-102418000D01*
X131016406Y-102418000D01*
X131016406Y-102171500D01*
X130993605Y-102050321D01*
X130921988Y-101939026D01*
X130812714Y-101864362D01*
X130683000Y-101838094D01*
X130175000Y-101838094D01*
X130053821Y-101860895D01*
X129942526Y-101932512D01*
X129867862Y-102041786D01*
X129841594Y-102171500D01*
X129746406Y-102171500D01*
X129723605Y-102050321D01*
X129651988Y-101939026D01*
X129542714Y-101864362D01*
X129413000Y-101838094D01*
X128905000Y-101838094D01*
X128783821Y-101860895D01*
X128672526Y-101932512D01*
X128597862Y-102041786D01*
X128571594Y-102171500D01*
X128571594Y-103314500D01*
X128594395Y-103435679D01*
X128666012Y-103546974D01*
X128707000Y-103574980D01*
X128707000Y-105603775D01*
X128416776Y-105894000D01*
X125443406Y-105894000D01*
X125443406Y-105596000D01*
X125420605Y-105474821D01*
X125348988Y-105363526D01*
X125239714Y-105288862D01*
X125110000Y-105262594D01*
X123810000Y-105262594D01*
X123688821Y-105285395D01*
X123577526Y-105357012D01*
X123502862Y-105466286D01*
X123476594Y-105596000D01*
X121975760Y-105596000D01*
X121975760Y-103580464D01*
X122234224Y-103322000D01*
X123476594Y-103322000D01*
X123476594Y-103700000D01*
X123499395Y-103821179D01*
X123571012Y-103932474D01*
X123680286Y-104007138D01*
X123810000Y-104033406D01*
X125110000Y-104033406D01*
X125231179Y-104010605D01*
X125342474Y-103938988D01*
X125417138Y-103829714D01*
X125443406Y-103700000D01*
X125443406Y-103028750D01*
X125730000Y-103028750D01*
X125730000Y-103440810D01*
X125826673Y-103674199D01*
X126005302Y-103852827D01*
X126238691Y-103949500D01*
X126333250Y-103949500D01*
X126492000Y-103790750D01*
X126492000Y-102870000D01*
X125888750Y-102870000D01*
X125730000Y-103028750D01*
X125443406Y-103028750D01*
X125443406Y-102200000D01*
X125420605Y-102078821D01*
X125398964Y-102045190D01*
X125730000Y-102045190D01*
X125730000Y-102457250D01*
X125888750Y-102616000D01*
X126492000Y-102616000D01*
X126492000Y-101695250D01*
X126333250Y-101536500D01*
X126238691Y-101536500D01*
X126005302Y-101633173D01*
X125826673Y-101811801D01*
X125730000Y-102045190D01*
X125398964Y-102045190D01*
X125348988Y-101967526D01*
X125239714Y-101892862D01*
X125110000Y-101866594D01*
X123810000Y-101866594D01*
X123688821Y-101889395D01*
X123577526Y-101961012D01*
X123502862Y-102070286D01*
X123476594Y-102200000D01*
X123476594Y-102418000D01*
X121078123Y-102418000D01*
X121013226Y-102320875D01*
X120884705Y-102235000D01*
X121013226Y-102149125D01*
X121181567Y-101897184D01*
X121240681Y-101600000D01*
X121181567Y-101302816D01*
X121013226Y-101050875D01*
X120761285Y-100882534D01*
X120464101Y-100823420D01*
X119819899Y-100823420D01*
X119522715Y-100882534D01*
X119270774Y-101050875D01*
X119102433Y-101302816D01*
X119043319Y-101600000D01*
X119102433Y-101897184D01*
X119270774Y-102149125D01*
X119399295Y-102235000D01*
X119270774Y-102320875D01*
X119102433Y-102572816D01*
X119043319Y-102870000D01*
X119102433Y-103167184D01*
X119185488Y-103291486D01*
X118984294Y-103462889D01*
X118797019Y-103846065D01*
X117983000Y-103846065D01*
X117983000Y-99500000D01*
X123476594Y-99500000D01*
X123476594Y-101000000D01*
X123499395Y-101121179D01*
X123571012Y-101232474D01*
X123680286Y-101307138D01*
X123810000Y-101333406D01*
X125110000Y-101333406D01*
X125231179Y-101310605D01*
X125342474Y-101238988D01*
X125417138Y-101129714D01*
X125443406Y-101000000D01*
X125443406Y-100608000D01*
X127032594Y-100608000D01*
X127032594Y-100906000D01*
X127055395Y-101027179D01*
X127127012Y-101138474D01*
X127236286Y-101213138D01*
X127366000Y-101239406D01*
X127564000Y-101239406D01*
X127564000Y-101851453D01*
X127513821Y-101860895D01*
X127448953Y-101902637D01*
X127411327Y-101811801D01*
X127232698Y-101633173D01*
X126999309Y-101536500D01*
X126904750Y-101536500D01*
X126746000Y-101695250D01*
X126746000Y-102616000D01*
X126766000Y-102616000D01*
X126766000Y-102870000D01*
X126746000Y-102870000D01*
X126746000Y-103790750D01*
X126904750Y-103949500D01*
X126999309Y-103949500D01*
X127232698Y-103852827D01*
X127411327Y-103674199D01*
X127449022Y-103583195D01*
X127505286Y-103621638D01*
X127635000Y-103647906D01*
X128143000Y-103647906D01*
X128264179Y-103625105D01*
X128375474Y-103553488D01*
X128450138Y-103444214D01*
X128476406Y-103314500D01*
X128476406Y-102171500D01*
X128468000Y-102126825D01*
X128468000Y-101239406D01*
X128666000Y-101239406D01*
X128787179Y-101216605D01*
X128898474Y-101144988D01*
X128973138Y-101035714D01*
X128999406Y-100906000D01*
X128999406Y-100441750D01*
X130541000Y-100441750D01*
X130541000Y-101032309D01*
X130637673Y-101265698D01*
X130816301Y-101444327D01*
X131049690Y-101541000D01*
X131540250Y-101541000D01*
X131699000Y-101382250D01*
X131699000Y-100283000D01*
X131953000Y-100283000D01*
X131953000Y-101382250D01*
X132111750Y-101541000D01*
X132602310Y-101541000D01*
X132835699Y-101444327D01*
X133014327Y-101265698D01*
X133111000Y-101032309D01*
X133111000Y-100441750D01*
X132952250Y-100283000D01*
X131953000Y-100283000D01*
X131699000Y-100283000D01*
X130699750Y-100283000D01*
X130541000Y-100441750D01*
X128999406Y-100441750D01*
X128999406Y-99406000D01*
X128976605Y-99284821D01*
X128973304Y-99279691D01*
X130541000Y-99279691D01*
X130541000Y-99870250D01*
X130699750Y-100029000D01*
X131699000Y-100029000D01*
X131699000Y-98929750D01*
X131953000Y-98929750D01*
X131953000Y-100029000D01*
X132952250Y-100029000D01*
X133111000Y-99870250D01*
X133111000Y-99279691D01*
X133014327Y-99046302D01*
X132835699Y-98867673D01*
X132602310Y-98771000D01*
X132111750Y-98771000D01*
X131953000Y-98929750D01*
X131699000Y-98929750D01*
X131540250Y-98771000D01*
X131049690Y-98771000D01*
X130816301Y-98867673D01*
X130637673Y-99046302D01*
X130541000Y-99279691D01*
X128973304Y-99279691D01*
X128904988Y-99173526D01*
X128795714Y-99098862D01*
X128666000Y-99072594D01*
X127366000Y-99072594D01*
X127244821Y-99095395D01*
X127133526Y-99167012D01*
X127058862Y-99276286D01*
X127032594Y-99406000D01*
X127032594Y-99704000D01*
X125443406Y-99704000D01*
X125443406Y-99500000D01*
X125420605Y-99378821D01*
X125348988Y-99267526D01*
X125239714Y-99192862D01*
X125110000Y-99166594D01*
X123810000Y-99166594D01*
X123688821Y-99189395D01*
X123577526Y-99261012D01*
X123502862Y-99370286D01*
X123476594Y-99500000D01*
X117983000Y-99500000D01*
X117983000Y-96785750D01*
X118882000Y-96785750D01*
X118882000Y-97376309D01*
X118978673Y-97609698D01*
X119157301Y-97788327D01*
X119390690Y-97885000D01*
X119856250Y-97885000D01*
X120015000Y-97726250D01*
X120015000Y-96627000D01*
X120269000Y-96627000D01*
X120269000Y-97726250D01*
X120427750Y-97885000D01*
X120893310Y-97885000D01*
X121126699Y-97788327D01*
X121305327Y-97609698D01*
X121402000Y-97376309D01*
X121402000Y-96785750D01*
X121322250Y-96706000D01*
X127032594Y-96706000D01*
X127032594Y-98206000D01*
X127055395Y-98327179D01*
X127127012Y-98438474D01*
X127236286Y-98513138D01*
X127366000Y-98539406D01*
X128666000Y-98539406D01*
X128787179Y-98516605D01*
X128898474Y-98444988D01*
X128973138Y-98335714D01*
X128999406Y-98206000D01*
X128999406Y-97908000D01*
X130842594Y-97908000D01*
X130842594Y-98206000D01*
X130865395Y-98327179D01*
X130937012Y-98438474D01*
X131046286Y-98513138D01*
X131176000Y-98539406D01*
X132476000Y-98539406D01*
X132597179Y-98516605D01*
X132708474Y-98444988D01*
X132783138Y-98335714D01*
X132809406Y-98206000D01*
X132809406Y-96706000D01*
X132786605Y-96584821D01*
X132714988Y-96473526D01*
X132605714Y-96398862D01*
X132476000Y-96372594D01*
X131176000Y-96372594D01*
X131054821Y-96395395D01*
X130943526Y-96467012D01*
X130868862Y-96576286D01*
X130842594Y-96706000D01*
X130842594Y-97004000D01*
X128999406Y-97004000D01*
X128999406Y-96706000D01*
X128976605Y-96584821D01*
X128904988Y-96473526D01*
X128795714Y-96398862D01*
X128666000Y-96372594D01*
X127366000Y-96372594D01*
X127244821Y-96395395D01*
X127133526Y-96467012D01*
X127058862Y-96576286D01*
X127032594Y-96706000D01*
X121322250Y-96706000D01*
X121243250Y-96627000D01*
X120269000Y-96627000D01*
X120015000Y-96627000D01*
X119040750Y-96627000D01*
X118882000Y-96785750D01*
X117983000Y-96785750D01*
X117983000Y-95623691D01*
X118882000Y-95623691D01*
X118882000Y-96214250D01*
X119040750Y-96373000D01*
X120015000Y-96373000D01*
X120015000Y-95273750D01*
X120269000Y-95273750D01*
X120269000Y-96373000D01*
X121243250Y-96373000D01*
X121402000Y-96214250D01*
X121402000Y-95623691D01*
X121305327Y-95390302D01*
X121126699Y-95211673D01*
X120893310Y-95115000D01*
X120427750Y-95115000D01*
X120269000Y-95273750D01*
X120015000Y-95273750D01*
X119856250Y-95115000D01*
X119390690Y-95115000D01*
X119157301Y-95211673D01*
X118978673Y-95390302D01*
X118882000Y-95623691D01*
X117983000Y-95623691D01*
X117983000Y-93250000D01*
X119183594Y-93250000D01*
X119183594Y-94750000D01*
X119206395Y-94871179D01*
X119278012Y-94982474D01*
X119387286Y-95057138D01*
X119517000Y-95083406D01*
X120767000Y-95083406D01*
X120888179Y-95060605D01*
X120999474Y-94988988D01*
X121074138Y-94879714D01*
X121100406Y-94750000D01*
X121100406Y-94557000D01*
X122246994Y-94557000D01*
X122246994Y-94996000D01*
X122269795Y-95117179D01*
X122341412Y-95228474D01*
X122450686Y-95303138D01*
X122580400Y-95329406D01*
X124307600Y-95329406D01*
X124428779Y-95306605D01*
X124540074Y-95234988D01*
X124614738Y-95125714D01*
X124641006Y-94996000D01*
X124641006Y-93801289D01*
X124793400Y-93801289D01*
X124793400Y-94158711D01*
X124884029Y-94614334D01*
X125142119Y-95000592D01*
X125528377Y-95258682D01*
X125984000Y-95349311D01*
X126439623Y-95258682D01*
X126825881Y-95000592D01*
X127083971Y-94614334D01*
X127174600Y-94158711D01*
X127174600Y-93801289D01*
X127333400Y-93801289D01*
X127333400Y-94158711D01*
X127424029Y-94614334D01*
X127682119Y-95000592D01*
X128068377Y-95258682D01*
X128524000Y-95349311D01*
X128979623Y-95258682D01*
X129365881Y-95000592D01*
X129623971Y-94614334D01*
X129642146Y-94522961D01*
X129772046Y-94894320D01*
X130161964Y-95330732D01*
X130689209Y-95584709D01*
X130704974Y-95587358D01*
X130937000Y-95466217D01*
X130937000Y-94107000D01*
X131191000Y-94107000D01*
X131191000Y-95466217D01*
X131423026Y-95587358D01*
X131438791Y-95584709D01*
X131966036Y-95330732D01*
X132355954Y-94894320D01*
X132549184Y-94341913D01*
X132404924Y-94107000D01*
X131191000Y-94107000D01*
X130937000Y-94107000D01*
X130917000Y-94107000D01*
X130917000Y-94012000D01*
X133407594Y-94012000D01*
X133407594Y-95512000D01*
X133430395Y-95633179D01*
X133502012Y-95744474D01*
X133611286Y-95819138D01*
X133741000Y-95845406D01*
X134991000Y-95845406D01*
X135112179Y-95822605D01*
X135223474Y-95750988D01*
X135298138Y-95641714D01*
X135324406Y-95512000D01*
X135324406Y-94829000D01*
X136216594Y-94829000D01*
X136216594Y-94832000D01*
X136239395Y-94953179D01*
X136311012Y-95064474D01*
X136420286Y-95139138D01*
X136550000Y-95165406D01*
X137770000Y-95165406D01*
X137891179Y-95142605D01*
X138002474Y-95070988D01*
X138077138Y-94961714D01*
X138103406Y-94832000D01*
X138103406Y-94829000D01*
X139366594Y-94829000D01*
X139366594Y-95758000D01*
X139389395Y-95879179D01*
X139461012Y-95990474D01*
X139570286Y-96065138D01*
X139700000Y-96091406D01*
X140087585Y-96091406D01*
X139766356Y-96306045D01*
X139475230Y-96741745D01*
X139385072Y-97195000D01*
X138103406Y-97195000D01*
X138103406Y-97192000D01*
X138080605Y-97070821D01*
X138008988Y-96959526D01*
X137899714Y-96884862D01*
X137770000Y-96858594D01*
X136550000Y-96858594D01*
X136428821Y-96881395D01*
X136317526Y-96953012D01*
X136242862Y-97062286D01*
X136216594Y-97192000D01*
X136216594Y-97195000D01*
X135324406Y-97195000D01*
X135324406Y-96512000D01*
X135301605Y-96390821D01*
X135229988Y-96279526D01*
X135120714Y-96204862D01*
X134991000Y-96178594D01*
X133741000Y-96178594D01*
X133619821Y-96201395D01*
X133508526Y-96273012D01*
X133433862Y-96382286D01*
X133407594Y-96512000D01*
X133407594Y-98012000D01*
X133430395Y-98133179D01*
X133502012Y-98244474D01*
X133611286Y-98319138D01*
X133741000Y-98345406D01*
X134991000Y-98345406D01*
X135112179Y-98322605D01*
X135223474Y-98250988D01*
X135298138Y-98141714D01*
X135306788Y-98099000D01*
X136216594Y-98099000D01*
X136216594Y-98102000D01*
X136239395Y-98223179D01*
X136311012Y-98334474D01*
X136420286Y-98409138D01*
X136550000Y-98435406D01*
X137770000Y-98435406D01*
X137891179Y-98412605D01*
X138002474Y-98340988D01*
X138077138Y-98231714D01*
X138103406Y-98102000D01*
X138103406Y-98099000D01*
X139660145Y-98099000D01*
X139766356Y-98257955D01*
X140202056Y-98549081D01*
X140264000Y-98561402D01*
X140264000Y-100396776D01*
X140256996Y-100403780D01*
X139915681Y-100403780D01*
X139902655Y-100334551D01*
X139831038Y-100223256D01*
X139721764Y-100148592D01*
X139592050Y-100122324D01*
X138791950Y-100122324D01*
X138670771Y-100145125D01*
X138559476Y-100216742D01*
X138484812Y-100326016D01*
X138458544Y-100455730D01*
X138458544Y-101255830D01*
X138481345Y-101377009D01*
X138552962Y-101488304D01*
X138662236Y-101562968D01*
X138791950Y-101589236D01*
X139592050Y-101589236D01*
X139713229Y-101566435D01*
X139824524Y-101494818D01*
X139899188Y-101385544D01*
X139914936Y-101307780D01*
X140444220Y-101307780D01*
X140617193Y-101273374D01*
X140763832Y-101175392D01*
X141035612Y-100903612D01*
X141133594Y-100756973D01*
X141168000Y-100584000D01*
X141168000Y-98561402D01*
X141229944Y-98549081D01*
X141665644Y-98257955D01*
X141956770Y-97822255D01*
X142059000Y-97308311D01*
X142059000Y-97255689D01*
X141956770Y-96741745D01*
X141665644Y-96306045D01*
X141344415Y-96091406D01*
X141732000Y-96091406D01*
X141853179Y-96068605D01*
X141964474Y-95996988D01*
X142039138Y-95887714D01*
X142065406Y-95758000D01*
X142065406Y-93726000D01*
X142042605Y-93604821D01*
X141970988Y-93493526D01*
X141861714Y-93418862D01*
X141732000Y-93392594D01*
X139700000Y-93392594D01*
X139578821Y-93415395D01*
X139467526Y-93487012D01*
X139392862Y-93596286D01*
X139366594Y-93726000D01*
X139366594Y-93925000D01*
X138103406Y-93925000D01*
X138103406Y-93922000D01*
X138080605Y-93800821D01*
X138008988Y-93689526D01*
X137899714Y-93614862D01*
X137770000Y-93588594D01*
X136550000Y-93588594D01*
X136428821Y-93611395D01*
X136317526Y-93683012D01*
X136242862Y-93792286D01*
X136216594Y-93922000D01*
X136216594Y-93925000D01*
X135308036Y-93925000D01*
X135301605Y-93890821D01*
X135229988Y-93779526D01*
X135120714Y-93704862D01*
X134991000Y-93678594D01*
X133741000Y-93678594D01*
X133619821Y-93701395D01*
X133508526Y-93773012D01*
X133433862Y-93882286D01*
X133407594Y-94012000D01*
X130917000Y-94012000D01*
X130917000Y-93853000D01*
X130937000Y-93853000D01*
X130937000Y-92493783D01*
X131191000Y-92493783D01*
X131191000Y-93853000D01*
X132404924Y-93853000D01*
X132549184Y-93618087D01*
X132355954Y-93065680D01*
X131966036Y-92629268D01*
X131438791Y-92375291D01*
X131423026Y-92372642D01*
X131191000Y-92493783D01*
X130937000Y-92493783D01*
X130704974Y-92372642D01*
X130689209Y-92375291D01*
X130161964Y-92629268D01*
X129772046Y-93065680D01*
X129642146Y-93437039D01*
X129623971Y-93345666D01*
X129365881Y-92959408D01*
X128979623Y-92701318D01*
X128524000Y-92610689D01*
X128068377Y-92701318D01*
X127682119Y-92959408D01*
X127424029Y-93345666D01*
X127333400Y-93801289D01*
X127174600Y-93801289D01*
X127083971Y-93345666D01*
X126825881Y-92959408D01*
X126439623Y-92701318D01*
X125984000Y-92610689D01*
X125528377Y-92701318D01*
X125142119Y-92959408D01*
X124884029Y-93345666D01*
X124793400Y-93801289D01*
X124641006Y-93801289D01*
X124641006Y-92964000D01*
X124618205Y-92842821D01*
X124546588Y-92731526D01*
X124437314Y-92656862D01*
X124307600Y-92630594D01*
X122580400Y-92630594D01*
X122459221Y-92653395D01*
X122347926Y-92725012D01*
X122273262Y-92834286D01*
X122246994Y-92964000D01*
X122246994Y-93403000D01*
X121100406Y-93403000D01*
X121100406Y-93250000D01*
X121077605Y-93128821D01*
X121005988Y-93017526D01*
X120896714Y-92942862D01*
X120767000Y-92916594D01*
X119517000Y-92916594D01*
X119395821Y-92939395D01*
X119284526Y-93011012D01*
X119209862Y-93120286D01*
X119183594Y-93250000D01*
X117983000Y-93250000D01*
X117983000Y-90551000D01*
X142621000Y-90551000D01*
X142621000Y-115189000D01*
X142621000Y-115189000D01*
G37*
X142621000Y-115189000D02*
X117983000Y-115189000D01*
X117983000Y-109505750D01*
X118489730Y-109505750D01*
X118489730Y-109746359D01*
X118586403Y-109979748D01*
X118765031Y-110158377D01*
X118998420Y-110255050D01*
X119239030Y-110255050D01*
X119397780Y-110096300D01*
X119397780Y-109347000D01*
X119651780Y-109347000D01*
X119651780Y-110096300D01*
X119810530Y-110255050D01*
X120051140Y-110255050D01*
X120284529Y-110158377D01*
X120463157Y-109979748D01*
X120550058Y-109769950D01*
X120790304Y-109769950D01*
X120790304Y-110570050D01*
X120813105Y-110691229D01*
X120884722Y-110802524D01*
X120993996Y-110877188D01*
X121123710Y-110903456D01*
X121923810Y-110903456D01*
X122044989Y-110880655D01*
X122156284Y-110809038D01*
X122198673Y-110747000D01*
X122562748Y-110747000D01*
X122658335Y-110786691D01*
X122907771Y-110786909D01*
X123138303Y-110691655D01*
X123314835Y-110515431D01*
X123410491Y-110285065D01*
X123410709Y-110035629D01*
X123315455Y-109805097D01*
X123139231Y-109628565D01*
X122908865Y-109532909D01*
X122659429Y-109532691D01*
X122513470Y-109593000D01*
X122198527Y-109593000D01*
X122162798Y-109537476D01*
X122053524Y-109462812D01*
X121923810Y-109436544D01*
X121123710Y-109436544D01*
X121002531Y-109459345D01*
X120891236Y-109530962D01*
X120816572Y-109640236D01*
X120790304Y-109769950D01*
X120550058Y-109769950D01*
X120559830Y-109746359D01*
X120559830Y-109505750D01*
X120401080Y-109347000D01*
X119651780Y-109347000D01*
X119397780Y-109347000D01*
X118648480Y-109347000D01*
X118489730Y-109505750D01*
X117983000Y-109505750D01*
X117983000Y-108693641D01*
X118489730Y-108693641D01*
X118489730Y-108934250D01*
X118648480Y-109093000D01*
X119397780Y-109093000D01*
X119397780Y-108343700D01*
X119651780Y-108343700D01*
X119651780Y-109093000D01*
X120401080Y-109093000D01*
X120559830Y-108934250D01*
X120559830Y-108693641D01*
X120463157Y-108460252D01*
X120284529Y-108281623D01*
X120051140Y-108184950D01*
X119810530Y-108184950D01*
X119651780Y-108343700D01*
X119397780Y-108343700D01*
X119239030Y-108184950D01*
X118998420Y-108184950D01*
X118765031Y-108281623D01*
X118586403Y-108460252D01*
X118489730Y-108693641D01*
X117983000Y-108693641D01*
X117983000Y-104433935D01*
X118797019Y-104433935D01*
X118984294Y-104817111D01*
X119308627Y-105093420D01*
X119714010Y-105224580D01*
X120015000Y-105224580D01*
X120015000Y-104267000D01*
X118923932Y-104267000D01*
X118797019Y-104433935D01*
X117983000Y-104433935D01*
X117983000Y-103846065D01*
X118797019Y-103846065D01*
X118923932Y-104013000D01*
X120015000Y-104013000D01*
X120015000Y-103993000D01*
X120269000Y-103993000D01*
X120269000Y-104013000D01*
X120289000Y-104013000D01*
X120289000Y-104267000D01*
X120269000Y-104267000D01*
X120269000Y-105224580D01*
X120569990Y-105224580D01*
X120975373Y-105093420D01*
X121071760Y-105011305D01*
X121071760Y-107546319D01*
X121002531Y-107559345D01*
X120891236Y-107630962D01*
X120816572Y-107740236D01*
X120790304Y-107869950D01*
X120790304Y-108670050D01*
X120813105Y-108791229D01*
X120884722Y-108902524D01*
X120993996Y-108977188D01*
X121123710Y-109003456D01*
X121923810Y-109003456D01*
X122044989Y-108980655D01*
X122156284Y-108909038D01*
X122230948Y-108799764D01*
X122257216Y-108670050D01*
X122257216Y-108296000D01*
X123476594Y-108296000D01*
X123476594Y-109796000D01*
X123499395Y-109917179D01*
X123571012Y-110028474D01*
X123680286Y-110103138D01*
X123810000Y-110129406D01*
X124008000Y-110129406D01*
X124008000Y-110551071D01*
X123905526Y-110617012D01*
X123830862Y-110726286D01*
X123804594Y-110856000D01*
X123804594Y-112156000D01*
X123827395Y-112277179D01*
X123899012Y-112388474D01*
X124008286Y-112463138D01*
X124138000Y-112489406D01*
X125638000Y-112489406D01*
X125759179Y-112466605D01*
X125870474Y-112394988D01*
X125945138Y-112285714D01*
X125971406Y-112156000D01*
X125971406Y-110856000D01*
X126504594Y-110856000D01*
X126504594Y-112156000D01*
X126527395Y-112277179D01*
X126599012Y-112388474D01*
X126708286Y-112463138D01*
X126838000Y-112489406D01*
X128338000Y-112489406D01*
X128459179Y-112466605D01*
X128570474Y-112394988D01*
X128645138Y-112285714D01*
X128671406Y-112156000D01*
X128671406Y-111771750D01*
X131328000Y-111771750D01*
X131328000Y-112362309D01*
X131424673Y-112595698D01*
X131603301Y-112774327D01*
X131836690Y-112871000D01*
X132302250Y-112871000D01*
X132461000Y-112712250D01*
X132461000Y-111613000D01*
X132715000Y-111613000D01*
X132715000Y-112712250D01*
X132873750Y-112871000D01*
X133339310Y-112871000D01*
X133572699Y-112774327D01*
X133751327Y-112595698D01*
X133848000Y-112362309D01*
X133848000Y-111871750D01*
X134605000Y-111871750D01*
X134605000Y-112462309D01*
X134701673Y-112695698D01*
X134880301Y-112874327D01*
X135113690Y-112971000D01*
X135604250Y-112971000D01*
X135763000Y-112812250D01*
X135763000Y-111713000D01*
X136017000Y-111713000D01*
X136017000Y-112812250D01*
X136175750Y-112971000D01*
X136666310Y-112971000D01*
X136899699Y-112874327D01*
X137078327Y-112695698D01*
X137175000Y-112462309D01*
X137175000Y-112232213D01*
X139407392Y-112232213D01*
X139476857Y-112474397D01*
X140000302Y-112661144D01*
X140555368Y-112633362D01*
X140939143Y-112474397D01*
X141008608Y-112232213D01*
X140208000Y-111431605D01*
X139407392Y-112232213D01*
X137175000Y-112232213D01*
X137175000Y-111871750D01*
X137016250Y-111713000D01*
X136017000Y-111713000D01*
X135763000Y-111713000D01*
X134763750Y-111713000D01*
X134605000Y-111871750D01*
X133848000Y-111871750D01*
X133848000Y-111771750D01*
X133689250Y-111613000D01*
X132715000Y-111613000D01*
X132461000Y-111613000D01*
X131486750Y-111613000D01*
X131328000Y-111771750D01*
X128671406Y-111771750D01*
X128671406Y-110856000D01*
X128648605Y-110734821D01*
X128576988Y-110623526D01*
X128556740Y-110609691D01*
X131328000Y-110609691D01*
X131328000Y-111200250D01*
X131486750Y-111359000D01*
X132461000Y-111359000D01*
X132461000Y-110259750D01*
X132715000Y-110259750D01*
X132715000Y-111359000D01*
X133689250Y-111359000D01*
X133848000Y-111200250D01*
X133848000Y-110709691D01*
X134605000Y-110709691D01*
X134605000Y-111300250D01*
X134763750Y-111459000D01*
X135763000Y-111459000D01*
X135763000Y-110359750D01*
X136017000Y-110359750D01*
X136017000Y-111459000D01*
X137016250Y-111459000D01*
X137175000Y-111300250D01*
X137175000Y-111044302D01*
X138798856Y-111044302D01*
X138826638Y-111599368D01*
X138985603Y-111983143D01*
X139227787Y-112052608D01*
X140028395Y-111252000D01*
X140387605Y-111252000D01*
X141188213Y-112052608D01*
X141430397Y-111983143D01*
X141617144Y-111459698D01*
X141589362Y-110904632D01*
X141430397Y-110520857D01*
X141188213Y-110451392D01*
X140387605Y-111252000D01*
X140028395Y-111252000D01*
X139227787Y-110451392D01*
X138985603Y-110520857D01*
X138798856Y-111044302D01*
X137175000Y-111044302D01*
X137175000Y-110709691D01*
X137078327Y-110476302D01*
X136899699Y-110297673D01*
X136666310Y-110201000D01*
X136175750Y-110201000D01*
X136017000Y-110359750D01*
X135763000Y-110359750D01*
X135604250Y-110201000D01*
X135113690Y-110201000D01*
X134880301Y-110297673D01*
X134701673Y-110476302D01*
X134605000Y-110709691D01*
X133848000Y-110709691D01*
X133848000Y-110609691D01*
X133751327Y-110376302D01*
X133572699Y-110197673D01*
X133339310Y-110101000D01*
X132873750Y-110101000D01*
X132715000Y-110259750D01*
X132461000Y-110259750D01*
X132302250Y-110101000D01*
X131836690Y-110101000D01*
X131603301Y-110197673D01*
X131424673Y-110376302D01*
X131328000Y-110609691D01*
X128556740Y-110609691D01*
X128467714Y-110548862D01*
X128341000Y-110523202D01*
X128341000Y-109925672D01*
X128375474Y-109903488D01*
X128450138Y-109794214D01*
X128476406Y-109664500D01*
X128476406Y-108521500D01*
X128571594Y-108521500D01*
X128571594Y-109664500D01*
X128594395Y-109785679D01*
X128666012Y-109896974D01*
X128775286Y-109971638D01*
X128905000Y-109997906D01*
X129413000Y-109997906D01*
X129534179Y-109975105D01*
X129645474Y-109903488D01*
X129720138Y-109794214D01*
X129746406Y-109664500D01*
X129746406Y-108521500D01*
X129841594Y-108521500D01*
X129841594Y-109664500D01*
X129864395Y-109785679D01*
X129936012Y-109896974D01*
X130045286Y-109971638D01*
X130175000Y-109997906D01*
X130683000Y-109997906D01*
X130804179Y-109975105D01*
X130915474Y-109903488D01*
X130990138Y-109794214D01*
X131015292Y-109670000D01*
X131629594Y-109670000D01*
X131629594Y-109736000D01*
X131652395Y-109857179D01*
X131724012Y-109968474D01*
X131833286Y-110043138D01*
X131963000Y-110069406D01*
X133213000Y-110069406D01*
X133334179Y-110046605D01*
X133445474Y-109974988D01*
X133520138Y-109865714D01*
X133546406Y-109736000D01*
X133546406Y-109563000D01*
X133914749Y-109563000D01*
X133986735Y-109592891D01*
X134236171Y-109593109D01*
X134466703Y-109497855D01*
X134643235Y-109321631D01*
X134738891Y-109091265D01*
X134739109Y-108841829D01*
X134643855Y-108611297D01*
X134467631Y-108434765D01*
X134237265Y-108339109D01*
X133987829Y-108338891D01*
X133818152Y-108409000D01*
X133546406Y-108409000D01*
X133546406Y-108236000D01*
X133523605Y-108114821D01*
X133451988Y-108003526D01*
X133342714Y-107928862D01*
X133213000Y-107902594D01*
X131963000Y-107902594D01*
X131841821Y-107925395D01*
X131730526Y-107997012D01*
X131655862Y-108106286D01*
X131629594Y-108236000D01*
X131629594Y-108516000D01*
X131015371Y-108516000D01*
X130993605Y-108400321D01*
X130921988Y-108289026D01*
X130812714Y-108214362D01*
X130683000Y-108188094D01*
X130175000Y-108188094D01*
X130053821Y-108210895D01*
X129942526Y-108282512D01*
X129867862Y-108391786D01*
X129841594Y-108521500D01*
X129746406Y-108521500D01*
X129723605Y-108400321D01*
X129651988Y-108289026D01*
X129542714Y-108214362D01*
X129413000Y-108188094D01*
X128905000Y-108188094D01*
X128783821Y-108210895D01*
X128672526Y-108282512D01*
X128597862Y-108391786D01*
X128571594Y-108521500D01*
X128476406Y-108521500D01*
X128453605Y-108400321D01*
X128381988Y-108289026D01*
X128272714Y-108214362D01*
X128143000Y-108188094D01*
X127635000Y-108188094D01*
X127513821Y-108210895D01*
X127448953Y-108252637D01*
X127411327Y-108161801D01*
X127232698Y-107983173D01*
X126999309Y-107886500D01*
X126904750Y-107886500D01*
X126746000Y-108045250D01*
X126746000Y-108966000D01*
X126766000Y-108966000D01*
X126766000Y-109220000D01*
X126746000Y-109220000D01*
X126746000Y-110140750D01*
X126904750Y-110299500D01*
X126999309Y-110299500D01*
X127232698Y-110202827D01*
X127411327Y-110024199D01*
X127437000Y-109962219D01*
X127437000Y-110522594D01*
X126838000Y-110522594D01*
X126716821Y-110545395D01*
X126605526Y-110617012D01*
X126530862Y-110726286D01*
X126504594Y-110856000D01*
X125971406Y-110856000D01*
X125948605Y-110734821D01*
X125876988Y-110623526D01*
X125767714Y-110548862D01*
X125638000Y-110522594D01*
X124912000Y-110522594D01*
X124912000Y-110129406D01*
X125110000Y-110129406D01*
X125231179Y-110106605D01*
X125342474Y-110034988D01*
X125417138Y-109925714D01*
X125443406Y-109796000D01*
X125443406Y-109378750D01*
X125730000Y-109378750D01*
X125730000Y-109790810D01*
X125826673Y-110024199D01*
X126005302Y-110202827D01*
X126238691Y-110299500D01*
X126333250Y-110299500D01*
X126492000Y-110140750D01*
X126492000Y-109220000D01*
X125888750Y-109220000D01*
X125730000Y-109378750D01*
X125443406Y-109378750D01*
X125443406Y-108395190D01*
X125730000Y-108395190D01*
X125730000Y-108807250D01*
X125888750Y-108966000D01*
X126492000Y-108966000D01*
X126492000Y-108045250D01*
X126333250Y-107886500D01*
X126238691Y-107886500D01*
X126005302Y-107983173D01*
X125826673Y-108161801D01*
X125730000Y-108395190D01*
X125443406Y-108395190D01*
X125443406Y-108296000D01*
X125420605Y-108174821D01*
X125348988Y-108063526D01*
X125239714Y-107988862D01*
X125110000Y-107962594D01*
X123810000Y-107962594D01*
X123688821Y-107985395D01*
X123577526Y-108057012D01*
X123502862Y-108166286D01*
X123476594Y-108296000D01*
X122257216Y-108296000D01*
X122257216Y-107869950D01*
X122234415Y-107748771D01*
X122162798Y-107637476D01*
X122053524Y-107562812D01*
X121975760Y-107547064D01*
X121975760Y-105596000D01*
X123476594Y-105596000D01*
X123476594Y-107096000D01*
X123499395Y-107217179D01*
X123571012Y-107328474D01*
X123680286Y-107403138D01*
X123810000Y-107429406D01*
X125110000Y-107429406D01*
X125231179Y-107406605D01*
X125342474Y-107334988D01*
X125417138Y-107225714D01*
X125443406Y-107096000D01*
X125443406Y-106798000D01*
X132186594Y-106798000D01*
X132186594Y-106822000D01*
X132209395Y-106943179D01*
X132281012Y-107054474D01*
X132390286Y-107129138D01*
X132520000Y-107155406D01*
X134020000Y-107155406D01*
X134141179Y-107132605D01*
X134252474Y-107060988D01*
X134327138Y-106951714D01*
X134353406Y-106822000D01*
X134353406Y-105522000D01*
X134886594Y-105522000D01*
X134886594Y-106822000D01*
X134909395Y-106943179D01*
X134981012Y-107054474D01*
X135090286Y-107129138D01*
X135220000Y-107155406D01*
X135438000Y-107155406D01*
X135438000Y-107802594D01*
X135240000Y-107802594D01*
X135118821Y-107825395D01*
X135007526Y-107897012D01*
X134932862Y-108006286D01*
X134906594Y-108136000D01*
X134906594Y-109636000D01*
X134929395Y-109757179D01*
X135001012Y-109868474D01*
X135110286Y-109943138D01*
X135240000Y-109969406D01*
X136540000Y-109969406D01*
X136661179Y-109946605D01*
X136772474Y-109874988D01*
X136847138Y-109765714D01*
X136862022Y-109692213D01*
X139407392Y-109692213D01*
X139476857Y-109934397D01*
X139600344Y-109978453D01*
X139476857Y-110029603D01*
X139407392Y-110271787D01*
X140208000Y-111072395D01*
X141008608Y-110271787D01*
X140939143Y-110029603D01*
X140815656Y-109985547D01*
X140939143Y-109934397D01*
X141008608Y-109692213D01*
X140208000Y-108891605D01*
X139407392Y-109692213D01*
X136862022Y-109692213D01*
X136873406Y-109636000D01*
X136873406Y-108504302D01*
X138798856Y-108504302D01*
X138826638Y-109059368D01*
X138985603Y-109443143D01*
X139227787Y-109512608D01*
X140028395Y-108712000D01*
X140387605Y-108712000D01*
X141188213Y-109512608D01*
X141430397Y-109443143D01*
X141617144Y-108919698D01*
X141589362Y-108364632D01*
X141430397Y-107980857D01*
X141188213Y-107911392D01*
X140387605Y-108712000D01*
X140028395Y-108712000D01*
X139227787Y-107911392D01*
X138985603Y-107980857D01*
X138798856Y-108504302D01*
X136873406Y-108504302D01*
X136873406Y-108136000D01*
X136850605Y-108014821D01*
X136778988Y-107903526D01*
X136669714Y-107828862D01*
X136540000Y-107802594D01*
X136342000Y-107802594D01*
X136342000Y-107731787D01*
X139407392Y-107731787D01*
X140208000Y-108532395D01*
X141008608Y-107731787D01*
X140939143Y-107489603D01*
X140415698Y-107302856D01*
X139860632Y-107330638D01*
X139476857Y-107489603D01*
X139407392Y-107731787D01*
X136342000Y-107731787D01*
X136342000Y-107155406D01*
X136720000Y-107155406D01*
X136841179Y-107132605D01*
X136952474Y-107060988D01*
X137027138Y-106951714D01*
X137053406Y-106822000D01*
X137053406Y-106624000D01*
X139216463Y-106624000D01*
X139284252Y-106788063D01*
X139590326Y-107094671D01*
X139990434Y-107260811D01*
X140423665Y-107261189D01*
X140824063Y-107095748D01*
X141130671Y-106789674D01*
X141296811Y-106389566D01*
X141297189Y-105956335D01*
X141131748Y-105555937D01*
X140825674Y-105249329D01*
X140594000Y-105153129D01*
X140594000Y-103578441D01*
X140663229Y-103565415D01*
X140774524Y-103493798D01*
X140849188Y-103384524D01*
X140875456Y-103254810D01*
X140875456Y-102454710D01*
X140852655Y-102333531D01*
X140781038Y-102222236D01*
X140671764Y-102147572D01*
X140542050Y-102121304D01*
X139741950Y-102121304D01*
X139620771Y-102144105D01*
X139509476Y-102215722D01*
X139434812Y-102324996D01*
X139408544Y-102454710D01*
X139408544Y-103254810D01*
X139431345Y-103375989D01*
X139502962Y-103487284D01*
X139612236Y-103561948D01*
X139690000Y-103577696D01*
X139690000Y-105207733D01*
X139591937Y-105248252D01*
X139285329Y-105554326D01*
X139216535Y-105720000D01*
X137053406Y-105720000D01*
X137053406Y-105522000D01*
X137030605Y-105400821D01*
X136958988Y-105289526D01*
X136849714Y-105214862D01*
X136720000Y-105188594D01*
X135220000Y-105188594D01*
X135098821Y-105211395D01*
X134987526Y-105283012D01*
X134912862Y-105392286D01*
X134886594Y-105522000D01*
X134353406Y-105522000D01*
X134330605Y-105400821D01*
X134258988Y-105289526D01*
X134149714Y-105214862D01*
X134020000Y-105188594D01*
X132520000Y-105188594D01*
X132398821Y-105211395D01*
X132287526Y-105283012D01*
X132212862Y-105392286D01*
X132186594Y-105522000D01*
X132186594Y-105894000D01*
X129590512Y-105894000D01*
X129611000Y-105791000D01*
X129611000Y-103575672D01*
X129645474Y-103553488D01*
X129720138Y-103444214D01*
X129746406Y-103314500D01*
X129746406Y-102171500D01*
X129841594Y-102171500D01*
X129841594Y-103314500D01*
X129864395Y-103435679D01*
X129936012Y-103546974D01*
X130045286Y-103621638D01*
X130175000Y-103647906D01*
X130683000Y-103647906D01*
X130804179Y-103625105D01*
X130915474Y-103553488D01*
X130990138Y-103444214D01*
X131014887Y-103322000D01*
X132186594Y-103322000D01*
X132186594Y-103520000D01*
X132209395Y-103641179D01*
X132281012Y-103752474D01*
X132390286Y-103827138D01*
X132520000Y-103853406D01*
X134020000Y-103853406D01*
X134141179Y-103830605D01*
X134252474Y-103758988D01*
X134327138Y-103649714D01*
X134353406Y-103520000D01*
X134353406Y-102220000D01*
X134886594Y-102220000D01*
X134886594Y-103520000D01*
X134909395Y-103641179D01*
X134981012Y-103752474D01*
X135090286Y-103827138D01*
X135220000Y-103853406D01*
X136720000Y-103853406D01*
X136841179Y-103830605D01*
X136952474Y-103758988D01*
X137027138Y-103649714D01*
X137053406Y-103520000D01*
X137053406Y-103322000D01*
X137521186Y-103322000D01*
X137531345Y-103375989D01*
X137602962Y-103487284D01*
X137712236Y-103561948D01*
X137841950Y-103588216D01*
X138642050Y-103588216D01*
X138763229Y-103565415D01*
X138874524Y-103493798D01*
X138949188Y-103384524D01*
X138975456Y-103254810D01*
X138975456Y-102454710D01*
X138952655Y-102333531D01*
X138881038Y-102222236D01*
X138771764Y-102147572D01*
X138642050Y-102121304D01*
X137841950Y-102121304D01*
X137720771Y-102144105D01*
X137609476Y-102215722D01*
X137534812Y-102324996D01*
X137515978Y-102418000D01*
X137053406Y-102418000D01*
X137053406Y-102220000D01*
X137030605Y-102098821D01*
X136958988Y-101987526D01*
X136849714Y-101912862D01*
X136720000Y-101886594D01*
X135220000Y-101886594D01*
X135098821Y-101909395D01*
X134987526Y-101981012D01*
X134912862Y-102090286D01*
X134886594Y-102220000D01*
X134353406Y-102220000D01*
X134330605Y-102098821D01*
X134258988Y-101987526D01*
X134149714Y-101912862D01*
X134020000Y-101886594D01*
X132520000Y-101886594D01*
X132398821Y-101909395D01*
X132287526Y-101981012D01*
X132212862Y-102090286D01*
X132186594Y-102220000D01*
X132186594Y-102418000D01*
X131016406Y-102418000D01*
X131016406Y-102171500D01*
X130993605Y-102050321D01*
X130921988Y-101939026D01*
X130812714Y-101864362D01*
X130683000Y-101838094D01*
X130175000Y-101838094D01*
X130053821Y-101860895D01*
X129942526Y-101932512D01*
X129867862Y-102041786D01*
X129841594Y-102171500D01*
X129746406Y-102171500D01*
X129723605Y-102050321D01*
X129651988Y-101939026D01*
X129542714Y-101864362D01*
X129413000Y-101838094D01*
X128905000Y-101838094D01*
X128783821Y-101860895D01*
X128672526Y-101932512D01*
X128597862Y-102041786D01*
X128571594Y-102171500D01*
X128571594Y-103314500D01*
X128594395Y-103435679D01*
X128666012Y-103546974D01*
X128707000Y-103574980D01*
X128707000Y-105603775D01*
X128416776Y-105894000D01*
X125443406Y-105894000D01*
X125443406Y-105596000D01*
X125420605Y-105474821D01*
X125348988Y-105363526D01*
X125239714Y-105288862D01*
X125110000Y-105262594D01*
X123810000Y-105262594D01*
X123688821Y-105285395D01*
X123577526Y-105357012D01*
X123502862Y-105466286D01*
X123476594Y-105596000D01*
X121975760Y-105596000D01*
X121975760Y-103580464D01*
X122234224Y-103322000D01*
X123476594Y-103322000D01*
X123476594Y-103700000D01*
X123499395Y-103821179D01*
X123571012Y-103932474D01*
X123680286Y-104007138D01*
X123810000Y-104033406D01*
X125110000Y-104033406D01*
X125231179Y-104010605D01*
X125342474Y-103938988D01*
X125417138Y-103829714D01*
X125443406Y-103700000D01*
X125443406Y-103028750D01*
X125730000Y-103028750D01*
X125730000Y-103440810D01*
X125826673Y-103674199D01*
X126005302Y-103852827D01*
X126238691Y-103949500D01*
X126333250Y-103949500D01*
X126492000Y-103790750D01*
X126492000Y-102870000D01*
X125888750Y-102870000D01*
X125730000Y-103028750D01*
X125443406Y-103028750D01*
X125443406Y-102200000D01*
X125420605Y-102078821D01*
X125398964Y-102045190D01*
X125730000Y-102045190D01*
X125730000Y-102457250D01*
X125888750Y-102616000D01*
X126492000Y-102616000D01*
X126492000Y-101695250D01*
X126333250Y-101536500D01*
X126238691Y-101536500D01*
X126005302Y-101633173D01*
X125826673Y-101811801D01*
X125730000Y-102045190D01*
X125398964Y-102045190D01*
X125348988Y-101967526D01*
X125239714Y-101892862D01*
X125110000Y-101866594D01*
X123810000Y-101866594D01*
X123688821Y-101889395D01*
X123577526Y-101961012D01*
X123502862Y-102070286D01*
X123476594Y-102200000D01*
X123476594Y-102418000D01*
X121078123Y-102418000D01*
X121013226Y-102320875D01*
X120884705Y-102235000D01*
X121013226Y-102149125D01*
X121181567Y-101897184D01*
X121240681Y-101600000D01*
X121181567Y-101302816D01*
X121013226Y-101050875D01*
X120761285Y-100882534D01*
X120464101Y-100823420D01*
X119819899Y-100823420D01*
X119522715Y-100882534D01*
X119270774Y-101050875D01*
X119102433Y-101302816D01*
X119043319Y-101600000D01*
X119102433Y-101897184D01*
X119270774Y-102149125D01*
X119399295Y-102235000D01*
X119270774Y-102320875D01*
X119102433Y-102572816D01*
X119043319Y-102870000D01*
X119102433Y-103167184D01*
X119185488Y-103291486D01*
X118984294Y-103462889D01*
X118797019Y-103846065D01*
X117983000Y-103846065D01*
X117983000Y-99500000D01*
X123476594Y-99500000D01*
X123476594Y-101000000D01*
X123499395Y-101121179D01*
X123571012Y-101232474D01*
X123680286Y-101307138D01*
X123810000Y-101333406D01*
X125110000Y-101333406D01*
X125231179Y-101310605D01*
X125342474Y-101238988D01*
X125417138Y-101129714D01*
X125443406Y-101000000D01*
X125443406Y-100608000D01*
X127032594Y-100608000D01*
X127032594Y-100906000D01*
X127055395Y-101027179D01*
X127127012Y-101138474D01*
X127236286Y-101213138D01*
X127366000Y-101239406D01*
X127564000Y-101239406D01*
X127564000Y-101851453D01*
X127513821Y-101860895D01*
X127448953Y-101902637D01*
X127411327Y-101811801D01*
X127232698Y-101633173D01*
X126999309Y-101536500D01*
X126904750Y-101536500D01*
X126746000Y-101695250D01*
X126746000Y-102616000D01*
X126766000Y-102616000D01*
X126766000Y-102870000D01*
X126746000Y-102870000D01*
X126746000Y-103790750D01*
X126904750Y-103949500D01*
X126999309Y-103949500D01*
X127232698Y-103852827D01*
X127411327Y-103674199D01*
X127449022Y-103583195D01*
X127505286Y-103621638D01*
X127635000Y-103647906D01*
X128143000Y-103647906D01*
X128264179Y-103625105D01*
X128375474Y-103553488D01*
X128450138Y-103444214D01*
X128476406Y-103314500D01*
X128476406Y-102171500D01*
X128468000Y-102126825D01*
X128468000Y-101239406D01*
X128666000Y-101239406D01*
X128787179Y-101216605D01*
X128898474Y-101144988D01*
X128973138Y-101035714D01*
X128999406Y-100906000D01*
X128999406Y-100441750D01*
X130541000Y-100441750D01*
X130541000Y-101032309D01*
X130637673Y-101265698D01*
X130816301Y-101444327D01*
X131049690Y-101541000D01*
X131540250Y-101541000D01*
X131699000Y-101382250D01*
X131699000Y-100283000D01*
X131953000Y-100283000D01*
X131953000Y-101382250D01*
X132111750Y-101541000D01*
X132602310Y-101541000D01*
X132835699Y-101444327D01*
X133014327Y-101265698D01*
X133111000Y-101032309D01*
X133111000Y-100441750D01*
X132952250Y-100283000D01*
X131953000Y-100283000D01*
X131699000Y-100283000D01*
X130699750Y-100283000D01*
X130541000Y-100441750D01*
X128999406Y-100441750D01*
X128999406Y-99406000D01*
X128976605Y-99284821D01*
X128973304Y-99279691D01*
X130541000Y-99279691D01*
X130541000Y-99870250D01*
X130699750Y-100029000D01*
X131699000Y-100029000D01*
X131699000Y-98929750D01*
X131953000Y-98929750D01*
X131953000Y-100029000D01*
X132952250Y-100029000D01*
X133111000Y-99870250D01*
X133111000Y-99279691D01*
X133014327Y-99046302D01*
X132835699Y-98867673D01*
X132602310Y-98771000D01*
X132111750Y-98771000D01*
X131953000Y-98929750D01*
X131699000Y-98929750D01*
X131540250Y-98771000D01*
X131049690Y-98771000D01*
X130816301Y-98867673D01*
X130637673Y-99046302D01*
X130541000Y-99279691D01*
X128973304Y-99279691D01*
X128904988Y-99173526D01*
X128795714Y-99098862D01*
X128666000Y-99072594D01*
X127366000Y-99072594D01*
X127244821Y-99095395D01*
X127133526Y-99167012D01*
X127058862Y-99276286D01*
X127032594Y-99406000D01*
X127032594Y-99704000D01*
X125443406Y-99704000D01*
X125443406Y-99500000D01*
X125420605Y-99378821D01*
X125348988Y-99267526D01*
X125239714Y-99192862D01*
X125110000Y-99166594D01*
X123810000Y-99166594D01*
X123688821Y-99189395D01*
X123577526Y-99261012D01*
X123502862Y-99370286D01*
X123476594Y-99500000D01*
X117983000Y-99500000D01*
X117983000Y-96785750D01*
X118882000Y-96785750D01*
X118882000Y-97376309D01*
X118978673Y-97609698D01*
X119157301Y-97788327D01*
X119390690Y-97885000D01*
X119856250Y-97885000D01*
X120015000Y-97726250D01*
X120015000Y-96627000D01*
X120269000Y-96627000D01*
X120269000Y-97726250D01*
X120427750Y-97885000D01*
X120893310Y-97885000D01*
X121126699Y-97788327D01*
X121305327Y-97609698D01*
X121402000Y-97376309D01*
X121402000Y-96785750D01*
X121322250Y-96706000D01*
X127032594Y-96706000D01*
X127032594Y-98206000D01*
X127055395Y-98327179D01*
X127127012Y-98438474D01*
X127236286Y-98513138D01*
X127366000Y-98539406D01*
X128666000Y-98539406D01*
X128787179Y-98516605D01*
X128898474Y-98444988D01*
X128973138Y-98335714D01*
X128999406Y-98206000D01*
X128999406Y-97908000D01*
X130842594Y-97908000D01*
X130842594Y-98206000D01*
X130865395Y-98327179D01*
X130937012Y-98438474D01*
X131046286Y-98513138D01*
X131176000Y-98539406D01*
X132476000Y-98539406D01*
X132597179Y-98516605D01*
X132708474Y-98444988D01*
X132783138Y-98335714D01*
X132809406Y-98206000D01*
X132809406Y-96706000D01*
X132786605Y-96584821D01*
X132714988Y-96473526D01*
X132605714Y-96398862D01*
X132476000Y-96372594D01*
X131176000Y-96372594D01*
X131054821Y-96395395D01*
X130943526Y-96467012D01*
X130868862Y-96576286D01*
X130842594Y-96706000D01*
X130842594Y-97004000D01*
X128999406Y-97004000D01*
X128999406Y-96706000D01*
X128976605Y-96584821D01*
X128904988Y-96473526D01*
X128795714Y-96398862D01*
X128666000Y-96372594D01*
X127366000Y-96372594D01*
X127244821Y-96395395D01*
X127133526Y-96467012D01*
X127058862Y-96576286D01*
X127032594Y-96706000D01*
X121322250Y-96706000D01*
X121243250Y-96627000D01*
X120269000Y-96627000D01*
X120015000Y-96627000D01*
X119040750Y-96627000D01*
X118882000Y-96785750D01*
X117983000Y-96785750D01*
X117983000Y-95623691D01*
X118882000Y-95623691D01*
X118882000Y-96214250D01*
X119040750Y-96373000D01*
X120015000Y-96373000D01*
X120015000Y-95273750D01*
X120269000Y-95273750D01*
X120269000Y-96373000D01*
X121243250Y-96373000D01*
X121402000Y-96214250D01*
X121402000Y-95623691D01*
X121305327Y-95390302D01*
X121126699Y-95211673D01*
X120893310Y-95115000D01*
X120427750Y-95115000D01*
X120269000Y-95273750D01*
X120015000Y-95273750D01*
X119856250Y-95115000D01*
X119390690Y-95115000D01*
X119157301Y-95211673D01*
X118978673Y-95390302D01*
X118882000Y-95623691D01*
X117983000Y-95623691D01*
X117983000Y-93250000D01*
X119183594Y-93250000D01*
X119183594Y-94750000D01*
X119206395Y-94871179D01*
X119278012Y-94982474D01*
X119387286Y-95057138D01*
X119517000Y-95083406D01*
X120767000Y-95083406D01*
X120888179Y-95060605D01*
X120999474Y-94988988D01*
X121074138Y-94879714D01*
X121100406Y-94750000D01*
X121100406Y-94557000D01*
X122246994Y-94557000D01*
X122246994Y-94996000D01*
X122269795Y-95117179D01*
X122341412Y-95228474D01*
X122450686Y-95303138D01*
X122580400Y-95329406D01*
X124307600Y-95329406D01*
X124428779Y-95306605D01*
X124540074Y-95234988D01*
X124614738Y-95125714D01*
X124641006Y-94996000D01*
X124641006Y-93801289D01*
X124793400Y-93801289D01*
X124793400Y-94158711D01*
X124884029Y-94614334D01*
X125142119Y-95000592D01*
X125528377Y-95258682D01*
X125984000Y-95349311D01*
X126439623Y-95258682D01*
X126825881Y-95000592D01*
X127083971Y-94614334D01*
X127174600Y-94158711D01*
X127174600Y-93801289D01*
X127333400Y-93801289D01*
X127333400Y-94158711D01*
X127424029Y-94614334D01*
X127682119Y-95000592D01*
X128068377Y-95258682D01*
X128524000Y-95349311D01*
X128979623Y-95258682D01*
X129365881Y-95000592D01*
X129623971Y-94614334D01*
X129642146Y-94522961D01*
X129772046Y-94894320D01*
X130161964Y-95330732D01*
X130689209Y-95584709D01*
X130704974Y-95587358D01*
X130937000Y-95466217D01*
X130937000Y-94107000D01*
X131191000Y-94107000D01*
X131191000Y-95466217D01*
X131423026Y-95587358D01*
X131438791Y-95584709D01*
X131966036Y-95330732D01*
X132355954Y-94894320D01*
X132549184Y-94341913D01*
X132404924Y-94107000D01*
X131191000Y-94107000D01*
X130937000Y-94107000D01*
X130917000Y-94107000D01*
X130917000Y-94012000D01*
X133407594Y-94012000D01*
X133407594Y-95512000D01*
X133430395Y-95633179D01*
X133502012Y-95744474D01*
X133611286Y-95819138D01*
X133741000Y-95845406D01*
X134991000Y-95845406D01*
X135112179Y-95822605D01*
X135223474Y-95750988D01*
X135298138Y-95641714D01*
X135324406Y-95512000D01*
X135324406Y-94829000D01*
X136216594Y-94829000D01*
X136216594Y-94832000D01*
X136239395Y-94953179D01*
X136311012Y-95064474D01*
X136420286Y-95139138D01*
X136550000Y-95165406D01*
X137770000Y-95165406D01*
X137891179Y-95142605D01*
X138002474Y-95070988D01*
X138077138Y-94961714D01*
X138103406Y-94832000D01*
X138103406Y-94829000D01*
X139366594Y-94829000D01*
X139366594Y-95758000D01*
X139389395Y-95879179D01*
X139461012Y-95990474D01*
X139570286Y-96065138D01*
X139700000Y-96091406D01*
X140087585Y-96091406D01*
X139766356Y-96306045D01*
X139475230Y-96741745D01*
X139385072Y-97195000D01*
X138103406Y-97195000D01*
X138103406Y-97192000D01*
X138080605Y-97070821D01*
X138008988Y-96959526D01*
X137899714Y-96884862D01*
X137770000Y-96858594D01*
X136550000Y-96858594D01*
X136428821Y-96881395D01*
X136317526Y-96953012D01*
X136242862Y-97062286D01*
X136216594Y-97192000D01*
X136216594Y-97195000D01*
X135324406Y-97195000D01*
X135324406Y-96512000D01*
X135301605Y-96390821D01*
X135229988Y-96279526D01*
X135120714Y-96204862D01*
X134991000Y-96178594D01*
X133741000Y-96178594D01*
X133619821Y-96201395D01*
X133508526Y-96273012D01*
X133433862Y-96382286D01*
X133407594Y-96512000D01*
X133407594Y-98012000D01*
X133430395Y-98133179D01*
X133502012Y-98244474D01*
X133611286Y-98319138D01*
X133741000Y-98345406D01*
X134991000Y-98345406D01*
X135112179Y-98322605D01*
X135223474Y-98250988D01*
X135298138Y-98141714D01*
X135306788Y-98099000D01*
X136216594Y-98099000D01*
X136216594Y-98102000D01*
X136239395Y-98223179D01*
X136311012Y-98334474D01*
X136420286Y-98409138D01*
X136550000Y-98435406D01*
X137770000Y-98435406D01*
X137891179Y-98412605D01*
X138002474Y-98340988D01*
X138077138Y-98231714D01*
X138103406Y-98102000D01*
X138103406Y-98099000D01*
X139660145Y-98099000D01*
X139766356Y-98257955D01*
X140202056Y-98549081D01*
X140264000Y-98561402D01*
X140264000Y-100396776D01*
X140256996Y-100403780D01*
X139915681Y-100403780D01*
X139902655Y-100334551D01*
X139831038Y-100223256D01*
X139721764Y-100148592D01*
X139592050Y-100122324D01*
X138791950Y-100122324D01*
X138670771Y-100145125D01*
X138559476Y-100216742D01*
X138484812Y-100326016D01*
X138458544Y-100455730D01*
X138458544Y-101255830D01*
X138481345Y-101377009D01*
X138552962Y-101488304D01*
X138662236Y-101562968D01*
X138791950Y-101589236D01*
X139592050Y-101589236D01*
X139713229Y-101566435D01*
X139824524Y-101494818D01*
X139899188Y-101385544D01*
X139914936Y-101307780D01*
X140444220Y-101307780D01*
X140617193Y-101273374D01*
X140763832Y-101175392D01*
X141035612Y-100903612D01*
X141133594Y-100756973D01*
X141168000Y-100584000D01*
X141168000Y-98561402D01*
X141229944Y-98549081D01*
X141665644Y-98257955D01*
X141956770Y-97822255D01*
X142059000Y-97308311D01*
X142059000Y-97255689D01*
X141956770Y-96741745D01*
X141665644Y-96306045D01*
X141344415Y-96091406D01*
X141732000Y-96091406D01*
X141853179Y-96068605D01*
X141964474Y-95996988D01*
X142039138Y-95887714D01*
X142065406Y-95758000D01*
X142065406Y-93726000D01*
X142042605Y-93604821D01*
X141970988Y-93493526D01*
X141861714Y-93418862D01*
X141732000Y-93392594D01*
X139700000Y-93392594D01*
X139578821Y-93415395D01*
X139467526Y-93487012D01*
X139392862Y-93596286D01*
X139366594Y-93726000D01*
X139366594Y-93925000D01*
X138103406Y-93925000D01*
X138103406Y-93922000D01*
X138080605Y-93800821D01*
X138008988Y-93689526D01*
X137899714Y-93614862D01*
X137770000Y-93588594D01*
X136550000Y-93588594D01*
X136428821Y-93611395D01*
X136317526Y-93683012D01*
X136242862Y-93792286D01*
X136216594Y-93922000D01*
X136216594Y-93925000D01*
X135308036Y-93925000D01*
X135301605Y-93890821D01*
X135229988Y-93779526D01*
X135120714Y-93704862D01*
X134991000Y-93678594D01*
X133741000Y-93678594D01*
X133619821Y-93701395D01*
X133508526Y-93773012D01*
X133433862Y-93882286D01*
X133407594Y-94012000D01*
X130917000Y-94012000D01*
X130917000Y-93853000D01*
X130937000Y-93853000D01*
X130937000Y-92493783D01*
X131191000Y-92493783D01*
X131191000Y-93853000D01*
X132404924Y-93853000D01*
X132549184Y-93618087D01*
X132355954Y-93065680D01*
X131966036Y-92629268D01*
X131438791Y-92375291D01*
X131423026Y-92372642D01*
X131191000Y-92493783D01*
X130937000Y-92493783D01*
X130704974Y-92372642D01*
X130689209Y-92375291D01*
X130161964Y-92629268D01*
X129772046Y-93065680D01*
X129642146Y-93437039D01*
X129623971Y-93345666D01*
X129365881Y-92959408D01*
X128979623Y-92701318D01*
X128524000Y-92610689D01*
X128068377Y-92701318D01*
X127682119Y-92959408D01*
X127424029Y-93345666D01*
X127333400Y-93801289D01*
X127174600Y-93801289D01*
X127083971Y-93345666D01*
X126825881Y-92959408D01*
X126439623Y-92701318D01*
X125984000Y-92610689D01*
X125528377Y-92701318D01*
X125142119Y-92959408D01*
X124884029Y-93345666D01*
X124793400Y-93801289D01*
X124641006Y-93801289D01*
X124641006Y-92964000D01*
X124618205Y-92842821D01*
X124546588Y-92731526D01*
X124437314Y-92656862D01*
X124307600Y-92630594D01*
X122580400Y-92630594D01*
X122459221Y-92653395D01*
X122347926Y-92725012D01*
X122273262Y-92834286D01*
X122246994Y-92964000D01*
X122246994Y-93403000D01*
X121100406Y-93403000D01*
X121100406Y-93250000D01*
X121077605Y-93128821D01*
X121005988Y-93017526D01*
X120896714Y-92942862D01*
X120767000Y-92916594D01*
X119517000Y-92916594D01*
X119395821Y-92939395D01*
X119284526Y-93011012D01*
X119209862Y-93120286D01*
X119183594Y-93250000D01*
X117983000Y-93250000D01*
X117983000Y-90551000D01*
X142621000Y-90551000D01*
X142621000Y-115189000D01*
M02*
