G04 #@! TF.FileFunction,Legend,Bot*
%FSLAX46Y46*%
G04 Gerber Fmt 4.6, Leading zero omitted, Abs format (unit mm)*
G04 Created by KiCad (PCBNEW 4.0.2-stable) date Tuesday, May 17, 2016 'PMt' 02:24:59 PM*
%MOMM*%
G01*
G04 APERTURE LIST*
%ADD10C,0.100000*%
%ADD11C,0.250000*%
G04 APERTURE END LIST*
D10*
D11*
X138476381Y-112212381D02*
X138476381Y-111212381D01*
X138047809Y-112212381D02*
X138047809Y-111688571D01*
X138095428Y-111593333D01*
X138190666Y-111545714D01*
X138333524Y-111545714D01*
X138428762Y-111593333D01*
X138476381Y-111640952D01*
X137714476Y-111545714D02*
X137333524Y-111545714D01*
X137571619Y-111212381D02*
X137571619Y-112069524D01*
X137524000Y-112164762D01*
X137428762Y-112212381D01*
X137333524Y-112212381D01*
X137143047Y-111545714D02*
X136762095Y-111545714D01*
X137000190Y-111212381D02*
X137000190Y-112069524D01*
X136952571Y-112164762D01*
X136857333Y-112212381D01*
X136762095Y-112212381D01*
X136428761Y-111545714D02*
X136428761Y-112545714D01*
X136428761Y-111593333D02*
X136333523Y-111545714D01*
X136143046Y-111545714D01*
X136047808Y-111593333D01*
X136000189Y-111640952D01*
X135952570Y-111736190D01*
X135952570Y-112021905D01*
X136000189Y-112117143D01*
X136047808Y-112164762D01*
X136143046Y-112212381D01*
X136333523Y-112212381D01*
X136428761Y-112164762D01*
X135523999Y-112117143D02*
X135476380Y-112164762D01*
X135523999Y-112212381D01*
X135571618Y-112164762D01*
X135523999Y-112117143D01*
X135523999Y-112212381D01*
X135523999Y-111593333D02*
X135476380Y-111640952D01*
X135523999Y-111688571D01*
X135571618Y-111640952D01*
X135523999Y-111593333D01*
X135523999Y-111688571D01*
X134333523Y-111164762D02*
X135190666Y-112450476D01*
X133285904Y-111164762D02*
X134143047Y-112450476D01*
X133047809Y-111545714D02*
X132857333Y-112212381D01*
X132666856Y-111736190D01*
X132476380Y-112212381D01*
X132285904Y-111545714D01*
X132000190Y-111545714D02*
X131809714Y-112212381D01*
X131619237Y-111736190D01*
X131428761Y-112212381D01*
X131238285Y-111545714D01*
X130952571Y-111545714D02*
X130762095Y-112212381D01*
X130571618Y-111736190D01*
X130381142Y-112212381D01*
X130190666Y-111545714D01*
X129809714Y-112117143D02*
X129762095Y-112164762D01*
X129809714Y-112212381D01*
X129857333Y-112164762D01*
X129809714Y-112117143D01*
X129809714Y-112212381D01*
X128904952Y-112212381D02*
X128904952Y-111688571D01*
X128952571Y-111593333D01*
X129047809Y-111545714D01*
X129238286Y-111545714D01*
X129333524Y-111593333D01*
X128904952Y-112164762D02*
X129000190Y-112212381D01*
X129238286Y-112212381D01*
X129333524Y-112164762D01*
X129381143Y-112069524D01*
X129381143Y-111974286D01*
X129333524Y-111879048D01*
X129238286Y-111831429D01*
X129000190Y-111831429D01*
X128904952Y-111783810D01*
X128428762Y-111545714D02*
X128428762Y-112212381D01*
X128428762Y-111640952D02*
X128381143Y-111593333D01*
X128285905Y-111545714D01*
X128143047Y-111545714D01*
X128047809Y-111593333D01*
X128000190Y-111688571D01*
X128000190Y-112212381D01*
X127095428Y-112212381D02*
X127095428Y-111688571D01*
X127143047Y-111593333D01*
X127238285Y-111545714D01*
X127428762Y-111545714D01*
X127524000Y-111593333D01*
X127095428Y-112164762D02*
X127190666Y-112212381D01*
X127428762Y-112212381D01*
X127524000Y-112164762D01*
X127571619Y-112069524D01*
X127571619Y-111974286D01*
X127524000Y-111879048D01*
X127428762Y-111831429D01*
X127190666Y-111831429D01*
X127095428Y-111783810D01*
X126476381Y-112212381D02*
X126571619Y-112164762D01*
X126619238Y-112069524D01*
X126619238Y-111212381D01*
X125952571Y-112212381D02*
X126047809Y-112164762D01*
X126095428Y-112117143D01*
X126143047Y-112021905D01*
X126143047Y-111736190D01*
X126095428Y-111640952D01*
X126047809Y-111593333D01*
X125952571Y-111545714D01*
X125809713Y-111545714D01*
X125714475Y-111593333D01*
X125666856Y-111640952D01*
X125619237Y-111736190D01*
X125619237Y-112021905D01*
X125666856Y-112117143D01*
X125714475Y-112164762D01*
X125809713Y-112212381D01*
X125952571Y-112212381D01*
X124762094Y-111545714D02*
X124762094Y-112355238D01*
X124809713Y-112450476D01*
X124857332Y-112498095D01*
X124952571Y-112545714D01*
X125095428Y-112545714D01*
X125190666Y-112498095D01*
X124762094Y-112164762D02*
X124857332Y-112212381D01*
X125047809Y-112212381D01*
X125143047Y-112164762D01*
X125190666Y-112117143D01*
X125238285Y-112021905D01*
X125238285Y-111736190D01*
X125190666Y-111640952D01*
X125143047Y-111593333D01*
X125047809Y-111545714D01*
X124857332Y-111545714D01*
X124762094Y-111593333D01*
X124381142Y-111545714D02*
X123857332Y-111545714D01*
X124381142Y-112212381D01*
X123857332Y-112212381D01*
X123333523Y-112212381D02*
X123428761Y-112164762D01*
X123476380Y-112117143D01*
X123523999Y-112021905D01*
X123523999Y-111736190D01*
X123476380Y-111640952D01*
X123428761Y-111593333D01*
X123333523Y-111545714D01*
X123190665Y-111545714D01*
X123095427Y-111593333D01*
X123047808Y-111640952D01*
X123000189Y-111736190D01*
X123000189Y-112021905D01*
X123047808Y-112117143D01*
X123095427Y-112164762D01*
X123190665Y-112212381D01*
X123333523Y-112212381D01*
X122428761Y-112212381D02*
X122523999Y-112164762D01*
X122571618Y-112117143D01*
X122619237Y-112021905D01*
X122619237Y-111736190D01*
X122571618Y-111640952D01*
X122523999Y-111593333D01*
X122428761Y-111545714D01*
X122285903Y-111545714D01*
X122190665Y-111593333D01*
X122143046Y-111640952D01*
X122095427Y-111736190D01*
X122095427Y-112021905D01*
X122143046Y-112117143D01*
X122190665Y-112164762D01*
X122285903Y-112212381D01*
X122428761Y-112212381D01*
X121666856Y-112117143D02*
X121619237Y-112164762D01*
X121666856Y-112212381D01*
X121714475Y-112164762D01*
X121666856Y-112117143D01*
X121666856Y-112212381D01*
X120762094Y-112164762D02*
X120857332Y-112212381D01*
X121047809Y-112212381D01*
X121143047Y-112164762D01*
X121190666Y-112117143D01*
X121238285Y-112021905D01*
X121238285Y-111736190D01*
X121190666Y-111640952D01*
X121143047Y-111593333D01*
X121047809Y-111545714D01*
X120857332Y-111545714D01*
X120762094Y-111593333D01*
X120190666Y-112212381D02*
X120285904Y-112164762D01*
X120333523Y-112117143D01*
X120381142Y-112021905D01*
X120381142Y-111736190D01*
X120333523Y-111640952D01*
X120285904Y-111593333D01*
X120190666Y-111545714D01*
X120047808Y-111545714D01*
X119952570Y-111593333D01*
X119904951Y-111640952D01*
X119857332Y-111736190D01*
X119857332Y-112021905D01*
X119904951Y-112117143D01*
X119952570Y-112164762D01*
X120047808Y-112212381D01*
X120190666Y-112212381D01*
X119428761Y-112212381D02*
X119428761Y-111545714D01*
X119428761Y-111640952D02*
X119381142Y-111593333D01*
X119285904Y-111545714D01*
X119143046Y-111545714D01*
X119047808Y-111593333D01*
X119000189Y-111688571D01*
X119000189Y-112212381D01*
X119000189Y-111688571D02*
X118952570Y-111593333D01*
X118857332Y-111545714D01*
X118714475Y-111545714D01*
X118619237Y-111593333D01*
X118571618Y-111688571D01*
X118571618Y-112212381D01*
M02*
