G04 #@! TF.FileFunction,Legend,Top*
%FSLAX46Y46*%
G04 Gerber Fmt 4.6, Leading zero omitted, Abs format (unit mm)*
G04 Created by KiCad (PCBNEW 4.0.2-stable) date Tuesday, April 12, 2016 'PMt' 12:32:30 PM*
%MOMM*%
G01*
G04 APERTURE LIST*
%ADD10C,0.100000*%
%ADD11C,0.150000*%
G04 APERTURE END LIST*
D10*
D11*
X64000000Y-104560000D02*
X63000000Y-104560000D01*
X63000000Y-106260000D02*
X64000000Y-106260000D01*
X55030000Y-118880000D02*
X55030000Y-119880000D01*
X56730000Y-119880000D02*
X56730000Y-118880000D01*
X76112000Y-99830000D02*
X76112000Y-100830000D01*
X77812000Y-100830000D02*
X77812000Y-99830000D01*
X47410000Y-109990000D02*
X47410000Y-110990000D01*
X49110000Y-110990000D02*
X49110000Y-109990000D01*
X50520000Y-97510000D02*
X50520000Y-99060000D01*
X50800000Y-102870000D02*
X50800000Y-100330000D01*
X50800000Y-100330000D02*
X53340000Y-100330000D01*
X53620000Y-99060000D02*
X53620000Y-97510000D01*
X53620000Y-97510000D02*
X50520000Y-97510000D01*
X53340000Y-100330000D02*
X53340000Y-102870000D01*
X53340000Y-102870000D02*
X50800000Y-102870000D01*
X78460000Y-97510000D02*
X78460000Y-99060000D01*
X78740000Y-102870000D02*
X78740000Y-100330000D01*
X78740000Y-100330000D02*
X81280000Y-100330000D01*
X81560000Y-99060000D02*
X81560000Y-97510000D01*
X81560000Y-97510000D02*
X78460000Y-97510000D01*
X81280000Y-100330000D02*
X81280000Y-102870000D01*
X81280000Y-102870000D02*
X78740000Y-102870000D01*
X72110000Y-97510000D02*
X72110000Y-99060000D01*
X72390000Y-102870000D02*
X72390000Y-100330000D01*
X72390000Y-100330000D02*
X74930000Y-100330000D01*
X75210000Y-99060000D02*
X75210000Y-97510000D01*
X75210000Y-97510000D02*
X72110000Y-97510000D01*
X74930000Y-100330000D02*
X74930000Y-102870000D01*
X74930000Y-102870000D02*
X72390000Y-102870000D01*
X60680000Y-97510000D02*
X60680000Y-99060000D01*
X60960000Y-102870000D02*
X60960000Y-100330000D01*
X60960000Y-100330000D02*
X63500000Y-100330000D01*
X63780000Y-99060000D02*
X63780000Y-97510000D01*
X63780000Y-97510000D02*
X60680000Y-97510000D01*
X63500000Y-100330000D02*
X63500000Y-102870000D01*
X63500000Y-102870000D02*
X60960000Y-102870000D01*
X81309160Y-107299760D02*
X81260900Y-107299760D01*
X78510180Y-108000800D02*
X78510180Y-107299760D01*
X78510180Y-107299760D02*
X78759100Y-107299760D01*
X81309160Y-107299760D02*
X81509820Y-107299760D01*
X81509820Y-107299760D02*
X81509820Y-108000800D01*
X57820000Y-109615000D02*
X59020000Y-109615000D01*
X59020000Y-111365000D02*
X57820000Y-111365000D01*
X60565000Y-114970000D02*
X60565000Y-116170000D01*
X58815000Y-116170000D02*
X58815000Y-114970000D01*
X73060000Y-117235000D02*
X74260000Y-117235000D01*
X74260000Y-118985000D02*
X73060000Y-118985000D01*
X75805000Y-111160000D02*
X75805000Y-112360000D01*
X74055000Y-112360000D02*
X74055000Y-111160000D01*
X68185000Y-118780000D02*
X68185000Y-119980000D01*
X66435000Y-119980000D02*
X66435000Y-118780000D01*
X55005000Y-126330000D02*
X55005000Y-125130000D01*
X56755000Y-125130000D02*
X56755000Y-126330000D01*
X66435000Y-126330000D02*
X66435000Y-125130000D01*
X68185000Y-125130000D02*
X68185000Y-126330000D01*
X60360000Y-126125000D02*
X61560000Y-126125000D01*
X61560000Y-127875000D02*
X60360000Y-127875000D01*
X79615000Y-118780000D02*
X79615000Y-119980000D01*
X77865000Y-119980000D02*
X77865000Y-118780000D01*
X84582000Y-117094000D02*
X83312000Y-117094000D01*
X83832700Y-117881400D02*
X84086700Y-117843300D01*
X84086700Y-117843300D02*
X84366100Y-117665500D01*
X84366100Y-117665500D02*
X84582000Y-117348000D01*
X84582000Y-117348000D02*
X84594700Y-116903500D01*
X84594700Y-116903500D02*
X84391500Y-116547900D01*
X84391500Y-116547900D02*
X84099400Y-116370100D01*
X84099400Y-116370100D02*
X83781900Y-116319300D01*
X83781900Y-116319300D02*
X83375500Y-116420900D01*
X83375500Y-116420900D02*
X83121500Y-116763800D01*
X83121500Y-116763800D02*
X83032600Y-116941600D01*
X80772000Y-125476000D02*
X80772000Y-115824000D01*
X83820000Y-115824000D02*
X85090000Y-115824000D01*
X85090000Y-115824000D02*
X85090000Y-125476000D01*
X85090000Y-125476000D02*
X80010000Y-125476000D01*
X80010000Y-115824000D02*
X82550000Y-115824000D01*
X82550000Y-115824000D02*
X83820000Y-115824000D01*
X69850000Y-114046000D02*
X64770000Y-114046000D01*
X64770000Y-114046000D02*
X64770000Y-109474000D01*
X64770000Y-109474000D02*
X69850000Y-109474000D01*
X69850000Y-109474000D02*
X69850000Y-114046000D01*
X69850000Y-112522000D02*
X69342000Y-112522000D01*
X69342000Y-112522000D02*
X69342000Y-111252000D01*
X69342000Y-111252000D02*
X69850000Y-111252000D01*
X60660000Y-120820000D02*
X60660000Y-121120000D01*
X60660000Y-121120000D02*
X60360000Y-121120000D01*
X61560000Y-123020000D02*
X61560000Y-120820000D01*
X61560000Y-120820000D02*
X60360000Y-120820000D01*
X60360000Y-120820000D02*
X60360000Y-123020000D01*
X60360000Y-123020000D02*
X61560000Y-123020000D01*
X50370000Y-108790000D02*
X50370000Y-112190000D01*
X50372944Y-108792944D02*
G75*
G02X54470000Y-110490000I1697056J-1697056D01*
G01*
X50372944Y-112187056D02*
G75*
G03X54470000Y-110490000I1697056J1697056D01*
G01*
X59523334Y-105767143D02*
X59475715Y-105814762D01*
X59332858Y-105862381D01*
X59237620Y-105862381D01*
X59094762Y-105814762D01*
X58999524Y-105719524D01*
X58951905Y-105624286D01*
X58904286Y-105433810D01*
X58904286Y-105290952D01*
X58951905Y-105100476D01*
X58999524Y-105005238D01*
X59094762Y-104910000D01*
X59237620Y-104862381D01*
X59332858Y-104862381D01*
X59475715Y-104910000D01*
X59523334Y-104957619D01*
X60475715Y-105862381D02*
X59904286Y-105862381D01*
X60190000Y-105862381D02*
X60190000Y-104862381D01*
X60094762Y-105005238D01*
X59999524Y-105100476D01*
X59904286Y-105148095D01*
X54137143Y-119546666D02*
X54184762Y-119594285D01*
X54232381Y-119737142D01*
X54232381Y-119832380D01*
X54184762Y-119975238D01*
X54089524Y-120070476D01*
X53994286Y-120118095D01*
X53803810Y-120165714D01*
X53660952Y-120165714D01*
X53470476Y-120118095D01*
X53375238Y-120070476D01*
X53280000Y-119975238D01*
X53232381Y-119832380D01*
X53232381Y-119737142D01*
X53280000Y-119594285D01*
X53327619Y-119546666D01*
X53327619Y-119165714D02*
X53280000Y-119118095D01*
X53232381Y-119022857D01*
X53232381Y-118784761D01*
X53280000Y-118689523D01*
X53327619Y-118641904D01*
X53422857Y-118594285D01*
X53518095Y-118594285D01*
X53660952Y-118641904D01*
X54232381Y-119213333D01*
X54232381Y-118594285D01*
X77573143Y-104306666D02*
X77620762Y-104354285D01*
X77668381Y-104497142D01*
X77668381Y-104592380D01*
X77620762Y-104735238D01*
X77525524Y-104830476D01*
X77430286Y-104878095D01*
X77239810Y-104925714D01*
X77096952Y-104925714D01*
X76906476Y-104878095D01*
X76811238Y-104830476D01*
X76716000Y-104735238D01*
X76668381Y-104592380D01*
X76668381Y-104497142D01*
X76716000Y-104354285D01*
X76763619Y-104306666D01*
X76668381Y-103973333D02*
X76668381Y-103354285D01*
X77049333Y-103687619D01*
X77049333Y-103544761D01*
X77096952Y-103449523D01*
X77144571Y-103401904D01*
X77239810Y-103354285D01*
X77477905Y-103354285D01*
X77573143Y-103401904D01*
X77620762Y-103449523D01*
X77668381Y-103544761D01*
X77668381Y-103830476D01*
X77620762Y-103925714D01*
X77573143Y-103973333D01*
X48363143Y-114466666D02*
X48410762Y-114514285D01*
X48458381Y-114657142D01*
X48458381Y-114752380D01*
X48410762Y-114895238D01*
X48315524Y-114990476D01*
X48220286Y-115038095D01*
X48029810Y-115085714D01*
X47886952Y-115085714D01*
X47696476Y-115038095D01*
X47601238Y-114990476D01*
X47506000Y-114895238D01*
X47458381Y-114752380D01*
X47458381Y-114657142D01*
X47506000Y-114514285D01*
X47553619Y-114466666D01*
X47791714Y-113609523D02*
X48458381Y-113609523D01*
X47410762Y-113847619D02*
X48125048Y-114085714D01*
X48125048Y-113466666D01*
X52522381Y-95988095D02*
X51522381Y-95988095D01*
X51522381Y-95607142D01*
X51570000Y-95511904D01*
X51617619Y-95464285D01*
X51712857Y-95416666D01*
X51855714Y-95416666D01*
X51950952Y-95464285D01*
X51998571Y-95511904D01*
X52046190Y-95607142D01*
X52046190Y-95988095D01*
X52522381Y-94464285D02*
X52522381Y-95035714D01*
X52522381Y-94750000D02*
X51522381Y-94750000D01*
X51665238Y-94845238D01*
X51760476Y-94940476D01*
X51808095Y-95035714D01*
X80462381Y-95988095D02*
X79462381Y-95988095D01*
X79462381Y-95607142D01*
X79510000Y-95511904D01*
X79557619Y-95464285D01*
X79652857Y-95416666D01*
X79795714Y-95416666D01*
X79890952Y-95464285D01*
X79938571Y-95511904D01*
X79986190Y-95607142D01*
X79986190Y-95988095D01*
X79557619Y-95035714D02*
X79510000Y-94988095D01*
X79462381Y-94892857D01*
X79462381Y-94654761D01*
X79510000Y-94559523D01*
X79557619Y-94511904D01*
X79652857Y-94464285D01*
X79748095Y-94464285D01*
X79890952Y-94511904D01*
X80462381Y-95083333D01*
X80462381Y-94464285D01*
X74366381Y-105640095D02*
X73366381Y-105640095D01*
X73366381Y-105259142D01*
X73414000Y-105163904D01*
X73461619Y-105116285D01*
X73556857Y-105068666D01*
X73699714Y-105068666D01*
X73794952Y-105116285D01*
X73842571Y-105163904D01*
X73890190Y-105259142D01*
X73890190Y-105640095D01*
X73366381Y-104735333D02*
X73366381Y-104116285D01*
X73747333Y-104449619D01*
X73747333Y-104306761D01*
X73794952Y-104211523D01*
X73842571Y-104163904D01*
X73937810Y-104116285D01*
X74175905Y-104116285D01*
X74271143Y-104163904D01*
X74318762Y-104211523D01*
X74366381Y-104306761D01*
X74366381Y-104592476D01*
X74318762Y-104687714D01*
X74271143Y-104735333D01*
X62682381Y-95988095D02*
X61682381Y-95988095D01*
X61682381Y-95607142D01*
X61730000Y-95511904D01*
X61777619Y-95464285D01*
X61872857Y-95416666D01*
X62015714Y-95416666D01*
X62110952Y-95464285D01*
X62158571Y-95511904D01*
X62206190Y-95607142D01*
X62206190Y-95988095D01*
X62015714Y-94559523D02*
X62682381Y-94559523D01*
X61634762Y-94797619D02*
X62349048Y-95035714D01*
X62349048Y-94416666D01*
X83216762Y-108497619D02*
X83121524Y-108450000D01*
X83026286Y-108354762D01*
X82883429Y-108211905D01*
X82788190Y-108164286D01*
X82692952Y-108164286D01*
X82740571Y-108402381D02*
X82645333Y-108354762D01*
X82550095Y-108259524D01*
X82502476Y-108069048D01*
X82502476Y-107735714D01*
X82550095Y-107545238D01*
X82645333Y-107450000D01*
X82740571Y-107402381D01*
X82931048Y-107402381D01*
X83026286Y-107450000D01*
X83121524Y-107545238D01*
X83169143Y-107735714D01*
X83169143Y-108069048D01*
X83121524Y-108259524D01*
X83026286Y-108354762D01*
X82931048Y-108402381D01*
X82740571Y-108402381D01*
X84121524Y-108402381D02*
X83550095Y-108402381D01*
X83835809Y-108402381D02*
X83835809Y-107402381D01*
X83740571Y-107545238D01*
X83645333Y-107640476D01*
X83550095Y-107688095D01*
X58253334Y-108402381D02*
X57920000Y-107926190D01*
X57681905Y-108402381D02*
X57681905Y-107402381D01*
X58062858Y-107402381D01*
X58158096Y-107450000D01*
X58205715Y-107497619D01*
X58253334Y-107592857D01*
X58253334Y-107735714D01*
X58205715Y-107830952D01*
X58158096Y-107878571D01*
X58062858Y-107926190D01*
X57681905Y-107926190D01*
X59205715Y-108402381D02*
X58634286Y-108402381D01*
X58920000Y-108402381D02*
X58920000Y-107402381D01*
X58824762Y-107545238D01*
X58729524Y-107640476D01*
X58634286Y-107688095D01*
X58042381Y-115736666D02*
X57566190Y-116070000D01*
X58042381Y-116308095D02*
X57042381Y-116308095D01*
X57042381Y-115927142D01*
X57090000Y-115831904D01*
X57137619Y-115784285D01*
X57232857Y-115736666D01*
X57375714Y-115736666D01*
X57470952Y-115784285D01*
X57518571Y-115831904D01*
X57566190Y-115927142D01*
X57566190Y-116308095D01*
X57137619Y-115355714D02*
X57090000Y-115308095D01*
X57042381Y-115212857D01*
X57042381Y-114974761D01*
X57090000Y-114879523D01*
X57137619Y-114831904D01*
X57232857Y-114784285D01*
X57328095Y-114784285D01*
X57470952Y-114831904D01*
X58042381Y-115403333D01*
X58042381Y-114784285D01*
X73493334Y-120662381D02*
X73160000Y-120186190D01*
X72921905Y-120662381D02*
X72921905Y-119662381D01*
X73302858Y-119662381D01*
X73398096Y-119710000D01*
X73445715Y-119757619D01*
X73493334Y-119852857D01*
X73493334Y-119995714D01*
X73445715Y-120090952D01*
X73398096Y-120138571D01*
X73302858Y-120186190D01*
X72921905Y-120186190D01*
X73826667Y-119662381D02*
X74445715Y-119662381D01*
X74112381Y-120043333D01*
X74255239Y-120043333D01*
X74350477Y-120090952D01*
X74398096Y-120138571D01*
X74445715Y-120233810D01*
X74445715Y-120471905D01*
X74398096Y-120567143D01*
X74350477Y-120614762D01*
X74255239Y-120662381D01*
X73969524Y-120662381D01*
X73874286Y-120614762D01*
X73826667Y-120567143D01*
X73282381Y-111926666D02*
X72806190Y-112260000D01*
X73282381Y-112498095D02*
X72282381Y-112498095D01*
X72282381Y-112117142D01*
X72330000Y-112021904D01*
X72377619Y-111974285D01*
X72472857Y-111926666D01*
X72615714Y-111926666D01*
X72710952Y-111974285D01*
X72758571Y-112021904D01*
X72806190Y-112117142D01*
X72806190Y-112498095D01*
X72615714Y-111069523D02*
X73282381Y-111069523D01*
X72234762Y-111307619D02*
X72949048Y-111545714D01*
X72949048Y-110926666D01*
X65222381Y-119546666D02*
X64746190Y-119880000D01*
X65222381Y-120118095D02*
X64222381Y-120118095D01*
X64222381Y-119737142D01*
X64270000Y-119641904D01*
X64317619Y-119594285D01*
X64412857Y-119546666D01*
X64555714Y-119546666D01*
X64650952Y-119594285D01*
X64698571Y-119641904D01*
X64746190Y-119737142D01*
X64746190Y-120118095D01*
X64222381Y-118641904D02*
X64222381Y-119118095D01*
X64698571Y-119165714D01*
X64650952Y-119118095D01*
X64603333Y-119022857D01*
X64603333Y-118784761D01*
X64650952Y-118689523D01*
X64698571Y-118641904D01*
X64793810Y-118594285D01*
X65031905Y-118594285D01*
X65127143Y-118641904D01*
X65174762Y-118689523D01*
X65222381Y-118784761D01*
X65222381Y-119022857D01*
X65174762Y-119118095D01*
X65127143Y-119165714D01*
X53792381Y-125896666D02*
X53316190Y-126230000D01*
X53792381Y-126468095D02*
X52792381Y-126468095D01*
X52792381Y-126087142D01*
X52840000Y-125991904D01*
X52887619Y-125944285D01*
X52982857Y-125896666D01*
X53125714Y-125896666D01*
X53220952Y-125944285D01*
X53268571Y-125991904D01*
X53316190Y-126087142D01*
X53316190Y-126468095D01*
X52792381Y-125039523D02*
X52792381Y-125230000D01*
X52840000Y-125325238D01*
X52887619Y-125372857D01*
X53030476Y-125468095D01*
X53220952Y-125515714D01*
X53601905Y-125515714D01*
X53697143Y-125468095D01*
X53744762Y-125420476D01*
X53792381Y-125325238D01*
X53792381Y-125134761D01*
X53744762Y-125039523D01*
X53697143Y-124991904D01*
X53601905Y-124944285D01*
X53363810Y-124944285D01*
X53268571Y-124991904D01*
X53220952Y-125039523D01*
X53173333Y-125134761D01*
X53173333Y-125325238D01*
X53220952Y-125420476D01*
X53268571Y-125468095D01*
X53363810Y-125515714D01*
X70302381Y-125896666D02*
X69826190Y-126230000D01*
X70302381Y-126468095D02*
X69302381Y-126468095D01*
X69302381Y-126087142D01*
X69350000Y-125991904D01*
X69397619Y-125944285D01*
X69492857Y-125896666D01*
X69635714Y-125896666D01*
X69730952Y-125944285D01*
X69778571Y-125991904D01*
X69826190Y-126087142D01*
X69826190Y-126468095D01*
X69302381Y-125563333D02*
X69302381Y-124896666D01*
X70302381Y-125325238D01*
X60793334Y-129552381D02*
X60460000Y-129076190D01*
X60221905Y-129552381D02*
X60221905Y-128552381D01*
X60602858Y-128552381D01*
X60698096Y-128600000D01*
X60745715Y-128647619D01*
X60793334Y-128742857D01*
X60793334Y-128885714D01*
X60745715Y-128980952D01*
X60698096Y-129028571D01*
X60602858Y-129076190D01*
X60221905Y-129076190D01*
X61364762Y-128980952D02*
X61269524Y-128933333D01*
X61221905Y-128885714D01*
X61174286Y-128790476D01*
X61174286Y-128742857D01*
X61221905Y-128647619D01*
X61269524Y-128600000D01*
X61364762Y-128552381D01*
X61555239Y-128552381D01*
X61650477Y-128600000D01*
X61698096Y-128647619D01*
X61745715Y-128742857D01*
X61745715Y-128790476D01*
X61698096Y-128885714D01*
X61650477Y-128933333D01*
X61555239Y-128980952D01*
X61364762Y-128980952D01*
X61269524Y-129028571D01*
X61221905Y-129076190D01*
X61174286Y-129171429D01*
X61174286Y-129361905D01*
X61221905Y-129457143D01*
X61269524Y-129504762D01*
X61364762Y-129552381D01*
X61555239Y-129552381D01*
X61650477Y-129504762D01*
X61698096Y-129457143D01*
X61745715Y-129361905D01*
X61745715Y-129171429D01*
X61698096Y-129076190D01*
X61650477Y-129028571D01*
X61555239Y-128980952D01*
X79192381Y-123356666D02*
X78716190Y-123690000D01*
X79192381Y-123928095D02*
X78192381Y-123928095D01*
X78192381Y-123547142D01*
X78240000Y-123451904D01*
X78287619Y-123404285D01*
X78382857Y-123356666D01*
X78525714Y-123356666D01*
X78620952Y-123404285D01*
X78668571Y-123451904D01*
X78716190Y-123547142D01*
X78716190Y-123928095D01*
X79192381Y-122880476D02*
X79192381Y-122690000D01*
X79144762Y-122594761D01*
X79097143Y-122547142D01*
X78954286Y-122451904D01*
X78763810Y-122404285D01*
X78382857Y-122404285D01*
X78287619Y-122451904D01*
X78240000Y-122499523D01*
X78192381Y-122594761D01*
X78192381Y-122785238D01*
X78240000Y-122880476D01*
X78287619Y-122928095D01*
X78382857Y-122975714D01*
X78620952Y-122975714D01*
X78716190Y-122928095D01*
X78763810Y-122880476D01*
X78811429Y-122785238D01*
X78811429Y-122594761D01*
X78763810Y-122499523D01*
X78716190Y-122451904D01*
X78620952Y-122404285D01*
X82208762Y-127452381D02*
X81875428Y-126976190D01*
X81637333Y-127452381D02*
X81637333Y-126452381D01*
X82018286Y-126452381D01*
X82113524Y-126500000D01*
X82161143Y-126547619D01*
X82208762Y-126642857D01*
X82208762Y-126785714D01*
X82161143Y-126880952D01*
X82113524Y-126928571D01*
X82018286Y-126976190D01*
X81637333Y-126976190D01*
X82494476Y-126452381D02*
X82827809Y-127452381D01*
X83161143Y-126452381D01*
X84018286Y-127452381D02*
X83446857Y-127452381D01*
X83732571Y-127452381D02*
X83732571Y-126452381D01*
X83637333Y-126595238D01*
X83542095Y-126690476D01*
X83446857Y-126738095D01*
X62230095Y-111974381D02*
X62230095Y-112783905D01*
X62277714Y-112879143D01*
X62325333Y-112926762D01*
X62420571Y-112974381D01*
X62611048Y-112974381D01*
X62706286Y-112926762D01*
X62753905Y-112879143D01*
X62801524Y-112783905D01*
X62801524Y-111974381D01*
X63801524Y-112974381D02*
X63230095Y-112974381D01*
X63515809Y-112974381D02*
X63515809Y-111974381D01*
X63420571Y-112117238D01*
X63325333Y-112212476D01*
X63230095Y-112260095D01*
X60412381Y-125221905D02*
X61221905Y-125221905D01*
X61317143Y-125174286D01*
X61364762Y-125126667D01*
X61412381Y-125031429D01*
X61412381Y-124840952D01*
X61364762Y-124745714D01*
X61317143Y-124698095D01*
X61221905Y-124650476D01*
X60412381Y-124650476D01*
X60507619Y-124221905D02*
X60460000Y-124174286D01*
X60412381Y-124079048D01*
X60412381Y-123840952D01*
X60460000Y-123745714D01*
X60507619Y-123698095D01*
X60602857Y-123650476D01*
X60698095Y-123650476D01*
X60840952Y-123698095D01*
X61412381Y-124269524D01*
X61412381Y-123650476D01*
X52792381Y-107441905D02*
X53601905Y-107441905D01*
X53697143Y-107394286D01*
X53744762Y-107346667D01*
X53792381Y-107251429D01*
X53792381Y-107060952D01*
X53744762Y-106965714D01*
X53697143Y-106918095D01*
X53601905Y-106870476D01*
X52792381Y-106870476D01*
X52792381Y-106489524D02*
X52792381Y-105870476D01*
X53173333Y-106203810D01*
X53173333Y-106060952D01*
X53220952Y-105965714D01*
X53268571Y-105918095D01*
X53363810Y-105870476D01*
X53601905Y-105870476D01*
X53697143Y-105918095D01*
X53744762Y-105965714D01*
X53792381Y-106060952D01*
X53792381Y-106346667D01*
X53744762Y-106441905D01*
X53697143Y-106489524D01*
M02*
