G04 #@! TF.FileFunction,Copper,L1,Top,Signal*
%FSLAX46Y46*%
G04 Gerber Fmt 4.6, Leading zero omitted, Abs format (unit mm)*
G04 Created by KiCad (PCBNEW 4.0.2-stable) date Wednesday, May 04, 2016 'AMt' 10:04:42 AM*
%MOMM*%
G01*
G04 APERTURE LIST*
%ADD10C,0.100000*%
%ADD11R,1.250000X1.500000*%
%ADD12R,2.032000X2.032000*%
%ADD13O,2.032000X2.032000*%
%ADD14R,0.800100X0.800100*%
%ADD15R,1.300000X1.500000*%
%ADD16R,1.500000X1.300000*%
%ADD17C,1.524000*%
%ADD18R,0.508000X1.143000*%
%ADD19O,1.501140X0.899160*%
%ADD20R,1.727200X2.032000*%
%ADD21O,1.727200X2.032000*%
%ADD22R,1.220000X0.910000*%
%ADD23C,0.600000*%
%ADD24C,0.250000*%
%ADD25C,0.500000*%
G04 APERTURE END LIST*
D10*
D11*
X60350400Y-98633600D03*
X60350400Y-96133600D03*
X75692000Y-99294000D03*
X75692000Y-96794000D03*
D12*
X82042000Y-96774000D03*
D13*
X82042000Y-99314000D03*
D14*
X79568000Y-104886760D03*
X81468000Y-104886760D03*
X80518000Y-102887780D03*
D15*
X64770000Y-102256600D03*
X64770000Y-104956600D03*
X68224400Y-99513400D03*
X68224400Y-102213400D03*
X72110600Y-102188000D03*
X72110600Y-99488000D03*
D16*
X76381600Y-108204000D03*
X73681600Y-108204000D03*
D15*
X64770000Y-111078000D03*
X64770000Y-108378000D03*
D16*
X67898000Y-113538000D03*
X65198000Y-113538000D03*
D15*
X76403200Y-113770400D03*
X76403200Y-111070400D03*
D17*
X81534000Y-110744000D03*
X81534000Y-113284000D03*
X81534000Y-108204000D03*
D18*
X70739000Y-111125000D03*
X69469000Y-111125000D03*
X68199000Y-111125000D03*
X66929000Y-111125000D03*
X66929000Y-104775000D03*
X68199000Y-104775000D03*
X69469000Y-104775000D03*
X70739000Y-104775000D03*
D19*
X60960000Y-104902000D03*
X60960000Y-106172000D03*
X60960000Y-103632000D03*
D16*
X76407000Y-104876600D03*
X73707000Y-104876600D03*
D20*
X63804800Y-96113600D03*
D21*
X66344800Y-96113600D03*
X68884800Y-96113600D03*
X71424800Y-96113600D03*
D22*
X78486000Y-96409000D03*
X78486000Y-99679000D03*
D11*
X72644000Y-113619600D03*
X72644000Y-111119600D03*
D14*
X62214760Y-112202000D03*
X62214760Y-110302000D03*
X60215780Y-111252000D03*
D23*
X62230000Y-113538000D03*
X74218800Y-111099600D03*
D24*
X62214760Y-112202000D02*
X62214760Y-113522760D01*
X62214760Y-113522760D02*
X62230000Y-113538000D01*
D25*
X60350400Y-96133600D02*
X63784800Y-96133600D01*
X63784800Y-96133600D02*
X63804800Y-96113600D01*
X72644000Y-111119600D02*
X74198800Y-111119600D01*
X74198800Y-111119600D02*
X74218800Y-111099600D01*
X72644000Y-111119600D02*
X70744400Y-111119600D01*
X70744400Y-111119600D02*
X70739000Y-111125000D01*
X70846000Y-111018000D02*
X70739000Y-111125000D01*
D24*
X75692000Y-96794000D02*
X78101000Y-96794000D01*
X78101000Y-96794000D02*
X78486000Y-96409000D01*
X82042000Y-96774000D02*
X78851000Y-96774000D01*
X78851000Y-96774000D02*
X78486000Y-96409000D01*
X76403200Y-111070400D02*
X76403200Y-108225600D01*
X76403200Y-108225600D02*
X76381600Y-108204000D01*
X76381600Y-108204000D02*
X81534000Y-108204000D01*
X81468000Y-104886760D02*
X81468000Y-108138000D01*
X81468000Y-108138000D02*
X81534000Y-108204000D01*
X64770000Y-102256600D02*
X68181200Y-102256600D01*
X68181200Y-102256600D02*
X68199000Y-102274400D01*
X68199000Y-102274400D02*
X68199000Y-104775000D01*
X64770000Y-111078000D02*
X64770000Y-113110000D01*
X64770000Y-113110000D02*
X65198000Y-113538000D01*
X65024000Y-113364000D02*
X65198000Y-113538000D01*
X68224400Y-99513400D02*
X72085200Y-99513400D01*
X72085200Y-99513400D02*
X72110600Y-99488000D01*
X69469000Y-104775000D02*
X69469000Y-107823000D01*
X69469000Y-107823000D02*
X68914000Y-108378000D01*
X64770000Y-108378000D02*
X68914000Y-108378000D01*
X68914000Y-108378000D02*
X73507600Y-108378000D01*
X73507600Y-108378000D02*
X73681600Y-108204000D01*
X73507600Y-108378000D02*
X73681600Y-108204000D01*
X68199000Y-111125000D02*
X68199000Y-113237000D01*
X68199000Y-113237000D02*
X67898000Y-113538000D01*
X76407000Y-104876600D02*
X79557840Y-104876600D01*
X79557840Y-104876600D02*
X79568000Y-104886760D01*
X79552760Y-104902000D02*
X79568000Y-104886760D01*
X78486000Y-99679000D02*
X81677000Y-99679000D01*
X81677000Y-99679000D02*
X82042000Y-99314000D01*
X78486000Y-99679000D02*
X76077000Y-99679000D01*
X76077000Y-99679000D02*
X75692000Y-99294000D01*
X82042000Y-99314000D02*
X82042000Y-102616000D01*
X81770220Y-102887780D02*
X80518000Y-102887780D01*
X82042000Y-102616000D02*
X81770220Y-102887780D01*
X78851000Y-99314000D02*
X78486000Y-99679000D01*
X62214760Y-110302000D02*
X62214760Y-105679240D01*
X62214760Y-105679240D02*
X62992000Y-104902000D01*
X60960000Y-104902000D02*
X62992000Y-104902000D01*
X62992000Y-104902000D02*
X64715400Y-104902000D01*
X64715400Y-104902000D02*
X64770000Y-104956600D01*
X64723000Y-105003600D02*
X64770000Y-104956600D01*
X70739000Y-104775000D02*
X73605400Y-104775000D01*
X73605400Y-104775000D02*
X73707000Y-104876600D01*
X70866000Y-104902000D02*
X70739000Y-104775000D01*
M02*
