G04 #@! TF.FileFunction,Copper,L1,Top,Signal*
%FSLAX46Y46*%
G04 Gerber Fmt 4.6, Leading zero omitted, Abs format (unit mm)*
G04 Created by KiCad (PCBNEW 4.0.2-stable) date Tuesday, April 12, 2016 'PMt' 12:32:30 PM*
%MOMM*%
G01*
G04 APERTURE LIST*
%ADD10C,0.100000*%
%ADD11R,1.500000X1.250000*%
%ADD12R,1.250000X1.500000*%
%ADD13R,2.032000X2.032000*%
%ADD14O,2.032000X2.032000*%
%ADD15R,0.800100X0.800100*%
%ADD16R,1.500000X1.300000*%
%ADD17R,1.300000X1.500000*%
%ADD18C,1.524000*%
%ADD19R,0.508000X1.143000*%
%ADD20R,0.660400X0.406400*%
%ADD21O,1.501140X0.899160*%
%ADD22C,0.600000*%
%ADD23C,0.500000*%
%ADD24C,0.250000*%
%ADD25C,0.254000*%
G04 APERTURE END LIST*
D10*
D11*
X62250000Y-105410000D03*
X64750000Y-105410000D03*
D12*
X55880000Y-120630000D03*
X55880000Y-118130000D03*
X76962000Y-101580000D03*
X76962000Y-99080000D03*
X48260000Y-111740000D03*
X48260000Y-109240000D03*
D13*
X52070000Y-99060000D03*
D14*
X52070000Y-101600000D03*
D13*
X80010000Y-99060000D03*
D14*
X80010000Y-101600000D03*
D13*
X73660000Y-99060000D03*
D14*
X73660000Y-101600000D03*
D13*
X62230000Y-99060000D03*
D14*
X62230000Y-101600000D03*
D15*
X79060000Y-108950760D03*
X80960000Y-108950760D03*
X80010000Y-106951780D03*
D16*
X59770000Y-110490000D03*
X57070000Y-110490000D03*
D17*
X59690000Y-116920000D03*
X59690000Y-114220000D03*
D16*
X75010000Y-118110000D03*
X72310000Y-118110000D03*
D17*
X74930000Y-113110000D03*
X74930000Y-110410000D03*
X67310000Y-120730000D03*
X67310000Y-118030000D03*
X55880000Y-124380000D03*
X55880000Y-127080000D03*
X67310000Y-124380000D03*
X67310000Y-127080000D03*
D16*
X62310000Y-127000000D03*
X59610000Y-127000000D03*
D17*
X78740000Y-120730000D03*
X78740000Y-118030000D03*
D18*
X82550000Y-120650000D03*
X82550000Y-123190000D03*
X82550000Y-118110000D03*
D19*
X69215000Y-114935000D03*
X67945000Y-114935000D03*
X66675000Y-114935000D03*
X65405000Y-114935000D03*
X65405000Y-108585000D03*
X66675000Y-108585000D03*
X67945000Y-108585000D03*
X69215000Y-108585000D03*
D20*
X59944000Y-121259600D03*
X59944000Y-122580400D03*
X59944000Y-121920000D03*
X61976000Y-122580400D03*
X61976000Y-121259600D03*
D21*
X52070000Y-110490000D03*
X52070000Y-111760000D03*
X52070000Y-109220000D03*
D22*
X68580000Y-116332000D03*
X61976000Y-118872000D03*
X55880000Y-114046000D03*
D23*
X76962000Y-101580000D02*
X73680000Y-101580000D01*
X73680000Y-101580000D02*
X73660000Y-101600000D01*
X62230000Y-101600000D02*
X62230000Y-105390000D01*
X62230000Y-105390000D02*
X62250000Y-105410000D01*
X59944000Y-121920000D02*
X57170000Y-121920000D01*
X57170000Y-121920000D02*
X55880000Y-120630000D01*
X59690000Y-116920000D02*
X64436000Y-116920000D01*
X65405000Y-115951000D02*
X65405000Y-114935000D01*
X64436000Y-116920000D02*
X65405000Y-115951000D01*
X62250000Y-105410000D02*
X62250000Y-107716000D01*
X63119000Y-108585000D02*
X65405000Y-108585000D01*
X62250000Y-107716000D02*
X63119000Y-108585000D01*
X59690000Y-116920000D02*
X59690000Y-118872000D01*
X57932000Y-120630000D02*
X55880000Y-120630000D01*
X59690000Y-118872000D02*
X57932000Y-120630000D01*
X55880000Y-120630000D02*
X55880000Y-124380000D01*
X52070000Y-111760000D02*
X52070000Y-119634000D01*
X52070000Y-119634000D02*
X53066000Y-120630000D01*
X53066000Y-120630000D02*
X55880000Y-120630000D01*
X82550000Y-120650000D02*
X78820000Y-120650000D01*
X78820000Y-120650000D02*
X78740000Y-120730000D01*
X82550000Y-123190000D02*
X82550000Y-120650000D01*
X62230000Y-105390000D02*
X62250000Y-105410000D01*
X48240000Y-111760000D02*
X52070000Y-111760000D01*
X52070000Y-99060000D02*
X49276000Y-99060000D01*
X48260000Y-100076000D02*
X48260000Y-109240000D01*
X49276000Y-99060000D02*
X48260000Y-100076000D01*
X69215000Y-114935000D02*
X69215000Y-115697000D01*
X69215000Y-115697000D02*
X68580000Y-116332000D01*
X61976000Y-121259600D02*
X61976000Y-118872000D01*
X55880000Y-118130000D02*
X55880000Y-114046000D01*
X76962000Y-99080000D02*
X76962000Y-96012000D01*
X64750000Y-97048000D02*
X64750000Y-105410000D01*
X66294000Y-95504000D02*
X64750000Y-97048000D01*
X76454000Y-95504000D02*
X66294000Y-95504000D01*
X76962000Y-96012000D02*
X76454000Y-95504000D01*
X76962000Y-99080000D02*
X79990000Y-99080000D01*
X79990000Y-99080000D02*
X80010000Y-99060000D01*
X48240000Y-109220000D02*
X52070000Y-109220000D01*
D24*
X80010000Y-101600000D02*
X80010000Y-106951780D01*
X69215000Y-108585000D02*
X69215000Y-100457000D01*
X70612000Y-99060000D02*
X73660000Y-99060000D01*
X69215000Y-100457000D02*
X70612000Y-99060000D01*
X69215000Y-108585000D02*
X78694240Y-108585000D01*
X78694240Y-108585000D02*
X79060000Y-108950760D01*
X52070000Y-110490000D02*
X57070000Y-110490000D01*
X57070000Y-110490000D02*
X57070000Y-100664000D01*
X57070000Y-100664000D02*
X58674000Y-99060000D01*
X58674000Y-99060000D02*
X62230000Y-99060000D01*
X78740000Y-118030000D02*
X75090000Y-118030000D01*
X75090000Y-118030000D02*
X75010000Y-118110000D01*
X82550000Y-118110000D02*
X78820000Y-118110000D01*
X78820000Y-118110000D02*
X78740000Y-118030000D01*
X80960000Y-108950760D02*
X80960000Y-110932000D01*
X82550000Y-112522000D02*
X82550000Y-118110000D01*
X80960000Y-110932000D02*
X82550000Y-112522000D01*
D23*
X75090000Y-118030000D02*
X75010000Y-118110000D01*
X82470000Y-118030000D02*
X82550000Y-118110000D01*
D24*
X59770000Y-110490000D02*
X66040000Y-110490000D01*
X66675000Y-109855000D02*
X66675000Y-108585000D01*
X66040000Y-110490000D02*
X66675000Y-109855000D01*
X59770000Y-110490000D02*
X59770000Y-114140000D01*
D23*
X59770000Y-114140000D02*
X59690000Y-114220000D01*
D24*
X67945000Y-108585000D02*
X67945000Y-109855000D01*
X68500000Y-110410000D02*
X73486000Y-110410000D01*
X67945000Y-109855000D02*
X68500000Y-110410000D01*
X72310000Y-118110000D02*
X72310000Y-111586000D01*
X73486000Y-110410000D02*
X74930000Y-110410000D01*
X72310000Y-111586000D02*
X73486000Y-110410000D01*
X61976000Y-122580400D02*
X64109600Y-122580400D01*
X74930000Y-114046000D02*
X74930000Y-113110000D01*
X73660000Y-115316000D02*
X74930000Y-114046000D01*
X73660000Y-118872000D02*
X73660000Y-115316000D01*
X73152000Y-119380000D02*
X73660000Y-118872000D01*
X66294000Y-119380000D02*
X73152000Y-119380000D01*
X65786000Y-119888000D02*
X66294000Y-119380000D01*
X65786000Y-120904000D02*
X65786000Y-119888000D01*
X64109600Y-122580400D02*
X65786000Y-120904000D01*
X59944000Y-121259600D02*
X60553600Y-121259600D01*
X60553600Y-121259600D02*
X61874400Y-122580400D01*
X61874400Y-122580400D02*
X61976000Y-122580400D01*
X67310000Y-120730000D02*
X67310000Y-124380000D01*
X66675000Y-114935000D02*
X66675000Y-116459000D01*
X67310000Y-117094000D02*
X67310000Y-118030000D01*
X66675000Y-116459000D02*
X67310000Y-117094000D01*
X59610000Y-127000000D02*
X59610000Y-122914400D01*
X59610000Y-122914400D02*
X59944000Y-122580400D01*
X59610000Y-127000000D02*
X55960000Y-127000000D01*
X55960000Y-127000000D02*
X55880000Y-127080000D01*
D23*
X59530000Y-127080000D02*
X59610000Y-127000000D01*
D24*
X67310000Y-127080000D02*
X62390000Y-127080000D01*
X62390000Y-127080000D02*
X62310000Y-127000000D01*
D23*
X67230000Y-127000000D02*
X67310000Y-127080000D01*
D25*
G36*
X86691000Y-130633000D02*
X45643000Y-130633000D01*
X45643000Y-123503691D01*
X54595000Y-123503691D01*
X54595000Y-124094250D01*
X54753750Y-124253000D01*
X55753000Y-124253000D01*
X55753000Y-123153750D01*
X56007000Y-123153750D01*
X56007000Y-124253000D01*
X57006250Y-124253000D01*
X57165000Y-124094250D01*
X57165000Y-123503691D01*
X57068327Y-123270302D01*
X56889699Y-123091673D01*
X56656310Y-122995000D01*
X56165750Y-122995000D01*
X56007000Y-123153750D01*
X55753000Y-123153750D01*
X55594250Y-122995000D01*
X55103690Y-122995000D01*
X54870301Y-123091673D01*
X54691673Y-123270302D01*
X54595000Y-123503691D01*
X45643000Y-123503691D01*
X45643000Y-120915750D01*
X54620000Y-120915750D01*
X54620000Y-121506309D01*
X54716673Y-121739698D01*
X54895301Y-121918327D01*
X55128690Y-122015000D01*
X55594250Y-122015000D01*
X55753000Y-121856250D01*
X55753000Y-120757000D01*
X56007000Y-120757000D01*
X56007000Y-121856250D01*
X56165750Y-122015000D01*
X56631310Y-122015000D01*
X56864699Y-121918327D01*
X57043327Y-121739698D01*
X57140000Y-121506309D01*
X57140000Y-120915750D01*
X56981250Y-120757000D01*
X56007000Y-120757000D01*
X55753000Y-120757000D01*
X54778750Y-120757000D01*
X54620000Y-120915750D01*
X45643000Y-120915750D01*
X45643000Y-117380000D01*
X54607560Y-117380000D01*
X54607560Y-118880000D01*
X54651838Y-119115317D01*
X54790910Y-119331441D01*
X54859006Y-119377969D01*
X54716673Y-119520302D01*
X54620000Y-119753691D01*
X54620000Y-120344250D01*
X54778750Y-120503000D01*
X55753000Y-120503000D01*
X55753000Y-120483000D01*
X56007000Y-120483000D01*
X56007000Y-120503000D01*
X56981250Y-120503000D01*
X57140000Y-120344250D01*
X57140000Y-119753691D01*
X57043327Y-119520302D01*
X56902090Y-119379064D01*
X56956441Y-119344090D01*
X57101431Y-119131890D01*
X57152440Y-118880000D01*
X57152440Y-117380000D01*
X57119653Y-117205750D01*
X58405000Y-117205750D01*
X58405000Y-117796309D01*
X58501673Y-118029698D01*
X58680301Y-118208327D01*
X58913690Y-118305000D01*
X59404250Y-118305000D01*
X59563000Y-118146250D01*
X59563000Y-117047000D01*
X59817000Y-117047000D01*
X59817000Y-118146250D01*
X59975750Y-118305000D01*
X60466310Y-118305000D01*
X60699699Y-118208327D01*
X60878327Y-118029698D01*
X60975000Y-117796309D01*
X60975000Y-117205750D01*
X60816250Y-117047000D01*
X59817000Y-117047000D01*
X59563000Y-117047000D01*
X58563750Y-117047000D01*
X58405000Y-117205750D01*
X57119653Y-117205750D01*
X57108162Y-117144683D01*
X56969090Y-116928559D01*
X56765000Y-116789110D01*
X56765000Y-114352822D01*
X56814838Y-114232799D01*
X56815162Y-113860833D01*
X56673117Y-113517057D01*
X56410327Y-113253808D01*
X56066799Y-113111162D01*
X55694833Y-113110838D01*
X55351057Y-113252883D01*
X55087808Y-113515673D01*
X54945162Y-113859201D01*
X54944838Y-114231167D01*
X54995000Y-114352569D01*
X54995000Y-116792721D01*
X54803559Y-116915910D01*
X54658569Y-117128110D01*
X54607560Y-117380000D01*
X45643000Y-117380000D01*
X45643000Y-112025750D01*
X47000000Y-112025750D01*
X47000000Y-112616309D01*
X47096673Y-112849698D01*
X47275301Y-113028327D01*
X47508690Y-113125000D01*
X47974250Y-113125000D01*
X48133000Y-112966250D01*
X48133000Y-111867000D01*
X48387000Y-111867000D01*
X48387000Y-112966250D01*
X48545750Y-113125000D01*
X49011310Y-113125000D01*
X49244699Y-113028327D01*
X49423327Y-112849698D01*
X49520000Y-112616309D01*
X49520000Y-112053935D01*
X50725019Y-112053935D01*
X50912294Y-112437111D01*
X51236627Y-112713420D01*
X51642010Y-112844580D01*
X51943000Y-112844580D01*
X51943000Y-111887000D01*
X52197000Y-111887000D01*
X52197000Y-112844580D01*
X52497990Y-112844580D01*
X52903373Y-112713420D01*
X53227706Y-112437111D01*
X53414981Y-112053935D01*
X53288068Y-111887000D01*
X52197000Y-111887000D01*
X51943000Y-111887000D01*
X50851932Y-111887000D01*
X50725019Y-112053935D01*
X49520000Y-112053935D01*
X49520000Y-112025750D01*
X49361250Y-111867000D01*
X48387000Y-111867000D01*
X48133000Y-111867000D01*
X47158750Y-111867000D01*
X47000000Y-112025750D01*
X45643000Y-112025750D01*
X45643000Y-108490000D01*
X46987560Y-108490000D01*
X46987560Y-109990000D01*
X47031838Y-110225317D01*
X47170910Y-110441441D01*
X47239006Y-110487969D01*
X47096673Y-110630302D01*
X47000000Y-110863691D01*
X47000000Y-111454250D01*
X47158750Y-111613000D01*
X48133000Y-111613000D01*
X48133000Y-111593000D01*
X48387000Y-111593000D01*
X48387000Y-111613000D01*
X49361250Y-111613000D01*
X49520000Y-111454250D01*
X49520000Y-110863691D01*
X49423327Y-110630302D01*
X49282090Y-110489064D01*
X49336441Y-110454090D01*
X49481431Y-110241890D01*
X49509152Y-110105000D01*
X50733866Y-110105000D01*
X50657285Y-110490000D01*
X50739844Y-110905051D01*
X50889641Y-111129238D01*
X50725019Y-111466065D01*
X50851932Y-111633000D01*
X51943000Y-111633000D01*
X51943000Y-111613000D01*
X52197000Y-111613000D01*
X52197000Y-111633000D01*
X53288068Y-111633000D01*
X53414981Y-111466065D01*
X53309381Y-111250000D01*
X55693258Y-111250000D01*
X55716838Y-111375317D01*
X55855910Y-111591441D01*
X56068110Y-111736431D01*
X56320000Y-111787440D01*
X57820000Y-111787440D01*
X58055317Y-111743162D01*
X58271441Y-111604090D01*
X58416431Y-111391890D01*
X58419081Y-111378803D01*
X58555910Y-111591441D01*
X58768110Y-111736431D01*
X59010000Y-111785415D01*
X59010000Y-112828205D01*
X58804683Y-112866838D01*
X58588559Y-113005910D01*
X58443569Y-113218110D01*
X58392560Y-113470000D01*
X58392560Y-114970000D01*
X58436838Y-115205317D01*
X58575910Y-115421441D01*
X58788110Y-115566431D01*
X58821490Y-115573191D01*
X58680301Y-115631673D01*
X58501673Y-115810302D01*
X58405000Y-116043691D01*
X58405000Y-116634250D01*
X58563750Y-116793000D01*
X59563000Y-116793000D01*
X59563000Y-116773000D01*
X59817000Y-116773000D01*
X59817000Y-116793000D01*
X60816250Y-116793000D01*
X60975000Y-116634250D01*
X60975000Y-116043691D01*
X60878327Y-115810302D01*
X60699699Y-115631673D01*
X60563713Y-115575346D01*
X60575317Y-115573162D01*
X60791441Y-115434090D01*
X60936431Y-115221890D01*
X60936661Y-115220750D01*
X64516000Y-115220750D01*
X64516000Y-115632810D01*
X64612673Y-115866199D01*
X64791302Y-116044827D01*
X65024691Y-116141500D01*
X65119250Y-116141500D01*
X65278000Y-115982750D01*
X65278000Y-115062000D01*
X64674750Y-115062000D01*
X64516000Y-115220750D01*
X60936661Y-115220750D01*
X60987440Y-114970000D01*
X60987440Y-114237190D01*
X64516000Y-114237190D01*
X64516000Y-114649250D01*
X64674750Y-114808000D01*
X65278000Y-114808000D01*
X65278000Y-113887250D01*
X65119250Y-113728500D01*
X65024691Y-113728500D01*
X64791302Y-113825173D01*
X64612673Y-114003801D01*
X64516000Y-114237190D01*
X60987440Y-114237190D01*
X60987440Y-113470000D01*
X60943162Y-113234683D01*
X60804090Y-113018559D01*
X60591890Y-112873569D01*
X60530000Y-112861036D01*
X60530000Y-111785558D01*
X60755317Y-111743162D01*
X60971441Y-111604090D01*
X61116431Y-111391890D01*
X61145164Y-111250000D01*
X66040000Y-111250000D01*
X66330839Y-111192148D01*
X66577401Y-111027401D01*
X67212401Y-110392401D01*
X67310000Y-110246333D01*
X67407599Y-110392401D01*
X67962599Y-110947401D01*
X68209161Y-111112148D01*
X68500000Y-111170000D01*
X71691482Y-111170000D01*
X71607852Y-111295161D01*
X71550000Y-111586000D01*
X71550000Y-116814442D01*
X71324683Y-116856838D01*
X71108559Y-116995910D01*
X70963569Y-117208110D01*
X70912560Y-117460000D01*
X70912560Y-118620000D01*
X68607440Y-118620000D01*
X68607440Y-117280000D01*
X68604998Y-117267022D01*
X68765167Y-117267162D01*
X69108943Y-117125117D01*
X69372192Y-116862327D01*
X69422566Y-116741014D01*
X69840787Y-116322792D01*
X69840790Y-116322790D01*
X70032633Y-116035675D01*
X70032634Y-116035674D01*
X70100001Y-115697000D01*
X70100000Y-115696995D01*
X70100000Y-115587683D01*
X70116440Y-115506500D01*
X70116440Y-114363500D01*
X70072162Y-114128183D01*
X69933090Y-113912059D01*
X69720890Y-113767069D01*
X69469000Y-113716060D01*
X68961000Y-113716060D01*
X68725683Y-113760338D01*
X68579093Y-113854666D01*
X68450890Y-113767069D01*
X68199000Y-113716060D01*
X67691000Y-113716060D01*
X67455683Y-113760338D01*
X67309093Y-113854666D01*
X67180890Y-113767069D01*
X66929000Y-113716060D01*
X66421000Y-113716060D01*
X66185683Y-113760338D01*
X66044629Y-113851104D01*
X66018698Y-113825173D01*
X65785309Y-113728500D01*
X65690750Y-113728500D01*
X65532000Y-113887250D01*
X65532000Y-114808000D01*
X65552000Y-114808000D01*
X65552000Y-115062000D01*
X65532000Y-115062000D01*
X65532000Y-115982750D01*
X65690750Y-116141500D01*
X65785309Y-116141500D01*
X65915000Y-116087780D01*
X65915000Y-116459000D01*
X65972852Y-116749839D01*
X66111709Y-116957654D01*
X66063569Y-117028110D01*
X66012560Y-117280000D01*
X66012560Y-118675982D01*
X66003161Y-118677852D01*
X65850285Y-118780000D01*
X65756599Y-118842599D01*
X65248599Y-119350599D01*
X65083852Y-119597161D01*
X65026000Y-119888000D01*
X65026000Y-120589198D01*
X63794798Y-121820400D01*
X62830402Y-121820400D01*
X62902631Y-121714690D01*
X62953640Y-121462800D01*
X62953640Y-121056400D01*
X62909362Y-120821083D01*
X62861000Y-120745926D01*
X62861000Y-119178822D01*
X62910838Y-119058799D01*
X62911162Y-118686833D01*
X62769117Y-118343057D01*
X62506327Y-118079808D01*
X62162799Y-117937162D01*
X61790833Y-117936838D01*
X61447057Y-118078883D01*
X61183808Y-118341673D01*
X61041162Y-118685201D01*
X61040838Y-119057167D01*
X61091000Y-119178569D01*
X61091000Y-120722198D01*
X60844439Y-120557452D01*
X60596614Y-120508156D01*
X60526090Y-120459969D01*
X60274200Y-120408960D01*
X59613800Y-120408960D01*
X59378483Y-120453238D01*
X59162359Y-120592310D01*
X59017369Y-120804510D01*
X58966360Y-121056400D01*
X58966360Y-121462800D01*
X58986767Y-121571256D01*
X58978800Y-121590491D01*
X58978800Y-121659650D01*
X59009102Y-121689952D01*
X59010638Y-121698117D01*
X59149710Y-121914241D01*
X59157806Y-121919773D01*
X59017369Y-122125310D01*
X59013187Y-122145963D01*
X58978800Y-122180350D01*
X58978800Y-122249509D01*
X58987812Y-122271266D01*
X58966360Y-122377200D01*
X58966360Y-122535997D01*
X58907852Y-122623561D01*
X58850000Y-122914400D01*
X58850000Y-125704442D01*
X58624683Y-125746838D01*
X58408559Y-125885910D01*
X58263569Y-126098110D01*
X58234836Y-126240000D01*
X57160505Y-126240000D01*
X57133162Y-126094683D01*
X56994090Y-125878559D01*
X56781890Y-125733569D01*
X56748510Y-125726809D01*
X56889699Y-125668327D01*
X57068327Y-125489698D01*
X57165000Y-125256309D01*
X57165000Y-124665750D01*
X57006250Y-124507000D01*
X56007000Y-124507000D01*
X56007000Y-124527000D01*
X55753000Y-124527000D01*
X55753000Y-124507000D01*
X54753750Y-124507000D01*
X54595000Y-124665750D01*
X54595000Y-125256309D01*
X54691673Y-125489698D01*
X54870301Y-125668327D01*
X55006287Y-125724654D01*
X54994683Y-125726838D01*
X54778559Y-125865910D01*
X54633569Y-126078110D01*
X54582560Y-126330000D01*
X54582560Y-127830000D01*
X54626838Y-128065317D01*
X54765910Y-128281441D01*
X54978110Y-128426431D01*
X55230000Y-128477440D01*
X56530000Y-128477440D01*
X56765317Y-128433162D01*
X56981441Y-128294090D01*
X57126431Y-128081890D01*
X57177440Y-127830000D01*
X57177440Y-127760000D01*
X58233258Y-127760000D01*
X58256838Y-127885317D01*
X58395910Y-128101441D01*
X58608110Y-128246431D01*
X58860000Y-128297440D01*
X60360000Y-128297440D01*
X60595317Y-128253162D01*
X60811441Y-128114090D01*
X60956431Y-127901890D01*
X60959081Y-127888803D01*
X61095910Y-128101441D01*
X61308110Y-128246431D01*
X61560000Y-128297440D01*
X63060000Y-128297440D01*
X63295317Y-128253162D01*
X63511441Y-128114090D01*
X63656431Y-127901890D01*
X63668964Y-127840000D01*
X66014442Y-127840000D01*
X66056838Y-128065317D01*
X66195910Y-128281441D01*
X66408110Y-128426431D01*
X66660000Y-128477440D01*
X67960000Y-128477440D01*
X68195317Y-128433162D01*
X68411441Y-128294090D01*
X68556431Y-128081890D01*
X68607440Y-127830000D01*
X68607440Y-126330000D01*
X68563162Y-126094683D01*
X68424090Y-125878559D01*
X68211890Y-125733569D01*
X68198803Y-125730919D01*
X68411441Y-125594090D01*
X68556431Y-125381890D01*
X68607440Y-125130000D01*
X68607440Y-124170213D01*
X81749392Y-124170213D01*
X81818857Y-124412397D01*
X82342302Y-124599144D01*
X82897368Y-124571362D01*
X83281143Y-124412397D01*
X83350608Y-124170213D01*
X82550000Y-123369605D01*
X81749392Y-124170213D01*
X68607440Y-124170213D01*
X68607440Y-123630000D01*
X68563162Y-123394683D01*
X68424090Y-123178559D01*
X68211890Y-123033569D01*
X68070000Y-123004836D01*
X68070000Y-122982302D01*
X81140856Y-122982302D01*
X81168638Y-123537368D01*
X81327603Y-123921143D01*
X81569787Y-123990608D01*
X82370395Y-123190000D01*
X82729605Y-123190000D01*
X83530213Y-123990608D01*
X83772397Y-123921143D01*
X83959144Y-123397698D01*
X83931362Y-122842632D01*
X83772397Y-122458857D01*
X83530213Y-122389392D01*
X82729605Y-123190000D01*
X82370395Y-123190000D01*
X81569787Y-122389392D01*
X81327603Y-122458857D01*
X81140856Y-122982302D01*
X68070000Y-122982302D01*
X68070000Y-122106742D01*
X68195317Y-122083162D01*
X68411441Y-121944090D01*
X68556431Y-121731890D01*
X68607440Y-121480000D01*
X68607440Y-121015750D01*
X77455000Y-121015750D01*
X77455000Y-121606309D01*
X77551673Y-121839698D01*
X77730301Y-122018327D01*
X77963690Y-122115000D01*
X78454250Y-122115000D01*
X78613000Y-121956250D01*
X78613000Y-120857000D01*
X78867000Y-120857000D01*
X78867000Y-121956250D01*
X79025750Y-122115000D01*
X79516310Y-122115000D01*
X79749699Y-122018327D01*
X79928327Y-121839698D01*
X80015098Y-121630213D01*
X81749392Y-121630213D01*
X81818857Y-121872397D01*
X81942344Y-121916453D01*
X81818857Y-121967603D01*
X81749392Y-122209787D01*
X82550000Y-123010395D01*
X83350608Y-122209787D01*
X83281143Y-121967603D01*
X83157656Y-121923547D01*
X83281143Y-121872397D01*
X83350608Y-121630213D01*
X82550000Y-120829605D01*
X81749392Y-121630213D01*
X80015098Y-121630213D01*
X80025000Y-121606309D01*
X80025000Y-121015750D01*
X79866250Y-120857000D01*
X78867000Y-120857000D01*
X78613000Y-120857000D01*
X77613750Y-120857000D01*
X77455000Y-121015750D01*
X68607440Y-121015750D01*
X68607440Y-120140000D01*
X73152000Y-120140000D01*
X73442839Y-120082148D01*
X73689401Y-119917401D01*
X74197401Y-119409401D01*
X74206016Y-119396508D01*
X74260000Y-119407440D01*
X75760000Y-119407440D01*
X75995317Y-119363162D01*
X76211441Y-119224090D01*
X76356431Y-119011890D01*
X76401365Y-118790000D01*
X77444442Y-118790000D01*
X77486838Y-119015317D01*
X77625910Y-119231441D01*
X77838110Y-119376431D01*
X77871490Y-119383191D01*
X77730301Y-119441673D01*
X77551673Y-119620302D01*
X77455000Y-119853691D01*
X77455000Y-120444250D01*
X77613750Y-120603000D01*
X78613000Y-120603000D01*
X78613000Y-120583000D01*
X78867000Y-120583000D01*
X78867000Y-120603000D01*
X79866250Y-120603000D01*
X80025000Y-120444250D01*
X80025000Y-120442302D01*
X81140856Y-120442302D01*
X81168638Y-120997368D01*
X81327603Y-121381143D01*
X81569787Y-121450608D01*
X82370395Y-120650000D01*
X82729605Y-120650000D01*
X83530213Y-121450608D01*
X83772397Y-121381143D01*
X83959144Y-120857698D01*
X83931362Y-120302632D01*
X83772397Y-119918857D01*
X83530213Y-119849392D01*
X82729605Y-120650000D01*
X82370395Y-120650000D01*
X81569787Y-119849392D01*
X81327603Y-119918857D01*
X81140856Y-120442302D01*
X80025000Y-120442302D01*
X80025000Y-119853691D01*
X79928327Y-119620302D01*
X79749699Y-119441673D01*
X79613713Y-119385346D01*
X79625317Y-119383162D01*
X79841441Y-119244090D01*
X79986431Y-119031890D01*
X80019215Y-118870000D01*
X81352469Y-118870000D01*
X81364990Y-118900303D01*
X81757630Y-119293629D01*
X81949727Y-119373395D01*
X81818857Y-119427603D01*
X81749392Y-119669787D01*
X82550000Y-120470395D01*
X83350608Y-119669787D01*
X83281143Y-119427603D01*
X83140682Y-119377491D01*
X83340303Y-119295010D01*
X83733629Y-118902370D01*
X83946757Y-118389100D01*
X83947242Y-117833339D01*
X83735010Y-117319697D01*
X83342370Y-116926371D01*
X83310000Y-116912930D01*
X83310000Y-112522000D01*
X83252148Y-112231161D01*
X83087401Y-111984599D01*
X81720000Y-110617198D01*
X81720000Y-109873773D01*
X81811491Y-109814900D01*
X81956481Y-109602700D01*
X82007490Y-109350810D01*
X82007490Y-108550710D01*
X81963212Y-108315393D01*
X81824140Y-108099269D01*
X81611940Y-107954279D01*
X81360050Y-107903270D01*
X80725745Y-107903270D01*
X80861491Y-107815920D01*
X81006481Y-107603720D01*
X81057490Y-107351830D01*
X81057490Y-106551730D01*
X81013212Y-106316413D01*
X80874140Y-106100289D01*
X80770000Y-106029133D01*
X80770000Y-103072016D01*
X81177433Y-102799778D01*
X81535325Y-102264155D01*
X81661000Y-101632345D01*
X81661000Y-101567655D01*
X81535325Y-100935845D01*
X81332996Y-100633038D01*
X81477441Y-100540090D01*
X81622431Y-100327890D01*
X81673440Y-100076000D01*
X81673440Y-98044000D01*
X81629162Y-97808683D01*
X81490090Y-97592559D01*
X81277890Y-97447569D01*
X81026000Y-97396560D01*
X78994000Y-97396560D01*
X78758683Y-97440838D01*
X78542559Y-97579910D01*
X78397569Y-97792110D01*
X78346560Y-98044000D01*
X78346560Y-98195000D01*
X78209038Y-98195000D01*
X78190162Y-98094683D01*
X78051090Y-97878559D01*
X77847000Y-97739110D01*
X77847000Y-96012000D01*
X77779633Y-95673325D01*
X77587790Y-95386210D01*
X77587787Y-95386208D01*
X77079790Y-94878210D01*
X76792675Y-94686367D01*
X76736484Y-94675190D01*
X76454000Y-94618999D01*
X76453995Y-94619000D01*
X66294005Y-94619000D01*
X66294000Y-94618999D01*
X66011516Y-94675190D01*
X65955325Y-94686367D01*
X65668210Y-94878210D01*
X65668208Y-94878213D01*
X64124210Y-96422210D01*
X63932367Y-96709325D01*
X63932367Y-96709326D01*
X63864999Y-97048000D01*
X63865000Y-97048005D01*
X63865000Y-97892855D01*
X63849162Y-97808683D01*
X63710090Y-97592559D01*
X63497890Y-97447569D01*
X63246000Y-97396560D01*
X61214000Y-97396560D01*
X60978683Y-97440838D01*
X60762559Y-97579910D01*
X60617569Y-97792110D01*
X60566560Y-98044000D01*
X60566560Y-98300000D01*
X58674000Y-98300000D01*
X58383161Y-98357852D01*
X58136599Y-98522599D01*
X56532599Y-100126599D01*
X56367852Y-100373161D01*
X56310000Y-100664000D01*
X56310000Y-109194442D01*
X56084683Y-109236838D01*
X55868559Y-109375910D01*
X55723569Y-109588110D01*
X55694836Y-109730000D01*
X53336713Y-109730000D01*
X53400156Y-109635051D01*
X53482715Y-109220000D01*
X53400156Y-108804949D01*
X53165049Y-108453086D01*
X52813186Y-108217979D01*
X52398135Y-108135420D01*
X51741865Y-108135420D01*
X51326814Y-108217979D01*
X51151679Y-108335000D01*
X49503275Y-108335000D01*
X49488162Y-108254683D01*
X49349090Y-108038559D01*
X49145000Y-107899110D01*
X49145000Y-101982946D01*
X50464017Y-101982946D01*
X50732812Y-102568379D01*
X51205182Y-103006385D01*
X51687056Y-103205975D01*
X51943000Y-103086836D01*
X51943000Y-101727000D01*
X52197000Y-101727000D01*
X52197000Y-103086836D01*
X52452944Y-103205975D01*
X52934818Y-103006385D01*
X53407188Y-102568379D01*
X53675983Y-101982946D01*
X53557367Y-101727000D01*
X52197000Y-101727000D01*
X51943000Y-101727000D01*
X50582633Y-101727000D01*
X50464017Y-101982946D01*
X49145000Y-101982946D01*
X49145000Y-100442580D01*
X49642579Y-99945000D01*
X50406560Y-99945000D01*
X50406560Y-100076000D01*
X50450838Y-100311317D01*
X50589910Y-100527441D01*
X50736872Y-100627856D01*
X50732812Y-100631621D01*
X50464017Y-101217054D01*
X50582633Y-101473000D01*
X51943000Y-101473000D01*
X51943000Y-101453000D01*
X52197000Y-101453000D01*
X52197000Y-101473000D01*
X53557367Y-101473000D01*
X53675983Y-101217054D01*
X53407188Y-100631621D01*
X53402276Y-100627066D01*
X53537441Y-100540090D01*
X53682431Y-100327890D01*
X53733440Y-100076000D01*
X53733440Y-98044000D01*
X53689162Y-97808683D01*
X53550090Y-97592559D01*
X53337890Y-97447569D01*
X53086000Y-97396560D01*
X51054000Y-97396560D01*
X50818683Y-97440838D01*
X50602559Y-97579910D01*
X50457569Y-97792110D01*
X50406560Y-98044000D01*
X50406560Y-98175000D01*
X49276005Y-98175000D01*
X49276000Y-98174999D01*
X48993516Y-98231190D01*
X48937325Y-98242367D01*
X48650210Y-98434210D01*
X48650208Y-98434213D01*
X47634210Y-99450210D01*
X47442367Y-99737325D01*
X47442367Y-99737326D01*
X47374999Y-100076000D01*
X47375000Y-100076005D01*
X47375000Y-107902721D01*
X47183559Y-108025910D01*
X47038569Y-108238110D01*
X46987560Y-108490000D01*
X45643000Y-108490000D01*
X45643000Y-92887000D01*
X86691000Y-92887000D01*
X86691000Y-130633000D01*
X86691000Y-130633000D01*
G37*
X86691000Y-130633000D02*
X45643000Y-130633000D01*
X45643000Y-123503691D01*
X54595000Y-123503691D01*
X54595000Y-124094250D01*
X54753750Y-124253000D01*
X55753000Y-124253000D01*
X55753000Y-123153750D01*
X56007000Y-123153750D01*
X56007000Y-124253000D01*
X57006250Y-124253000D01*
X57165000Y-124094250D01*
X57165000Y-123503691D01*
X57068327Y-123270302D01*
X56889699Y-123091673D01*
X56656310Y-122995000D01*
X56165750Y-122995000D01*
X56007000Y-123153750D01*
X55753000Y-123153750D01*
X55594250Y-122995000D01*
X55103690Y-122995000D01*
X54870301Y-123091673D01*
X54691673Y-123270302D01*
X54595000Y-123503691D01*
X45643000Y-123503691D01*
X45643000Y-120915750D01*
X54620000Y-120915750D01*
X54620000Y-121506309D01*
X54716673Y-121739698D01*
X54895301Y-121918327D01*
X55128690Y-122015000D01*
X55594250Y-122015000D01*
X55753000Y-121856250D01*
X55753000Y-120757000D01*
X56007000Y-120757000D01*
X56007000Y-121856250D01*
X56165750Y-122015000D01*
X56631310Y-122015000D01*
X56864699Y-121918327D01*
X57043327Y-121739698D01*
X57140000Y-121506309D01*
X57140000Y-120915750D01*
X56981250Y-120757000D01*
X56007000Y-120757000D01*
X55753000Y-120757000D01*
X54778750Y-120757000D01*
X54620000Y-120915750D01*
X45643000Y-120915750D01*
X45643000Y-117380000D01*
X54607560Y-117380000D01*
X54607560Y-118880000D01*
X54651838Y-119115317D01*
X54790910Y-119331441D01*
X54859006Y-119377969D01*
X54716673Y-119520302D01*
X54620000Y-119753691D01*
X54620000Y-120344250D01*
X54778750Y-120503000D01*
X55753000Y-120503000D01*
X55753000Y-120483000D01*
X56007000Y-120483000D01*
X56007000Y-120503000D01*
X56981250Y-120503000D01*
X57140000Y-120344250D01*
X57140000Y-119753691D01*
X57043327Y-119520302D01*
X56902090Y-119379064D01*
X56956441Y-119344090D01*
X57101431Y-119131890D01*
X57152440Y-118880000D01*
X57152440Y-117380000D01*
X57119653Y-117205750D01*
X58405000Y-117205750D01*
X58405000Y-117796309D01*
X58501673Y-118029698D01*
X58680301Y-118208327D01*
X58913690Y-118305000D01*
X59404250Y-118305000D01*
X59563000Y-118146250D01*
X59563000Y-117047000D01*
X59817000Y-117047000D01*
X59817000Y-118146250D01*
X59975750Y-118305000D01*
X60466310Y-118305000D01*
X60699699Y-118208327D01*
X60878327Y-118029698D01*
X60975000Y-117796309D01*
X60975000Y-117205750D01*
X60816250Y-117047000D01*
X59817000Y-117047000D01*
X59563000Y-117047000D01*
X58563750Y-117047000D01*
X58405000Y-117205750D01*
X57119653Y-117205750D01*
X57108162Y-117144683D01*
X56969090Y-116928559D01*
X56765000Y-116789110D01*
X56765000Y-114352822D01*
X56814838Y-114232799D01*
X56815162Y-113860833D01*
X56673117Y-113517057D01*
X56410327Y-113253808D01*
X56066799Y-113111162D01*
X55694833Y-113110838D01*
X55351057Y-113252883D01*
X55087808Y-113515673D01*
X54945162Y-113859201D01*
X54944838Y-114231167D01*
X54995000Y-114352569D01*
X54995000Y-116792721D01*
X54803559Y-116915910D01*
X54658569Y-117128110D01*
X54607560Y-117380000D01*
X45643000Y-117380000D01*
X45643000Y-112025750D01*
X47000000Y-112025750D01*
X47000000Y-112616309D01*
X47096673Y-112849698D01*
X47275301Y-113028327D01*
X47508690Y-113125000D01*
X47974250Y-113125000D01*
X48133000Y-112966250D01*
X48133000Y-111867000D01*
X48387000Y-111867000D01*
X48387000Y-112966250D01*
X48545750Y-113125000D01*
X49011310Y-113125000D01*
X49244699Y-113028327D01*
X49423327Y-112849698D01*
X49520000Y-112616309D01*
X49520000Y-112053935D01*
X50725019Y-112053935D01*
X50912294Y-112437111D01*
X51236627Y-112713420D01*
X51642010Y-112844580D01*
X51943000Y-112844580D01*
X51943000Y-111887000D01*
X52197000Y-111887000D01*
X52197000Y-112844580D01*
X52497990Y-112844580D01*
X52903373Y-112713420D01*
X53227706Y-112437111D01*
X53414981Y-112053935D01*
X53288068Y-111887000D01*
X52197000Y-111887000D01*
X51943000Y-111887000D01*
X50851932Y-111887000D01*
X50725019Y-112053935D01*
X49520000Y-112053935D01*
X49520000Y-112025750D01*
X49361250Y-111867000D01*
X48387000Y-111867000D01*
X48133000Y-111867000D01*
X47158750Y-111867000D01*
X47000000Y-112025750D01*
X45643000Y-112025750D01*
X45643000Y-108490000D01*
X46987560Y-108490000D01*
X46987560Y-109990000D01*
X47031838Y-110225317D01*
X47170910Y-110441441D01*
X47239006Y-110487969D01*
X47096673Y-110630302D01*
X47000000Y-110863691D01*
X47000000Y-111454250D01*
X47158750Y-111613000D01*
X48133000Y-111613000D01*
X48133000Y-111593000D01*
X48387000Y-111593000D01*
X48387000Y-111613000D01*
X49361250Y-111613000D01*
X49520000Y-111454250D01*
X49520000Y-110863691D01*
X49423327Y-110630302D01*
X49282090Y-110489064D01*
X49336441Y-110454090D01*
X49481431Y-110241890D01*
X49509152Y-110105000D01*
X50733866Y-110105000D01*
X50657285Y-110490000D01*
X50739844Y-110905051D01*
X50889641Y-111129238D01*
X50725019Y-111466065D01*
X50851932Y-111633000D01*
X51943000Y-111633000D01*
X51943000Y-111613000D01*
X52197000Y-111613000D01*
X52197000Y-111633000D01*
X53288068Y-111633000D01*
X53414981Y-111466065D01*
X53309381Y-111250000D01*
X55693258Y-111250000D01*
X55716838Y-111375317D01*
X55855910Y-111591441D01*
X56068110Y-111736431D01*
X56320000Y-111787440D01*
X57820000Y-111787440D01*
X58055317Y-111743162D01*
X58271441Y-111604090D01*
X58416431Y-111391890D01*
X58419081Y-111378803D01*
X58555910Y-111591441D01*
X58768110Y-111736431D01*
X59010000Y-111785415D01*
X59010000Y-112828205D01*
X58804683Y-112866838D01*
X58588559Y-113005910D01*
X58443569Y-113218110D01*
X58392560Y-113470000D01*
X58392560Y-114970000D01*
X58436838Y-115205317D01*
X58575910Y-115421441D01*
X58788110Y-115566431D01*
X58821490Y-115573191D01*
X58680301Y-115631673D01*
X58501673Y-115810302D01*
X58405000Y-116043691D01*
X58405000Y-116634250D01*
X58563750Y-116793000D01*
X59563000Y-116793000D01*
X59563000Y-116773000D01*
X59817000Y-116773000D01*
X59817000Y-116793000D01*
X60816250Y-116793000D01*
X60975000Y-116634250D01*
X60975000Y-116043691D01*
X60878327Y-115810302D01*
X60699699Y-115631673D01*
X60563713Y-115575346D01*
X60575317Y-115573162D01*
X60791441Y-115434090D01*
X60936431Y-115221890D01*
X60936661Y-115220750D01*
X64516000Y-115220750D01*
X64516000Y-115632810D01*
X64612673Y-115866199D01*
X64791302Y-116044827D01*
X65024691Y-116141500D01*
X65119250Y-116141500D01*
X65278000Y-115982750D01*
X65278000Y-115062000D01*
X64674750Y-115062000D01*
X64516000Y-115220750D01*
X60936661Y-115220750D01*
X60987440Y-114970000D01*
X60987440Y-114237190D01*
X64516000Y-114237190D01*
X64516000Y-114649250D01*
X64674750Y-114808000D01*
X65278000Y-114808000D01*
X65278000Y-113887250D01*
X65119250Y-113728500D01*
X65024691Y-113728500D01*
X64791302Y-113825173D01*
X64612673Y-114003801D01*
X64516000Y-114237190D01*
X60987440Y-114237190D01*
X60987440Y-113470000D01*
X60943162Y-113234683D01*
X60804090Y-113018559D01*
X60591890Y-112873569D01*
X60530000Y-112861036D01*
X60530000Y-111785558D01*
X60755317Y-111743162D01*
X60971441Y-111604090D01*
X61116431Y-111391890D01*
X61145164Y-111250000D01*
X66040000Y-111250000D01*
X66330839Y-111192148D01*
X66577401Y-111027401D01*
X67212401Y-110392401D01*
X67310000Y-110246333D01*
X67407599Y-110392401D01*
X67962599Y-110947401D01*
X68209161Y-111112148D01*
X68500000Y-111170000D01*
X71691482Y-111170000D01*
X71607852Y-111295161D01*
X71550000Y-111586000D01*
X71550000Y-116814442D01*
X71324683Y-116856838D01*
X71108559Y-116995910D01*
X70963569Y-117208110D01*
X70912560Y-117460000D01*
X70912560Y-118620000D01*
X68607440Y-118620000D01*
X68607440Y-117280000D01*
X68604998Y-117267022D01*
X68765167Y-117267162D01*
X69108943Y-117125117D01*
X69372192Y-116862327D01*
X69422566Y-116741014D01*
X69840787Y-116322792D01*
X69840790Y-116322790D01*
X70032633Y-116035675D01*
X70032634Y-116035674D01*
X70100001Y-115697000D01*
X70100000Y-115696995D01*
X70100000Y-115587683D01*
X70116440Y-115506500D01*
X70116440Y-114363500D01*
X70072162Y-114128183D01*
X69933090Y-113912059D01*
X69720890Y-113767069D01*
X69469000Y-113716060D01*
X68961000Y-113716060D01*
X68725683Y-113760338D01*
X68579093Y-113854666D01*
X68450890Y-113767069D01*
X68199000Y-113716060D01*
X67691000Y-113716060D01*
X67455683Y-113760338D01*
X67309093Y-113854666D01*
X67180890Y-113767069D01*
X66929000Y-113716060D01*
X66421000Y-113716060D01*
X66185683Y-113760338D01*
X66044629Y-113851104D01*
X66018698Y-113825173D01*
X65785309Y-113728500D01*
X65690750Y-113728500D01*
X65532000Y-113887250D01*
X65532000Y-114808000D01*
X65552000Y-114808000D01*
X65552000Y-115062000D01*
X65532000Y-115062000D01*
X65532000Y-115982750D01*
X65690750Y-116141500D01*
X65785309Y-116141500D01*
X65915000Y-116087780D01*
X65915000Y-116459000D01*
X65972852Y-116749839D01*
X66111709Y-116957654D01*
X66063569Y-117028110D01*
X66012560Y-117280000D01*
X66012560Y-118675982D01*
X66003161Y-118677852D01*
X65850285Y-118780000D01*
X65756599Y-118842599D01*
X65248599Y-119350599D01*
X65083852Y-119597161D01*
X65026000Y-119888000D01*
X65026000Y-120589198D01*
X63794798Y-121820400D01*
X62830402Y-121820400D01*
X62902631Y-121714690D01*
X62953640Y-121462800D01*
X62953640Y-121056400D01*
X62909362Y-120821083D01*
X62861000Y-120745926D01*
X62861000Y-119178822D01*
X62910838Y-119058799D01*
X62911162Y-118686833D01*
X62769117Y-118343057D01*
X62506327Y-118079808D01*
X62162799Y-117937162D01*
X61790833Y-117936838D01*
X61447057Y-118078883D01*
X61183808Y-118341673D01*
X61041162Y-118685201D01*
X61040838Y-119057167D01*
X61091000Y-119178569D01*
X61091000Y-120722198D01*
X60844439Y-120557452D01*
X60596614Y-120508156D01*
X60526090Y-120459969D01*
X60274200Y-120408960D01*
X59613800Y-120408960D01*
X59378483Y-120453238D01*
X59162359Y-120592310D01*
X59017369Y-120804510D01*
X58966360Y-121056400D01*
X58966360Y-121462800D01*
X58986767Y-121571256D01*
X58978800Y-121590491D01*
X58978800Y-121659650D01*
X59009102Y-121689952D01*
X59010638Y-121698117D01*
X59149710Y-121914241D01*
X59157806Y-121919773D01*
X59017369Y-122125310D01*
X59013187Y-122145963D01*
X58978800Y-122180350D01*
X58978800Y-122249509D01*
X58987812Y-122271266D01*
X58966360Y-122377200D01*
X58966360Y-122535997D01*
X58907852Y-122623561D01*
X58850000Y-122914400D01*
X58850000Y-125704442D01*
X58624683Y-125746838D01*
X58408559Y-125885910D01*
X58263569Y-126098110D01*
X58234836Y-126240000D01*
X57160505Y-126240000D01*
X57133162Y-126094683D01*
X56994090Y-125878559D01*
X56781890Y-125733569D01*
X56748510Y-125726809D01*
X56889699Y-125668327D01*
X57068327Y-125489698D01*
X57165000Y-125256309D01*
X57165000Y-124665750D01*
X57006250Y-124507000D01*
X56007000Y-124507000D01*
X56007000Y-124527000D01*
X55753000Y-124527000D01*
X55753000Y-124507000D01*
X54753750Y-124507000D01*
X54595000Y-124665750D01*
X54595000Y-125256309D01*
X54691673Y-125489698D01*
X54870301Y-125668327D01*
X55006287Y-125724654D01*
X54994683Y-125726838D01*
X54778559Y-125865910D01*
X54633569Y-126078110D01*
X54582560Y-126330000D01*
X54582560Y-127830000D01*
X54626838Y-128065317D01*
X54765910Y-128281441D01*
X54978110Y-128426431D01*
X55230000Y-128477440D01*
X56530000Y-128477440D01*
X56765317Y-128433162D01*
X56981441Y-128294090D01*
X57126431Y-128081890D01*
X57177440Y-127830000D01*
X57177440Y-127760000D01*
X58233258Y-127760000D01*
X58256838Y-127885317D01*
X58395910Y-128101441D01*
X58608110Y-128246431D01*
X58860000Y-128297440D01*
X60360000Y-128297440D01*
X60595317Y-128253162D01*
X60811441Y-128114090D01*
X60956431Y-127901890D01*
X60959081Y-127888803D01*
X61095910Y-128101441D01*
X61308110Y-128246431D01*
X61560000Y-128297440D01*
X63060000Y-128297440D01*
X63295317Y-128253162D01*
X63511441Y-128114090D01*
X63656431Y-127901890D01*
X63668964Y-127840000D01*
X66014442Y-127840000D01*
X66056838Y-128065317D01*
X66195910Y-128281441D01*
X66408110Y-128426431D01*
X66660000Y-128477440D01*
X67960000Y-128477440D01*
X68195317Y-128433162D01*
X68411441Y-128294090D01*
X68556431Y-128081890D01*
X68607440Y-127830000D01*
X68607440Y-126330000D01*
X68563162Y-126094683D01*
X68424090Y-125878559D01*
X68211890Y-125733569D01*
X68198803Y-125730919D01*
X68411441Y-125594090D01*
X68556431Y-125381890D01*
X68607440Y-125130000D01*
X68607440Y-124170213D01*
X81749392Y-124170213D01*
X81818857Y-124412397D01*
X82342302Y-124599144D01*
X82897368Y-124571362D01*
X83281143Y-124412397D01*
X83350608Y-124170213D01*
X82550000Y-123369605D01*
X81749392Y-124170213D01*
X68607440Y-124170213D01*
X68607440Y-123630000D01*
X68563162Y-123394683D01*
X68424090Y-123178559D01*
X68211890Y-123033569D01*
X68070000Y-123004836D01*
X68070000Y-122982302D01*
X81140856Y-122982302D01*
X81168638Y-123537368D01*
X81327603Y-123921143D01*
X81569787Y-123990608D01*
X82370395Y-123190000D01*
X82729605Y-123190000D01*
X83530213Y-123990608D01*
X83772397Y-123921143D01*
X83959144Y-123397698D01*
X83931362Y-122842632D01*
X83772397Y-122458857D01*
X83530213Y-122389392D01*
X82729605Y-123190000D01*
X82370395Y-123190000D01*
X81569787Y-122389392D01*
X81327603Y-122458857D01*
X81140856Y-122982302D01*
X68070000Y-122982302D01*
X68070000Y-122106742D01*
X68195317Y-122083162D01*
X68411441Y-121944090D01*
X68556431Y-121731890D01*
X68607440Y-121480000D01*
X68607440Y-121015750D01*
X77455000Y-121015750D01*
X77455000Y-121606309D01*
X77551673Y-121839698D01*
X77730301Y-122018327D01*
X77963690Y-122115000D01*
X78454250Y-122115000D01*
X78613000Y-121956250D01*
X78613000Y-120857000D01*
X78867000Y-120857000D01*
X78867000Y-121956250D01*
X79025750Y-122115000D01*
X79516310Y-122115000D01*
X79749699Y-122018327D01*
X79928327Y-121839698D01*
X80015098Y-121630213D01*
X81749392Y-121630213D01*
X81818857Y-121872397D01*
X81942344Y-121916453D01*
X81818857Y-121967603D01*
X81749392Y-122209787D01*
X82550000Y-123010395D01*
X83350608Y-122209787D01*
X83281143Y-121967603D01*
X83157656Y-121923547D01*
X83281143Y-121872397D01*
X83350608Y-121630213D01*
X82550000Y-120829605D01*
X81749392Y-121630213D01*
X80015098Y-121630213D01*
X80025000Y-121606309D01*
X80025000Y-121015750D01*
X79866250Y-120857000D01*
X78867000Y-120857000D01*
X78613000Y-120857000D01*
X77613750Y-120857000D01*
X77455000Y-121015750D01*
X68607440Y-121015750D01*
X68607440Y-120140000D01*
X73152000Y-120140000D01*
X73442839Y-120082148D01*
X73689401Y-119917401D01*
X74197401Y-119409401D01*
X74206016Y-119396508D01*
X74260000Y-119407440D01*
X75760000Y-119407440D01*
X75995317Y-119363162D01*
X76211441Y-119224090D01*
X76356431Y-119011890D01*
X76401365Y-118790000D01*
X77444442Y-118790000D01*
X77486838Y-119015317D01*
X77625910Y-119231441D01*
X77838110Y-119376431D01*
X77871490Y-119383191D01*
X77730301Y-119441673D01*
X77551673Y-119620302D01*
X77455000Y-119853691D01*
X77455000Y-120444250D01*
X77613750Y-120603000D01*
X78613000Y-120603000D01*
X78613000Y-120583000D01*
X78867000Y-120583000D01*
X78867000Y-120603000D01*
X79866250Y-120603000D01*
X80025000Y-120444250D01*
X80025000Y-120442302D01*
X81140856Y-120442302D01*
X81168638Y-120997368D01*
X81327603Y-121381143D01*
X81569787Y-121450608D01*
X82370395Y-120650000D01*
X82729605Y-120650000D01*
X83530213Y-121450608D01*
X83772397Y-121381143D01*
X83959144Y-120857698D01*
X83931362Y-120302632D01*
X83772397Y-119918857D01*
X83530213Y-119849392D01*
X82729605Y-120650000D01*
X82370395Y-120650000D01*
X81569787Y-119849392D01*
X81327603Y-119918857D01*
X81140856Y-120442302D01*
X80025000Y-120442302D01*
X80025000Y-119853691D01*
X79928327Y-119620302D01*
X79749699Y-119441673D01*
X79613713Y-119385346D01*
X79625317Y-119383162D01*
X79841441Y-119244090D01*
X79986431Y-119031890D01*
X80019215Y-118870000D01*
X81352469Y-118870000D01*
X81364990Y-118900303D01*
X81757630Y-119293629D01*
X81949727Y-119373395D01*
X81818857Y-119427603D01*
X81749392Y-119669787D01*
X82550000Y-120470395D01*
X83350608Y-119669787D01*
X83281143Y-119427603D01*
X83140682Y-119377491D01*
X83340303Y-119295010D01*
X83733629Y-118902370D01*
X83946757Y-118389100D01*
X83947242Y-117833339D01*
X83735010Y-117319697D01*
X83342370Y-116926371D01*
X83310000Y-116912930D01*
X83310000Y-112522000D01*
X83252148Y-112231161D01*
X83087401Y-111984599D01*
X81720000Y-110617198D01*
X81720000Y-109873773D01*
X81811491Y-109814900D01*
X81956481Y-109602700D01*
X82007490Y-109350810D01*
X82007490Y-108550710D01*
X81963212Y-108315393D01*
X81824140Y-108099269D01*
X81611940Y-107954279D01*
X81360050Y-107903270D01*
X80725745Y-107903270D01*
X80861491Y-107815920D01*
X81006481Y-107603720D01*
X81057490Y-107351830D01*
X81057490Y-106551730D01*
X81013212Y-106316413D01*
X80874140Y-106100289D01*
X80770000Y-106029133D01*
X80770000Y-103072016D01*
X81177433Y-102799778D01*
X81535325Y-102264155D01*
X81661000Y-101632345D01*
X81661000Y-101567655D01*
X81535325Y-100935845D01*
X81332996Y-100633038D01*
X81477441Y-100540090D01*
X81622431Y-100327890D01*
X81673440Y-100076000D01*
X81673440Y-98044000D01*
X81629162Y-97808683D01*
X81490090Y-97592559D01*
X81277890Y-97447569D01*
X81026000Y-97396560D01*
X78994000Y-97396560D01*
X78758683Y-97440838D01*
X78542559Y-97579910D01*
X78397569Y-97792110D01*
X78346560Y-98044000D01*
X78346560Y-98195000D01*
X78209038Y-98195000D01*
X78190162Y-98094683D01*
X78051090Y-97878559D01*
X77847000Y-97739110D01*
X77847000Y-96012000D01*
X77779633Y-95673325D01*
X77587790Y-95386210D01*
X77587787Y-95386208D01*
X77079790Y-94878210D01*
X76792675Y-94686367D01*
X76736484Y-94675190D01*
X76454000Y-94618999D01*
X76453995Y-94619000D01*
X66294005Y-94619000D01*
X66294000Y-94618999D01*
X66011516Y-94675190D01*
X65955325Y-94686367D01*
X65668210Y-94878210D01*
X65668208Y-94878213D01*
X64124210Y-96422210D01*
X63932367Y-96709325D01*
X63932367Y-96709326D01*
X63864999Y-97048000D01*
X63865000Y-97048005D01*
X63865000Y-97892855D01*
X63849162Y-97808683D01*
X63710090Y-97592559D01*
X63497890Y-97447569D01*
X63246000Y-97396560D01*
X61214000Y-97396560D01*
X60978683Y-97440838D01*
X60762559Y-97579910D01*
X60617569Y-97792110D01*
X60566560Y-98044000D01*
X60566560Y-98300000D01*
X58674000Y-98300000D01*
X58383161Y-98357852D01*
X58136599Y-98522599D01*
X56532599Y-100126599D01*
X56367852Y-100373161D01*
X56310000Y-100664000D01*
X56310000Y-109194442D01*
X56084683Y-109236838D01*
X55868559Y-109375910D01*
X55723569Y-109588110D01*
X55694836Y-109730000D01*
X53336713Y-109730000D01*
X53400156Y-109635051D01*
X53482715Y-109220000D01*
X53400156Y-108804949D01*
X53165049Y-108453086D01*
X52813186Y-108217979D01*
X52398135Y-108135420D01*
X51741865Y-108135420D01*
X51326814Y-108217979D01*
X51151679Y-108335000D01*
X49503275Y-108335000D01*
X49488162Y-108254683D01*
X49349090Y-108038559D01*
X49145000Y-107899110D01*
X49145000Y-101982946D01*
X50464017Y-101982946D01*
X50732812Y-102568379D01*
X51205182Y-103006385D01*
X51687056Y-103205975D01*
X51943000Y-103086836D01*
X51943000Y-101727000D01*
X52197000Y-101727000D01*
X52197000Y-103086836D01*
X52452944Y-103205975D01*
X52934818Y-103006385D01*
X53407188Y-102568379D01*
X53675983Y-101982946D01*
X53557367Y-101727000D01*
X52197000Y-101727000D01*
X51943000Y-101727000D01*
X50582633Y-101727000D01*
X50464017Y-101982946D01*
X49145000Y-101982946D01*
X49145000Y-100442580D01*
X49642579Y-99945000D01*
X50406560Y-99945000D01*
X50406560Y-100076000D01*
X50450838Y-100311317D01*
X50589910Y-100527441D01*
X50736872Y-100627856D01*
X50732812Y-100631621D01*
X50464017Y-101217054D01*
X50582633Y-101473000D01*
X51943000Y-101473000D01*
X51943000Y-101453000D01*
X52197000Y-101453000D01*
X52197000Y-101473000D01*
X53557367Y-101473000D01*
X53675983Y-101217054D01*
X53407188Y-100631621D01*
X53402276Y-100627066D01*
X53537441Y-100540090D01*
X53682431Y-100327890D01*
X53733440Y-100076000D01*
X53733440Y-98044000D01*
X53689162Y-97808683D01*
X53550090Y-97592559D01*
X53337890Y-97447569D01*
X53086000Y-97396560D01*
X51054000Y-97396560D01*
X50818683Y-97440838D01*
X50602559Y-97579910D01*
X50457569Y-97792110D01*
X50406560Y-98044000D01*
X50406560Y-98175000D01*
X49276005Y-98175000D01*
X49276000Y-98174999D01*
X48993516Y-98231190D01*
X48937325Y-98242367D01*
X48650210Y-98434210D01*
X48650208Y-98434213D01*
X47634210Y-99450210D01*
X47442367Y-99737325D01*
X47442367Y-99737326D01*
X47374999Y-100076000D01*
X47375000Y-100076005D01*
X47375000Y-107902721D01*
X47183559Y-108025910D01*
X47038569Y-108238110D01*
X46987560Y-108490000D01*
X45643000Y-108490000D01*
X45643000Y-92887000D01*
X86691000Y-92887000D01*
X86691000Y-130633000D01*
G36*
X76077000Y-97742721D02*
X75885559Y-97865910D01*
X75740569Y-98078110D01*
X75689560Y-98330000D01*
X75689560Y-99830000D01*
X75733838Y-100065317D01*
X75872910Y-100281441D01*
X75941006Y-100327969D01*
X75798673Y-100470302D01*
X75702000Y-100703691D01*
X75702000Y-101294250D01*
X75860750Y-101453000D01*
X76835000Y-101453000D01*
X76835000Y-101433000D01*
X77089000Y-101433000D01*
X77089000Y-101453000D01*
X78063250Y-101453000D01*
X78222000Y-101294250D01*
X78222000Y-100703691D01*
X78125327Y-100470302D01*
X77984090Y-100329064D01*
X78038441Y-100294090D01*
X78183431Y-100081890D01*
X78207102Y-99965000D01*
X78346560Y-99965000D01*
X78346560Y-100076000D01*
X78390838Y-100311317D01*
X78529910Y-100527441D01*
X78686206Y-100634233D01*
X78484675Y-100935845D01*
X78359000Y-101567655D01*
X78359000Y-101632345D01*
X78484675Y-102264155D01*
X78842567Y-102799778D01*
X79250000Y-103072016D01*
X79250000Y-106028767D01*
X79158509Y-106087640D01*
X79013519Y-106299840D01*
X78962510Y-106551730D01*
X78962510Y-107351830D01*
X79006788Y-107587147D01*
X79145860Y-107803271D01*
X79292213Y-107903270D01*
X79015637Y-107903270D01*
X78985079Y-107882852D01*
X78694240Y-107825000D01*
X70080971Y-107825000D01*
X70072162Y-107778183D01*
X69975000Y-107627189D01*
X69975000Y-101982946D01*
X72054017Y-101982946D01*
X72322812Y-102568379D01*
X72795182Y-103006385D01*
X73277056Y-103205975D01*
X73533000Y-103086836D01*
X73533000Y-101727000D01*
X73787000Y-101727000D01*
X73787000Y-103086836D01*
X74042944Y-103205975D01*
X74524818Y-103006385D01*
X74997188Y-102568379D01*
X75265983Y-101982946D01*
X75211670Y-101865750D01*
X75702000Y-101865750D01*
X75702000Y-102456309D01*
X75798673Y-102689698D01*
X75977301Y-102868327D01*
X76210690Y-102965000D01*
X76676250Y-102965000D01*
X76835000Y-102806250D01*
X76835000Y-101707000D01*
X77089000Y-101707000D01*
X77089000Y-102806250D01*
X77247750Y-102965000D01*
X77713310Y-102965000D01*
X77946699Y-102868327D01*
X78125327Y-102689698D01*
X78222000Y-102456309D01*
X78222000Y-101865750D01*
X78063250Y-101707000D01*
X77089000Y-101707000D01*
X76835000Y-101707000D01*
X75860750Y-101707000D01*
X75702000Y-101865750D01*
X75211670Y-101865750D01*
X75147367Y-101727000D01*
X73787000Y-101727000D01*
X73533000Y-101727000D01*
X72172633Y-101727000D01*
X72054017Y-101982946D01*
X69975000Y-101982946D01*
X69975000Y-100771802D01*
X70926802Y-99820000D01*
X71996560Y-99820000D01*
X71996560Y-100076000D01*
X72040838Y-100311317D01*
X72179910Y-100527441D01*
X72326872Y-100627856D01*
X72322812Y-100631621D01*
X72054017Y-101217054D01*
X72172633Y-101473000D01*
X73533000Y-101473000D01*
X73533000Y-101453000D01*
X73787000Y-101453000D01*
X73787000Y-101473000D01*
X75147367Y-101473000D01*
X75265983Y-101217054D01*
X74997188Y-100631621D01*
X74992276Y-100627066D01*
X75127441Y-100540090D01*
X75272431Y-100327890D01*
X75323440Y-100076000D01*
X75323440Y-98044000D01*
X75279162Y-97808683D01*
X75140090Y-97592559D01*
X74927890Y-97447569D01*
X74676000Y-97396560D01*
X72644000Y-97396560D01*
X72408683Y-97440838D01*
X72192559Y-97579910D01*
X72047569Y-97792110D01*
X71996560Y-98044000D01*
X71996560Y-98300000D01*
X70612000Y-98300000D01*
X70321160Y-98357852D01*
X70074599Y-98522599D01*
X68677599Y-99919599D01*
X68512852Y-100166161D01*
X68455000Y-100457000D01*
X68455000Y-107419877D01*
X68450890Y-107417069D01*
X68199000Y-107366060D01*
X67691000Y-107366060D01*
X67455683Y-107410338D01*
X67309093Y-107504666D01*
X67180890Y-107417069D01*
X66929000Y-107366060D01*
X66421000Y-107366060D01*
X66185683Y-107410338D01*
X66044629Y-107501104D01*
X66018698Y-107475173D01*
X65785309Y-107378500D01*
X65690750Y-107378500D01*
X65532000Y-107537250D01*
X65532000Y-108458000D01*
X65552000Y-108458000D01*
X65552000Y-108712000D01*
X65532000Y-108712000D01*
X65532000Y-108732000D01*
X65278000Y-108732000D01*
X65278000Y-108712000D01*
X64674750Y-108712000D01*
X64516000Y-108870750D01*
X64516000Y-109282810D01*
X64612673Y-109516199D01*
X64791302Y-109694827D01*
X64876217Y-109730000D01*
X61146742Y-109730000D01*
X61123162Y-109604683D01*
X60984090Y-109388559D01*
X60771890Y-109243569D01*
X60520000Y-109192560D01*
X59020000Y-109192560D01*
X58784683Y-109236838D01*
X58568559Y-109375910D01*
X58423569Y-109588110D01*
X58420919Y-109601197D01*
X58284090Y-109388559D01*
X58071890Y-109243569D01*
X57830000Y-109194585D01*
X57830000Y-107887190D01*
X64516000Y-107887190D01*
X64516000Y-108299250D01*
X64674750Y-108458000D01*
X65278000Y-108458000D01*
X65278000Y-107537250D01*
X65119250Y-107378500D01*
X65024691Y-107378500D01*
X64791302Y-107475173D01*
X64612673Y-107653801D01*
X64516000Y-107887190D01*
X57830000Y-107887190D01*
X57830000Y-105695750D01*
X60865000Y-105695750D01*
X60865000Y-106161310D01*
X60961673Y-106394699D01*
X61140302Y-106573327D01*
X61373691Y-106670000D01*
X61964250Y-106670000D01*
X62123000Y-106511250D01*
X62123000Y-105537000D01*
X61023750Y-105537000D01*
X60865000Y-105695750D01*
X57830000Y-105695750D01*
X57830000Y-104658690D01*
X60865000Y-104658690D01*
X60865000Y-105124250D01*
X61023750Y-105283000D01*
X62123000Y-105283000D01*
X62123000Y-104308750D01*
X61964250Y-104150000D01*
X61373691Y-104150000D01*
X61140302Y-104246673D01*
X60961673Y-104425301D01*
X60865000Y-104658690D01*
X57830000Y-104658690D01*
X57830000Y-101982946D01*
X60624017Y-101982946D01*
X60892812Y-102568379D01*
X61365182Y-103006385D01*
X61847056Y-103205975D01*
X62103000Y-103086836D01*
X62103000Y-101727000D01*
X60742633Y-101727000D01*
X60624017Y-101982946D01*
X57830000Y-101982946D01*
X57830000Y-100978802D01*
X58988802Y-99820000D01*
X60566560Y-99820000D01*
X60566560Y-100076000D01*
X60610838Y-100311317D01*
X60749910Y-100527441D01*
X60896872Y-100627856D01*
X60892812Y-100631621D01*
X60624017Y-101217054D01*
X60742633Y-101473000D01*
X62103000Y-101473000D01*
X62103000Y-101453000D01*
X62357000Y-101453000D01*
X62357000Y-101473000D01*
X62377000Y-101473000D01*
X62377000Y-101727000D01*
X62357000Y-101727000D01*
X62357000Y-103086836D01*
X62612944Y-103205975D01*
X63094818Y-103006385D01*
X63567188Y-102568379D01*
X63835983Y-101982946D01*
X63717368Y-101727002D01*
X63865000Y-101727002D01*
X63865000Y-104162962D01*
X63764683Y-104181838D01*
X63548559Y-104320910D01*
X63502031Y-104389006D01*
X63359698Y-104246673D01*
X63126309Y-104150000D01*
X62535750Y-104150000D01*
X62377000Y-104308750D01*
X62377000Y-105283000D01*
X62397000Y-105283000D01*
X62397000Y-105537000D01*
X62377000Y-105537000D01*
X62377000Y-106511250D01*
X62535750Y-106670000D01*
X63126309Y-106670000D01*
X63359698Y-106573327D01*
X63500936Y-106432090D01*
X63535910Y-106486441D01*
X63748110Y-106631431D01*
X64000000Y-106682440D01*
X65500000Y-106682440D01*
X65735317Y-106638162D01*
X65951441Y-106499090D01*
X66096431Y-106286890D01*
X66147440Y-106035000D01*
X66147440Y-104785000D01*
X66103162Y-104549683D01*
X65964090Y-104333559D01*
X65751890Y-104188569D01*
X65635000Y-104164898D01*
X65635000Y-97414580D01*
X66660579Y-96389000D01*
X76077000Y-96389000D01*
X76077000Y-97742721D01*
X76077000Y-97742721D01*
G37*
X76077000Y-97742721D02*
X75885559Y-97865910D01*
X75740569Y-98078110D01*
X75689560Y-98330000D01*
X75689560Y-99830000D01*
X75733838Y-100065317D01*
X75872910Y-100281441D01*
X75941006Y-100327969D01*
X75798673Y-100470302D01*
X75702000Y-100703691D01*
X75702000Y-101294250D01*
X75860750Y-101453000D01*
X76835000Y-101453000D01*
X76835000Y-101433000D01*
X77089000Y-101433000D01*
X77089000Y-101453000D01*
X78063250Y-101453000D01*
X78222000Y-101294250D01*
X78222000Y-100703691D01*
X78125327Y-100470302D01*
X77984090Y-100329064D01*
X78038441Y-100294090D01*
X78183431Y-100081890D01*
X78207102Y-99965000D01*
X78346560Y-99965000D01*
X78346560Y-100076000D01*
X78390838Y-100311317D01*
X78529910Y-100527441D01*
X78686206Y-100634233D01*
X78484675Y-100935845D01*
X78359000Y-101567655D01*
X78359000Y-101632345D01*
X78484675Y-102264155D01*
X78842567Y-102799778D01*
X79250000Y-103072016D01*
X79250000Y-106028767D01*
X79158509Y-106087640D01*
X79013519Y-106299840D01*
X78962510Y-106551730D01*
X78962510Y-107351830D01*
X79006788Y-107587147D01*
X79145860Y-107803271D01*
X79292213Y-107903270D01*
X79015637Y-107903270D01*
X78985079Y-107882852D01*
X78694240Y-107825000D01*
X70080971Y-107825000D01*
X70072162Y-107778183D01*
X69975000Y-107627189D01*
X69975000Y-101982946D01*
X72054017Y-101982946D01*
X72322812Y-102568379D01*
X72795182Y-103006385D01*
X73277056Y-103205975D01*
X73533000Y-103086836D01*
X73533000Y-101727000D01*
X73787000Y-101727000D01*
X73787000Y-103086836D01*
X74042944Y-103205975D01*
X74524818Y-103006385D01*
X74997188Y-102568379D01*
X75265983Y-101982946D01*
X75211670Y-101865750D01*
X75702000Y-101865750D01*
X75702000Y-102456309D01*
X75798673Y-102689698D01*
X75977301Y-102868327D01*
X76210690Y-102965000D01*
X76676250Y-102965000D01*
X76835000Y-102806250D01*
X76835000Y-101707000D01*
X77089000Y-101707000D01*
X77089000Y-102806250D01*
X77247750Y-102965000D01*
X77713310Y-102965000D01*
X77946699Y-102868327D01*
X78125327Y-102689698D01*
X78222000Y-102456309D01*
X78222000Y-101865750D01*
X78063250Y-101707000D01*
X77089000Y-101707000D01*
X76835000Y-101707000D01*
X75860750Y-101707000D01*
X75702000Y-101865750D01*
X75211670Y-101865750D01*
X75147367Y-101727000D01*
X73787000Y-101727000D01*
X73533000Y-101727000D01*
X72172633Y-101727000D01*
X72054017Y-101982946D01*
X69975000Y-101982946D01*
X69975000Y-100771802D01*
X70926802Y-99820000D01*
X71996560Y-99820000D01*
X71996560Y-100076000D01*
X72040838Y-100311317D01*
X72179910Y-100527441D01*
X72326872Y-100627856D01*
X72322812Y-100631621D01*
X72054017Y-101217054D01*
X72172633Y-101473000D01*
X73533000Y-101473000D01*
X73533000Y-101453000D01*
X73787000Y-101453000D01*
X73787000Y-101473000D01*
X75147367Y-101473000D01*
X75265983Y-101217054D01*
X74997188Y-100631621D01*
X74992276Y-100627066D01*
X75127441Y-100540090D01*
X75272431Y-100327890D01*
X75323440Y-100076000D01*
X75323440Y-98044000D01*
X75279162Y-97808683D01*
X75140090Y-97592559D01*
X74927890Y-97447569D01*
X74676000Y-97396560D01*
X72644000Y-97396560D01*
X72408683Y-97440838D01*
X72192559Y-97579910D01*
X72047569Y-97792110D01*
X71996560Y-98044000D01*
X71996560Y-98300000D01*
X70612000Y-98300000D01*
X70321160Y-98357852D01*
X70074599Y-98522599D01*
X68677599Y-99919599D01*
X68512852Y-100166161D01*
X68455000Y-100457000D01*
X68455000Y-107419877D01*
X68450890Y-107417069D01*
X68199000Y-107366060D01*
X67691000Y-107366060D01*
X67455683Y-107410338D01*
X67309093Y-107504666D01*
X67180890Y-107417069D01*
X66929000Y-107366060D01*
X66421000Y-107366060D01*
X66185683Y-107410338D01*
X66044629Y-107501104D01*
X66018698Y-107475173D01*
X65785309Y-107378500D01*
X65690750Y-107378500D01*
X65532000Y-107537250D01*
X65532000Y-108458000D01*
X65552000Y-108458000D01*
X65552000Y-108712000D01*
X65532000Y-108712000D01*
X65532000Y-108732000D01*
X65278000Y-108732000D01*
X65278000Y-108712000D01*
X64674750Y-108712000D01*
X64516000Y-108870750D01*
X64516000Y-109282810D01*
X64612673Y-109516199D01*
X64791302Y-109694827D01*
X64876217Y-109730000D01*
X61146742Y-109730000D01*
X61123162Y-109604683D01*
X60984090Y-109388559D01*
X60771890Y-109243569D01*
X60520000Y-109192560D01*
X59020000Y-109192560D01*
X58784683Y-109236838D01*
X58568559Y-109375910D01*
X58423569Y-109588110D01*
X58420919Y-109601197D01*
X58284090Y-109388559D01*
X58071890Y-109243569D01*
X57830000Y-109194585D01*
X57830000Y-107887190D01*
X64516000Y-107887190D01*
X64516000Y-108299250D01*
X64674750Y-108458000D01*
X65278000Y-108458000D01*
X65278000Y-107537250D01*
X65119250Y-107378500D01*
X65024691Y-107378500D01*
X64791302Y-107475173D01*
X64612673Y-107653801D01*
X64516000Y-107887190D01*
X57830000Y-107887190D01*
X57830000Y-105695750D01*
X60865000Y-105695750D01*
X60865000Y-106161310D01*
X60961673Y-106394699D01*
X61140302Y-106573327D01*
X61373691Y-106670000D01*
X61964250Y-106670000D01*
X62123000Y-106511250D01*
X62123000Y-105537000D01*
X61023750Y-105537000D01*
X60865000Y-105695750D01*
X57830000Y-105695750D01*
X57830000Y-104658690D01*
X60865000Y-104658690D01*
X60865000Y-105124250D01*
X61023750Y-105283000D01*
X62123000Y-105283000D01*
X62123000Y-104308750D01*
X61964250Y-104150000D01*
X61373691Y-104150000D01*
X61140302Y-104246673D01*
X60961673Y-104425301D01*
X60865000Y-104658690D01*
X57830000Y-104658690D01*
X57830000Y-101982946D01*
X60624017Y-101982946D01*
X60892812Y-102568379D01*
X61365182Y-103006385D01*
X61847056Y-103205975D01*
X62103000Y-103086836D01*
X62103000Y-101727000D01*
X60742633Y-101727000D01*
X60624017Y-101982946D01*
X57830000Y-101982946D01*
X57830000Y-100978802D01*
X58988802Y-99820000D01*
X60566560Y-99820000D01*
X60566560Y-100076000D01*
X60610838Y-100311317D01*
X60749910Y-100527441D01*
X60896872Y-100627856D01*
X60892812Y-100631621D01*
X60624017Y-101217054D01*
X60742633Y-101473000D01*
X62103000Y-101473000D01*
X62103000Y-101453000D01*
X62357000Y-101453000D01*
X62357000Y-101473000D01*
X62377000Y-101473000D01*
X62377000Y-101727000D01*
X62357000Y-101727000D01*
X62357000Y-103086836D01*
X62612944Y-103205975D01*
X63094818Y-103006385D01*
X63567188Y-102568379D01*
X63835983Y-101982946D01*
X63717368Y-101727002D01*
X63865000Y-101727002D01*
X63865000Y-104162962D01*
X63764683Y-104181838D01*
X63548559Y-104320910D01*
X63502031Y-104389006D01*
X63359698Y-104246673D01*
X63126309Y-104150000D01*
X62535750Y-104150000D01*
X62377000Y-104308750D01*
X62377000Y-105283000D01*
X62397000Y-105283000D01*
X62397000Y-105537000D01*
X62377000Y-105537000D01*
X62377000Y-106511250D01*
X62535750Y-106670000D01*
X63126309Y-106670000D01*
X63359698Y-106573327D01*
X63500936Y-106432090D01*
X63535910Y-106486441D01*
X63748110Y-106631431D01*
X64000000Y-106682440D01*
X65500000Y-106682440D01*
X65735317Y-106638162D01*
X65951441Y-106499090D01*
X66096431Y-106286890D01*
X66147440Y-106035000D01*
X66147440Y-104785000D01*
X66103162Y-104549683D01*
X65964090Y-104333559D01*
X65751890Y-104188569D01*
X65635000Y-104164898D01*
X65635000Y-97414580D01*
X66660579Y-96389000D01*
X76077000Y-96389000D01*
X76077000Y-97742721D01*
M02*
