G04 #@! TF.FileFunction,Copper,L2,Bot,Signal*
%FSLAX46Y46*%
G04 Gerber Fmt 4.6, Leading zero omitted, Abs format (unit mm)*
G04 Created by KiCad (PCBNEW 4.0.2-stable) date Tuesday, May 17, 2016 'PMt' 02:24:59 PM*
%MOMM*%
G01*
G04 APERTURE LIST*
%ADD10C,0.100000*%
%ADD11R,2.032000X2.032000*%
%ADD12O,2.032000X2.032000*%
%ADD13C,1.524000*%
%ADD14O,1.501140X0.899160*%
%ADD15R,1.727200X2.032000*%
%ADD16O,1.727200X2.032000*%
%ADD17C,0.600000*%
%ADD18C,0.254000*%
G04 APERTURE END LIST*
D10*
D11*
X140716000Y-94742000D03*
D12*
X140716000Y-97282000D03*
D13*
X140208000Y-108712000D03*
X140208000Y-111252000D03*
X140208000Y-106172000D03*
D14*
X120142000Y-102870000D03*
X120142000Y-104140000D03*
X120142000Y-101600000D03*
D15*
X123444000Y-93980000D03*
D16*
X125984000Y-93980000D03*
X128524000Y-93980000D03*
X131064000Y-93980000D03*
D17*
X122783600Y-110159800D03*
X134112000Y-108966000D03*
D18*
G36*
X142621000Y-115189000D02*
X117983000Y-115189000D01*
X117983000Y-111467665D01*
X139118811Y-111467665D01*
X139284252Y-111868063D01*
X139590326Y-112174671D01*
X139990434Y-112340811D01*
X140423665Y-112341189D01*
X140824063Y-112175748D01*
X141130671Y-111869674D01*
X141296811Y-111469566D01*
X141297189Y-111036335D01*
X141131748Y-110635937D01*
X140825674Y-110329329D01*
X140425566Y-110163189D01*
X139992335Y-110162811D01*
X139591937Y-110328252D01*
X139285329Y-110634326D01*
X139119189Y-111034434D01*
X139118811Y-111467665D01*
X117983000Y-111467665D01*
X117983000Y-108927665D01*
X139118811Y-108927665D01*
X139284252Y-109328063D01*
X139590326Y-109634671D01*
X139990434Y-109800811D01*
X140423665Y-109801189D01*
X140824063Y-109635748D01*
X141130671Y-109329674D01*
X141296811Y-108929566D01*
X141297189Y-108496335D01*
X141131748Y-108095937D01*
X140825674Y-107789329D01*
X140425566Y-107623189D01*
X139992335Y-107622811D01*
X139591937Y-107788252D01*
X139285329Y-108094326D01*
X139119189Y-108494434D01*
X139118811Y-108927665D01*
X117983000Y-108927665D01*
X117983000Y-106387665D01*
X139118811Y-106387665D01*
X139284252Y-106788063D01*
X139590326Y-107094671D01*
X139990434Y-107260811D01*
X140423665Y-107261189D01*
X140824063Y-107095748D01*
X141130671Y-106789674D01*
X141296811Y-106389566D01*
X141297189Y-105956335D01*
X141131748Y-105555937D01*
X140825674Y-105249329D01*
X140425566Y-105083189D01*
X139992335Y-105082811D01*
X139591937Y-105248252D01*
X139285329Y-105554326D01*
X139119189Y-105954434D01*
X139118811Y-106387665D01*
X117983000Y-106387665D01*
X117983000Y-101893935D01*
X118797019Y-101893935D01*
X118984294Y-102277111D01*
X119185488Y-102448514D01*
X119102433Y-102572816D01*
X119043319Y-102870000D01*
X119102433Y-103167184D01*
X119270774Y-103419125D01*
X119399295Y-103505000D01*
X119270774Y-103590875D01*
X119102433Y-103842816D01*
X119043319Y-104140000D01*
X119102433Y-104437184D01*
X119270774Y-104689125D01*
X119522715Y-104857466D01*
X119819899Y-104916580D01*
X120464101Y-104916580D01*
X120761285Y-104857466D01*
X121013226Y-104689125D01*
X121181567Y-104437184D01*
X121240681Y-104140000D01*
X121181567Y-103842816D01*
X121013226Y-103590875D01*
X120884705Y-103505000D01*
X121013226Y-103419125D01*
X121181567Y-103167184D01*
X121240681Y-102870000D01*
X121181567Y-102572816D01*
X121098512Y-102448514D01*
X121299706Y-102277111D01*
X121486981Y-101893935D01*
X121360068Y-101727000D01*
X120269000Y-101727000D01*
X120269000Y-101747000D01*
X120015000Y-101747000D01*
X120015000Y-101727000D01*
X118923932Y-101727000D01*
X118797019Y-101893935D01*
X117983000Y-101893935D01*
X117983000Y-101306065D01*
X118797019Y-101306065D01*
X118923932Y-101473000D01*
X120015000Y-101473000D01*
X120015000Y-100515420D01*
X120269000Y-100515420D01*
X120269000Y-101473000D01*
X121360068Y-101473000D01*
X121486981Y-101306065D01*
X121299706Y-100922889D01*
X120975373Y-100646580D01*
X120569990Y-100515420D01*
X120269000Y-100515420D01*
X120015000Y-100515420D01*
X119714010Y-100515420D01*
X119308627Y-100646580D01*
X118984294Y-100922889D01*
X118797019Y-101306065D01*
X117983000Y-101306065D01*
X117983000Y-94265750D01*
X121945400Y-94265750D01*
X121945400Y-95122310D01*
X122042073Y-95355699D01*
X122220702Y-95534327D01*
X122454091Y-95631000D01*
X123158250Y-95631000D01*
X123317000Y-95472250D01*
X123317000Y-94107000D01*
X122104150Y-94107000D01*
X121945400Y-94265750D01*
X117983000Y-94265750D01*
X117983000Y-92837690D01*
X121945400Y-92837690D01*
X121945400Y-93694250D01*
X122104150Y-93853000D01*
X123317000Y-93853000D01*
X123317000Y-92487750D01*
X123571000Y-92487750D01*
X123571000Y-93853000D01*
X123591000Y-93853000D01*
X123591000Y-94107000D01*
X123571000Y-94107000D01*
X123571000Y-95472250D01*
X123729750Y-95631000D01*
X124433909Y-95631000D01*
X124667298Y-95534327D01*
X124845927Y-95355699D01*
X124942600Y-95122310D01*
X124942600Y-94701991D01*
X125142119Y-95000592D01*
X125528377Y-95258682D01*
X125984000Y-95349311D01*
X126439623Y-95258682D01*
X126825881Y-95000592D01*
X127083971Y-94614334D01*
X127174600Y-94158711D01*
X127174600Y-93801289D01*
X127333400Y-93801289D01*
X127333400Y-94158711D01*
X127424029Y-94614334D01*
X127682119Y-95000592D01*
X128068377Y-95258682D01*
X128524000Y-95349311D01*
X128979623Y-95258682D01*
X129365881Y-95000592D01*
X129623971Y-94614334D01*
X129714600Y-94158711D01*
X129714600Y-93801289D01*
X129873400Y-93801289D01*
X129873400Y-94158711D01*
X129964029Y-94614334D01*
X130222119Y-95000592D01*
X130608377Y-95258682D01*
X131064000Y-95349311D01*
X131519623Y-95258682D01*
X131865236Y-95027750D01*
X139065000Y-95027750D01*
X139065000Y-95884309D01*
X139161673Y-96117698D01*
X139340301Y-96296327D01*
X139573690Y-96393000D01*
X139708254Y-96393000D01*
X139475230Y-96741745D01*
X139373000Y-97255689D01*
X139373000Y-97308311D01*
X139475230Y-97822255D01*
X139766356Y-98257955D01*
X140202056Y-98549081D01*
X140716000Y-98651311D01*
X141229944Y-98549081D01*
X141665644Y-98257955D01*
X141956770Y-97822255D01*
X142059000Y-97308311D01*
X142059000Y-97255689D01*
X141956770Y-96741745D01*
X141723746Y-96393000D01*
X141858310Y-96393000D01*
X142091699Y-96296327D01*
X142270327Y-96117698D01*
X142367000Y-95884309D01*
X142367000Y-95027750D01*
X142208250Y-94869000D01*
X140843000Y-94869000D01*
X140843000Y-94889000D01*
X140589000Y-94889000D01*
X140589000Y-94869000D01*
X139223750Y-94869000D01*
X139065000Y-95027750D01*
X131865236Y-95027750D01*
X131905881Y-95000592D01*
X132163971Y-94614334D01*
X132254600Y-94158711D01*
X132254600Y-93801289D01*
X132214500Y-93599691D01*
X139065000Y-93599691D01*
X139065000Y-94456250D01*
X139223750Y-94615000D01*
X140589000Y-94615000D01*
X140589000Y-93249750D01*
X140843000Y-93249750D01*
X140843000Y-94615000D01*
X142208250Y-94615000D01*
X142367000Y-94456250D01*
X142367000Y-93599691D01*
X142270327Y-93366302D01*
X142091699Y-93187673D01*
X141858310Y-93091000D01*
X141001750Y-93091000D01*
X140843000Y-93249750D01*
X140589000Y-93249750D01*
X140430250Y-93091000D01*
X139573690Y-93091000D01*
X139340301Y-93187673D01*
X139161673Y-93366302D01*
X139065000Y-93599691D01*
X132214500Y-93599691D01*
X132163971Y-93345666D01*
X131905881Y-92959408D01*
X131519623Y-92701318D01*
X131064000Y-92610689D01*
X130608377Y-92701318D01*
X130222119Y-92959408D01*
X129964029Y-93345666D01*
X129873400Y-93801289D01*
X129714600Y-93801289D01*
X129623971Y-93345666D01*
X129365881Y-92959408D01*
X128979623Y-92701318D01*
X128524000Y-92610689D01*
X128068377Y-92701318D01*
X127682119Y-92959408D01*
X127424029Y-93345666D01*
X127333400Y-93801289D01*
X127174600Y-93801289D01*
X127083971Y-93345666D01*
X126825881Y-92959408D01*
X126439623Y-92701318D01*
X125984000Y-92610689D01*
X125528377Y-92701318D01*
X125142119Y-92959408D01*
X124942600Y-93258009D01*
X124942600Y-92837690D01*
X124845927Y-92604301D01*
X124667298Y-92425673D01*
X124433909Y-92329000D01*
X123729750Y-92329000D01*
X123571000Y-92487750D01*
X123317000Y-92487750D01*
X123158250Y-92329000D01*
X122454091Y-92329000D01*
X122220702Y-92425673D01*
X122042073Y-92604301D01*
X121945400Y-92837690D01*
X117983000Y-92837690D01*
X117983000Y-90551000D01*
X142621000Y-90551000D01*
X142621000Y-115189000D01*
X142621000Y-115189000D01*
G37*
X142621000Y-115189000D02*
X117983000Y-115189000D01*
X117983000Y-111467665D01*
X139118811Y-111467665D01*
X139284252Y-111868063D01*
X139590326Y-112174671D01*
X139990434Y-112340811D01*
X140423665Y-112341189D01*
X140824063Y-112175748D01*
X141130671Y-111869674D01*
X141296811Y-111469566D01*
X141297189Y-111036335D01*
X141131748Y-110635937D01*
X140825674Y-110329329D01*
X140425566Y-110163189D01*
X139992335Y-110162811D01*
X139591937Y-110328252D01*
X139285329Y-110634326D01*
X139119189Y-111034434D01*
X139118811Y-111467665D01*
X117983000Y-111467665D01*
X117983000Y-108927665D01*
X139118811Y-108927665D01*
X139284252Y-109328063D01*
X139590326Y-109634671D01*
X139990434Y-109800811D01*
X140423665Y-109801189D01*
X140824063Y-109635748D01*
X141130671Y-109329674D01*
X141296811Y-108929566D01*
X141297189Y-108496335D01*
X141131748Y-108095937D01*
X140825674Y-107789329D01*
X140425566Y-107623189D01*
X139992335Y-107622811D01*
X139591937Y-107788252D01*
X139285329Y-108094326D01*
X139119189Y-108494434D01*
X139118811Y-108927665D01*
X117983000Y-108927665D01*
X117983000Y-106387665D01*
X139118811Y-106387665D01*
X139284252Y-106788063D01*
X139590326Y-107094671D01*
X139990434Y-107260811D01*
X140423665Y-107261189D01*
X140824063Y-107095748D01*
X141130671Y-106789674D01*
X141296811Y-106389566D01*
X141297189Y-105956335D01*
X141131748Y-105555937D01*
X140825674Y-105249329D01*
X140425566Y-105083189D01*
X139992335Y-105082811D01*
X139591937Y-105248252D01*
X139285329Y-105554326D01*
X139119189Y-105954434D01*
X139118811Y-106387665D01*
X117983000Y-106387665D01*
X117983000Y-101893935D01*
X118797019Y-101893935D01*
X118984294Y-102277111D01*
X119185488Y-102448514D01*
X119102433Y-102572816D01*
X119043319Y-102870000D01*
X119102433Y-103167184D01*
X119270774Y-103419125D01*
X119399295Y-103505000D01*
X119270774Y-103590875D01*
X119102433Y-103842816D01*
X119043319Y-104140000D01*
X119102433Y-104437184D01*
X119270774Y-104689125D01*
X119522715Y-104857466D01*
X119819899Y-104916580D01*
X120464101Y-104916580D01*
X120761285Y-104857466D01*
X121013226Y-104689125D01*
X121181567Y-104437184D01*
X121240681Y-104140000D01*
X121181567Y-103842816D01*
X121013226Y-103590875D01*
X120884705Y-103505000D01*
X121013226Y-103419125D01*
X121181567Y-103167184D01*
X121240681Y-102870000D01*
X121181567Y-102572816D01*
X121098512Y-102448514D01*
X121299706Y-102277111D01*
X121486981Y-101893935D01*
X121360068Y-101727000D01*
X120269000Y-101727000D01*
X120269000Y-101747000D01*
X120015000Y-101747000D01*
X120015000Y-101727000D01*
X118923932Y-101727000D01*
X118797019Y-101893935D01*
X117983000Y-101893935D01*
X117983000Y-101306065D01*
X118797019Y-101306065D01*
X118923932Y-101473000D01*
X120015000Y-101473000D01*
X120015000Y-100515420D01*
X120269000Y-100515420D01*
X120269000Y-101473000D01*
X121360068Y-101473000D01*
X121486981Y-101306065D01*
X121299706Y-100922889D01*
X120975373Y-100646580D01*
X120569990Y-100515420D01*
X120269000Y-100515420D01*
X120015000Y-100515420D01*
X119714010Y-100515420D01*
X119308627Y-100646580D01*
X118984294Y-100922889D01*
X118797019Y-101306065D01*
X117983000Y-101306065D01*
X117983000Y-94265750D01*
X121945400Y-94265750D01*
X121945400Y-95122310D01*
X122042073Y-95355699D01*
X122220702Y-95534327D01*
X122454091Y-95631000D01*
X123158250Y-95631000D01*
X123317000Y-95472250D01*
X123317000Y-94107000D01*
X122104150Y-94107000D01*
X121945400Y-94265750D01*
X117983000Y-94265750D01*
X117983000Y-92837690D01*
X121945400Y-92837690D01*
X121945400Y-93694250D01*
X122104150Y-93853000D01*
X123317000Y-93853000D01*
X123317000Y-92487750D01*
X123571000Y-92487750D01*
X123571000Y-93853000D01*
X123591000Y-93853000D01*
X123591000Y-94107000D01*
X123571000Y-94107000D01*
X123571000Y-95472250D01*
X123729750Y-95631000D01*
X124433909Y-95631000D01*
X124667298Y-95534327D01*
X124845927Y-95355699D01*
X124942600Y-95122310D01*
X124942600Y-94701991D01*
X125142119Y-95000592D01*
X125528377Y-95258682D01*
X125984000Y-95349311D01*
X126439623Y-95258682D01*
X126825881Y-95000592D01*
X127083971Y-94614334D01*
X127174600Y-94158711D01*
X127174600Y-93801289D01*
X127333400Y-93801289D01*
X127333400Y-94158711D01*
X127424029Y-94614334D01*
X127682119Y-95000592D01*
X128068377Y-95258682D01*
X128524000Y-95349311D01*
X128979623Y-95258682D01*
X129365881Y-95000592D01*
X129623971Y-94614334D01*
X129714600Y-94158711D01*
X129714600Y-93801289D01*
X129873400Y-93801289D01*
X129873400Y-94158711D01*
X129964029Y-94614334D01*
X130222119Y-95000592D01*
X130608377Y-95258682D01*
X131064000Y-95349311D01*
X131519623Y-95258682D01*
X131865236Y-95027750D01*
X139065000Y-95027750D01*
X139065000Y-95884309D01*
X139161673Y-96117698D01*
X139340301Y-96296327D01*
X139573690Y-96393000D01*
X139708254Y-96393000D01*
X139475230Y-96741745D01*
X139373000Y-97255689D01*
X139373000Y-97308311D01*
X139475230Y-97822255D01*
X139766356Y-98257955D01*
X140202056Y-98549081D01*
X140716000Y-98651311D01*
X141229944Y-98549081D01*
X141665644Y-98257955D01*
X141956770Y-97822255D01*
X142059000Y-97308311D01*
X142059000Y-97255689D01*
X141956770Y-96741745D01*
X141723746Y-96393000D01*
X141858310Y-96393000D01*
X142091699Y-96296327D01*
X142270327Y-96117698D01*
X142367000Y-95884309D01*
X142367000Y-95027750D01*
X142208250Y-94869000D01*
X140843000Y-94869000D01*
X140843000Y-94889000D01*
X140589000Y-94889000D01*
X140589000Y-94869000D01*
X139223750Y-94869000D01*
X139065000Y-95027750D01*
X131865236Y-95027750D01*
X131905881Y-95000592D01*
X132163971Y-94614334D01*
X132254600Y-94158711D01*
X132254600Y-93801289D01*
X132214500Y-93599691D01*
X139065000Y-93599691D01*
X139065000Y-94456250D01*
X139223750Y-94615000D01*
X140589000Y-94615000D01*
X140589000Y-93249750D01*
X140843000Y-93249750D01*
X140843000Y-94615000D01*
X142208250Y-94615000D01*
X142367000Y-94456250D01*
X142367000Y-93599691D01*
X142270327Y-93366302D01*
X142091699Y-93187673D01*
X141858310Y-93091000D01*
X141001750Y-93091000D01*
X140843000Y-93249750D01*
X140589000Y-93249750D01*
X140430250Y-93091000D01*
X139573690Y-93091000D01*
X139340301Y-93187673D01*
X139161673Y-93366302D01*
X139065000Y-93599691D01*
X132214500Y-93599691D01*
X132163971Y-93345666D01*
X131905881Y-92959408D01*
X131519623Y-92701318D01*
X131064000Y-92610689D01*
X130608377Y-92701318D01*
X130222119Y-92959408D01*
X129964029Y-93345666D01*
X129873400Y-93801289D01*
X129714600Y-93801289D01*
X129623971Y-93345666D01*
X129365881Y-92959408D01*
X128979623Y-92701318D01*
X128524000Y-92610689D01*
X128068377Y-92701318D01*
X127682119Y-92959408D01*
X127424029Y-93345666D01*
X127333400Y-93801289D01*
X127174600Y-93801289D01*
X127083971Y-93345666D01*
X126825881Y-92959408D01*
X126439623Y-92701318D01*
X125984000Y-92610689D01*
X125528377Y-92701318D01*
X125142119Y-92959408D01*
X124942600Y-93258009D01*
X124942600Y-92837690D01*
X124845927Y-92604301D01*
X124667298Y-92425673D01*
X124433909Y-92329000D01*
X123729750Y-92329000D01*
X123571000Y-92487750D01*
X123317000Y-92487750D01*
X123158250Y-92329000D01*
X122454091Y-92329000D01*
X122220702Y-92425673D01*
X122042073Y-92604301D01*
X121945400Y-92837690D01*
X117983000Y-92837690D01*
X117983000Y-90551000D01*
X142621000Y-90551000D01*
X142621000Y-115189000D01*
M02*
